<svg width="721" height="362" viewBox="0 0 721 362" fill="none" xmlns="http://www.w3.org/2000/svg">
<path d="M0.981934 156.965V-0.384417H44.4218C55.8449 -0.384417 66.2222 1.14402 75.5537 4.2009C84.8853 7.25779 92.8493 12.004 99.4457 18.4395C106.042 24.7142 111.11 32.7586 114.65 42.5728C118.35 52.387 120.2 64.0514 120.2 77.566C120.2 91.0807 118.431 102.826 114.891 112.801C111.351 122.776 106.283 131.061 99.687 137.658C93.2515 144.093 85.5288 148.92 76.5191 152.138C67.5093 155.356 57.5342 156.965 46.5938 156.965H0.981934ZM36.6992 128.246H42.4912C48.6049 128.246 54.1556 127.361 59.1431 125.591C64.2916 123.822 68.6355 121.006 72.1751 117.145C75.8755 113.122 78.6911 107.894 80.6217 101.458C82.7133 95.0225 83.7591 87.0585 83.7591 77.566C83.7591 68.2345 82.7133 60.4314 80.6217 54.1568C78.6911 47.7212 75.8755 42.6532 72.1751 38.9528C68.6355 35.0915 64.2916 32.3564 59.1431 30.7475C54.1556 29.1386 48.6049 28.3342 42.4912 28.3342H36.6992V128.246Z" fill="#75975A"/>
<path d="M186.231 156.965V65.0167H138.206V37.2635H221.707V156.965H186.231ZM202.401 18.4395C195.482 18.4395 189.771 16.5089 185.266 12.6475C180.922 8.78622 178.75 3.55734 178.75 -3.03909C178.75 -9.63551 180.922 -14.9448 185.266 -18.967C189.771 -23.1501 195.482 -25.2417 202.401 -25.2417C209.319 -25.2417 214.95 -23.1501 219.294 -18.967C223.799 -14.9448 226.051 -9.63551 226.051 -3.03909C226.051 3.55734 223.799 8.78622 219.294 12.6475C214.95 16.5089 209.319 18.4395 202.401 18.4395Z" fill="#75975A"/>
<path d="M333.833 159.861C324.501 159.861 315.733 158.493 307.527 155.758C299.483 152.862 292.484 148.759 286.531 143.45C280.578 138.141 275.913 131.625 272.534 123.902C269.155 116.018 267.466 107.089 267.466 97.114C267.466 87.2998 269.155 78.5314 272.534 70.8087C276.074 62.9252 280.739 56.3288 286.531 51.0195C292.323 45.5492 298.92 41.4466 306.321 38.7115C313.882 35.8155 321.685 34.3675 329.73 34.3675C338.901 34.3675 347.025 35.8155 354.105 38.7115C361.184 41.6075 367.056 45.6297 371.722 50.7781C376.548 55.9265 380.168 62.0403 382.582 69.1194C384.995 76.0376 386.202 83.5994 386.202 91.8047C386.202 95.0225 385.96 98.1598 385.478 101.217C385.156 104.113 384.834 106.285 384.512 107.733H302.942C304.712 116.421 308.654 122.776 314.767 126.798C320.881 130.82 328.845 132.831 338.659 132.831C344.129 132.831 349.278 132.107 354.105 130.659C359.092 129.211 364.241 127.12 369.55 124.385L381.375 145.863C374.457 150.207 366.815 153.666 358.449 156.241C350.082 158.654 341.877 159.861 333.833 159.861ZM330.937 61.3968C323.857 61.3968 317.905 63.247 313.078 66.9474C308.412 70.6478 305.194 76.2789 303.425 83.8407H354.587C352.817 68.8781 344.934 61.3968 330.937 61.3968Z" fill="#75975A"/>
<path d="M456.094 207.886C448.371 207.886 441.131 207.242 434.374 205.955C427.778 204.829 422.066 202.979 417.239 200.404C412.413 197.991 408.632 194.854 405.897 190.992C403.162 187.131 401.794 182.546 401.794 177.236C401.794 167.422 407.988 159.458 420.377 153.345V152.379C416.998 150.288 414.102 147.633 411.689 144.415C409.436 141.197 408.31 137.014 408.31 131.866C408.31 127.844 409.597 123.821 412.171 119.799C414.907 115.777 418.366 112.318 422.549 109.422V108.457C418.205 105.561 414.504 101.538 411.447 96.39C408.391 91.0807 406.862 84.8865 406.862 77.8074C406.862 70.5674 408.23 64.2927 410.965 58.9834C413.861 53.5132 417.642 49.0083 422.307 45.4688C426.973 41.7684 432.363 39.0333 438.477 37.2635C444.751 35.3328 451.267 34.3675 458.025 34.3675C465.426 34.3675 472.022 35.3328 477.814 37.2635H526.322V63.3274H502.189C503.476 65.0972 504.682 67.4301 505.809 70.3261C506.935 73.0612 507.498 75.9572 507.498 79.0141C507.498 85.9323 506.211 91.8851 503.637 96.8727C501.062 101.86 497.523 106.043 493.018 109.422C488.674 112.64 483.445 115.053 477.331 116.662C471.378 118.271 464.943 119.075 458.025 119.075C452.876 119.075 447.406 118.271 441.614 116.662C439.844 117.949 438.477 119.236 437.511 120.523C436.707 121.81 436.305 123.5 436.305 125.591C436.305 128.809 437.914 131.142 441.131 132.59C444.349 133.877 449.498 134.521 456.577 134.521H478.779C494.546 134.521 506.533 136.853 514.738 141.519C523.104 146.185 527.287 153.908 527.287 164.687C527.287 170.962 525.598 176.754 522.219 182.063C518.841 187.372 514.094 191.877 507.981 195.578C501.867 199.439 494.385 202.416 485.537 204.507C476.688 206.76 466.874 207.886 456.094 207.886ZM458.025 97.5967C463.012 97.5967 467.276 95.9878 470.815 92.77C474.355 89.3914 476.125 84.4038 476.125 77.8074C476.125 71.5327 474.355 66.7061 470.815 63.3274C467.276 59.9488 463.012 58.2594 458.025 58.2594C453.037 58.2594 448.774 59.9488 445.234 63.3274C441.855 66.7061 440.166 71.5327 440.166 77.8074C440.166 84.4038 441.855 89.3914 445.234 92.77C448.774 95.9878 453.037 97.5967 458.025 97.5967ZM461.162 185.442C470.815 185.442 478.618 184.074 484.571 181.339C490.524 178.604 493.501 175.145 493.501 170.962C493.501 167.1 491.731 164.607 488.191 163.48C484.652 162.354 479.423 161.791 472.505 161.791H457.542C453.198 161.791 449.578 161.63 446.682 161.309C443.947 161.148 441.453 160.745 439.201 160.102C436.144 162.033 433.972 163.883 432.685 165.653C431.398 167.583 430.754 169.675 430.754 171.927C430.754 176.432 433.409 179.811 438.718 182.063C444.188 184.316 451.67 185.442 461.162 185.442Z" fill="#75975A"/>
<path d="M596.697 159.861C588.813 159.861 581.171 158.493 573.77 155.758C566.53 152.862 560.014 148.759 554.222 143.45C548.591 138.141 544.086 131.625 540.708 123.902C537.329 116.018 535.64 107.089 535.64 97.114C535.64 87.1389 537.329 78.2901 540.708 70.5674C544.086 62.6839 548.591 56.0874 554.222 50.7781C560.014 45.4688 566.53 41.4466 573.77 38.7115C581.171 35.8155 588.813 34.3675 596.697 34.3675C604.58 34.3675 612.142 35.8155 619.382 38.7115C626.783 41.4466 633.299 45.4688 638.93 50.7781C644.722 56.0874 649.307 62.6839 652.686 70.5674C656.065 78.2901 657.754 87.1389 657.754 97.114C657.754 107.089 656.065 116.018 652.686 123.902C649.307 131.625 644.722 138.141 638.93 143.45C633.299 148.759 626.783 152.862 619.382 155.758C612.142 158.493 604.58 159.861 596.697 159.861ZM596.697 131.142C604.902 131.142 611.016 128.085 615.038 121.971C619.221 115.858 621.313 107.572 621.313 97.114C621.313 86.6563 619.221 78.3705 615.038 72.2567C611.016 66.143 604.902 63.0861 596.697 63.0861C588.491 63.0861 582.297 66.143 578.114 72.2567C574.092 78.3705 572.081 86.6563 572.081 97.114C572.081 107.572 574.092 115.858 578.114 121.971C582.297 128.085 588.491 131.142 596.697 131.142Z" fill="#75975A"/>
<path d="M65.612 359.056V201.707H102.777L118.223 257.455L123.532 279.175H124.497L129.806 257.455L145.252 201.707H182.417V359.056H152.492V310.307C152.492 305.963 152.653 300.493 152.974 293.896C153.296 287.3 153.698 280.543 154.181 273.624C154.664 266.706 155.146 260.029 155.629 253.594C156.273 246.997 156.755 241.608 157.077 237.424H156.353L144.286 279.416L132.22 317.306H114.844L102.536 279.416L91.1932 237.424H90.4692C90.9519 241.608 91.4346 246.997 91.9172 253.594C92.3999 260.029 92.8826 266.706 93.3652 273.624C93.8479 280.543 94.2501 287.3 94.5719 293.896C94.8937 300.493 95.0546 305.963 95.0546 310.307V359.056H65.612Z" fill="#75975A"/>
<path d="M259.067 361.952C251.183 361.952 243.541 360.585 236.14 357.849C228.9 354.953 222.384 350.851 216.592 345.542C210.961 340.232 206.456 333.716 203.077 325.994C199.699 318.11 198.009 309.181 198.009 299.206C198.009 289.231 199.699 280.382 203.077 272.659C206.456 264.776 210.961 258.179 216.592 252.87C222.384 247.56 228.9 243.538 236.14 240.803C243.541 237.907 251.183 236.459 259.067 236.459C266.95 236.459 274.512 237.907 281.752 240.803C289.153 243.538 295.669 247.56 301.3 252.87C307.092 258.179 311.677 264.776 315.056 272.659C318.434 280.382 320.124 289.231 320.124 299.206C320.124 309.181 318.434 318.11 315.056 325.994C311.677 333.716 307.092 340.232 301.3 345.542C295.669 350.851 289.153 354.953 281.752 357.849C274.512 360.585 266.95 361.952 259.067 361.952ZM259.067 333.234C267.272 333.234 273.386 330.177 277.408 324.063C281.591 317.949 283.682 309.663 283.682 299.206C283.682 288.748 281.591 280.462 277.408 274.348C273.386 268.235 267.272 265.178 259.067 265.178C250.861 265.178 244.667 268.235 240.484 274.348C236.462 280.462 234.451 288.748 234.451 299.206C234.451 309.663 236.462 317.949 240.484 324.063C244.667 330.177 250.861 333.234 259.067 333.234Z" fill="#75975A"/>
<path d="M375.536 361.952C361.86 361.952 351.966 357.608 345.852 348.92C339.738 340.232 336.681 328.326 336.681 313.203V239.355H372.157V308.618C372.157 316.662 373.364 322.534 375.777 326.235C378.191 329.935 382.776 331.786 389.533 331.786C394.038 331.786 397.98 330.82 401.359 328.89C404.898 326.959 408.759 323.339 412.943 318.03V239.355H448.418V359.056H419.459L416.804 341.922H415.839C410.529 348.035 404.657 352.942 398.221 356.643C391.786 360.182 384.224 361.952 375.536 361.952Z" fill="#75975A"/>
<path d="M484.765 359.056V239.355H513.725L516.621 265.419H517.345C523.298 255.605 530.458 248.365 538.824 243.699C547.19 238.872 556.2 236.459 565.853 236.459C571.163 236.459 575.426 236.861 578.644 237.666C582.023 238.47 585.482 239.677 589.021 241.286L581.781 270.97C578.081 269.843 574.702 269.039 571.645 268.556C568.749 267.913 565.049 267.591 560.544 267.591C553.143 267.591 545.823 269.763 538.583 274.107C531.504 278.451 525.39 286.013 520.241 296.792V359.056H484.765Z" fill="#75975A"/>
<path d="M645.881 361.952C639.768 361.952 634.297 360.987 629.471 359.056C624.644 357.286 620.541 354.793 617.163 351.575C613.784 348.196 611.13 344.335 609.199 339.991C607.429 335.647 606.544 330.901 606.544 325.752C606.544 318.995 607.992 313.122 610.888 308.135C613.784 302.987 618.37 298.643 624.644 295.103C631.08 291.563 639.285 288.748 649.26 286.656C659.235 284.404 671.302 282.875 685.46 282.071C684.816 276.601 682.403 272.337 678.22 269.28C674.198 266.224 668.084 264.695 659.879 264.695C654.087 264.695 648.214 265.741 642.261 267.832C636.469 269.763 630.195 272.418 623.438 275.796L610.888 252.628C619.094 247.963 627.862 244.101 637.193 241.044C646.686 237.988 656.581 236.459 666.877 236.459C683.61 236.459 696.803 240.884 706.456 249.732C716.109 258.581 720.936 272.176 720.936 290.518V359.056H691.976L689.321 345.542H688.356C682.242 350.207 675.565 354.149 668.325 357.367C661.085 360.424 653.604 361.952 645.881 361.952ZM657.224 334.44C662.533 334.44 667.521 333.394 672.187 331.303C676.853 329.05 681.277 326.315 685.46 323.098V303.308C676.611 303.791 669.291 304.595 663.499 305.722C657.707 306.848 653.121 308.296 649.743 310.066C646.364 311.675 643.951 313.605 642.503 315.858C641.216 318.11 640.572 320.523 640.572 323.098C640.572 326.959 642.02 329.855 644.916 331.786C647.973 333.555 652.076 334.44 657.224 334.44Z" fill="#75975A"/>
</svg>
