<svg width="716" height="369" viewBox="0 0 716 369" fill="none" xmlns="http://www.w3.org/2000/svg">
<path fill-rule="evenodd" clip-rule="evenodd" d="M187.091 66.274V160H223.052V37.984H138.409V66.274H187.091ZM186.113 12.892C190.679 16.828 196.469 18.796 203.482 18.796C210.494 18.796 216.202 16.828 220.606 12.892C224.447 9.58106 226.673 5.28373 227.283 1.24182e-08H179.674C180.262 5.28373 182.408 9.58106 186.113 12.892ZM53.1357 8.22947e-08C60.9254 0.641061 68.1802 2.06839 74.9 4.282C84.3591 7.398 92.432 12.236 99.1187 18.796C105.805 25.192 110.943 33.392 114.531 43.396C118.282 53.4 120.157 65.29 120.157 79.066C120.157 92.842 118.363 104.814 114.775 114.982C111.187 125.15 106.05 133.596 99.3633 140.32C92.8398 146.88 85.0115 151.8 75.8785 155.08C66.7455 158.36 56.634 160 45.544 160H0V0L53.1357 8.22947e-08ZM716 256.093V366H699.753L697.062 352.224H696.083C689.886 356.98 683.118 360.998 675.779 364.278C668.44 367.394 660.856 368.952 653.028 368.952C646.83 368.952 641.285 367.968 636.393 366C631.5 364.196 627.341 361.654 623.916 358.374C620.492 354.93 617.801 350.994 615.843 346.566C614.049 342.138 613.153 337.3 613.153 332.052C613.153 325.164 614.62 319.178 617.556 314.094C620.492 308.846 625.14 304.418 631.5 300.81C638.024 297.202 646.341 294.332 656.453 292.2C666.564 289.904 678.796 288.346 693.148 287.526C692.495 281.95 690.049 277.604 685.809 274.488C681.731 271.372 675.534 269.814 667.216 269.814C661.345 269.814 655.393 270.88 649.358 273.012C643.487 274.98 637.127 277.686 630.277 281.13L617.556 257.514C625.873 252.758 634.762 248.822 644.221 245.706C653.843 242.59 663.873 241.032 674.311 241.032C691.272 241.032 704.645 245.542 714.431 254.562C714.969 255.058 715.492 255.568 716 256.093ZM41.3852 130.726H35.514V28.882H41.3852C47.5826 28.882 53.2092 29.702 58.2649 31.342C63.4838 32.982 67.8872 35.77 71.4751 39.706C75.2262 43.478 78.0802 48.644 80.0373 55.204C82.1574 61.6 83.2175 69.554 83.2175 79.066C83.2175 88.742 82.1574 96.86 80.0373 103.42C78.0802 109.98 75.2262 115.31 71.4751 119.41C67.8872 123.346 63.4838 126.216 58.2649 128.02C53.2092 129.824 47.5826 130.726 41.3852 130.726ZM336.711 162.952C327.252 162.952 318.364 161.558 310.046 158.77C301.892 155.818 294.797 151.636 288.763 146.224C282.729 140.812 277.999 134.17 274.574 126.298C271.149 118.262 269.437 109.16 269.437 98.992C269.437 88.988 271.149 80.05 274.574 72.178C278.162 64.142 282.892 57.418 288.763 52.006C294.634 46.43 301.321 42.248 308.823 39.46C316.488 36.508 324.398 35.032 332.552 35.032C341.848 35.032 350.084 36.508 357.26 39.46C364.436 42.412 370.389 46.512 375.119 51.76C380.011 57.008 383.681 63.24 386.127 70.456C388.573 77.508 389.797 85.216 389.797 93.58C389.797 96.86 389.552 100.058 389.063 103.174C388.737 106.126 388.41 108.34 388.084 109.816H305.398C307.192 118.672 311.188 125.15 317.385 129.25C323.582 133.35 331.655 135.4 341.604 135.4C347.149 135.4 352.368 134.662 357.26 133.186C362.316 131.71 367.535 129.578 372.917 126.79L384.904 148.684C377.891 153.112 370.144 156.638 361.664 159.262C353.183 161.722 344.866 162.952 336.711 162.952ZM333.776 62.584C326.6 62.584 320.565 64.47 315.673 68.242C310.943 72.014 307.681 77.754 305.887 85.462H357.75C355.956 70.21 347.964 62.584 333.776 62.584ZM438.628 209.938C445.477 211.25 452.816 211.906 460.645 211.906C471.572 211.906 481.52 210.758 490.49 208.462C499.46 206.33 507.043 203.296 513.241 199.36C519.438 195.588 524.249 190.996 527.674 185.584C531.099 180.172 532.812 174.268 532.812 167.872C532.812 156.884 528.571 149.012 520.091 144.256C511.773 139.5 499.623 137.122 483.64 137.122H461.134C453.958 137.122 448.739 136.466 445.477 135.154C442.216 133.678 440.585 131.3 440.585 128.02C440.585 125.888 440.992 124.166 441.808 122.854C442.786 121.542 444.173 120.23 445.967 118.918C451.838 120.558 457.383 121.378 462.602 121.378C469.615 121.378 476.138 120.558 482.172 118.918C488.37 117.278 493.67 114.818 498.074 111.538C502.64 108.094 506.228 103.83 508.837 98.746C511.447 93.662 512.752 87.594 512.752 80.542C512.752 77.426 512.181 74.474 511.039 71.686C509.898 68.734 508.674 66.356 507.37 64.552H531.833V37.984H482.662C476.79 36.016 470.104 35.032 462.602 35.032C455.752 35.032 449.147 36.016 442.786 37.984C436.589 39.788 431.126 42.576 426.396 46.348C421.666 49.956 417.834 54.548 414.898 60.124C412.126 65.536 410.74 71.932 410.74 79.312C410.74 86.528 412.289 92.842 415.388 98.254C418.486 103.502 422.237 107.602 426.641 110.554V111.538C422.4 114.49 418.894 118.016 416.121 122.116C413.512 126.216 412.207 130.316 412.207 134.416C412.207 139.664 413.349 143.928 415.632 147.208C418.078 150.488 421.014 153.194 424.439 155.326V156.31C411.881 162.542 405.602 170.66 405.602 180.664C405.602 186.076 406.988 190.75 409.761 194.686C412.533 198.622 416.366 201.82 421.259 204.28C426.151 206.904 431.941 208.79 438.628 209.938ZM475.567 94.564C471.979 97.844 467.658 99.484 462.602 99.484C457.546 99.484 453.224 97.844 449.636 94.564C446.211 91.12 444.499 86.036 444.499 79.312C444.499 72.916 446.211 67.996 449.636 64.552C453.224 61.108 457.546 59.386 462.602 59.386C467.658 59.386 471.979 61.108 475.567 64.552C479.155 67.996 480.949 72.916 480.949 79.312C480.949 86.036 479.155 91.12 475.567 94.564ZM489.511 184.846C483.477 187.634 475.567 189.028 465.782 189.028C456.16 189.028 448.576 187.88 443.031 185.584C437.649 183.288 434.958 179.844 434.958 175.252C434.958 172.956 435.611 170.824 436.915 168.856C438.22 167.052 440.422 165.166 443.52 163.198C445.804 163.854 448.331 164.264 451.104 164.428C454.04 164.756 457.709 164.92 462.112 164.92H477.28C484.293 164.92 489.593 165.494 493.181 166.642C496.769 167.79 498.563 170.332 498.563 174.268C498.563 178.532 495.546 182.058 489.511 184.846ZM603.17 162.952C595.179 162.952 587.432 161.558 579.93 158.77C572.591 155.818 565.986 151.636 560.115 146.224C554.407 140.812 549.84 134.17 546.415 126.298C542.991 118.262 541.278 109.16 541.278 98.992C541.278 88.824 542.991 79.804 546.415 71.932C549.84 63.896 554.407 57.172 560.115 51.76C565.986 46.348 572.591 42.248 579.93 39.46C587.432 36.508 595.179 35.032 603.17 35.032C611.162 35.032 618.827 36.508 626.166 39.46C633.668 42.248 640.273 46.348 645.981 51.76C651.852 57.172 656.5 63.896 659.925 71.932C663.35 79.804 665.063 88.824 665.063 98.992C665.063 109.16 663.35 118.262 659.925 126.298C656.5 134.17 651.852 140.812 645.981 146.224C640.273 151.636 633.668 155.818 626.166 158.77C618.827 161.558 611.162 162.952 603.17 162.952ZM603.17 133.678C611.488 133.678 617.685 130.562 621.763 124.33C626.003 118.098 628.123 109.652 628.123 98.992C628.123 88.332 626.003 79.886 621.763 73.654C617.685 67.422 611.488 64.306 603.17 64.306C594.853 64.306 588.574 67.422 584.333 73.654C580.256 79.886 578.218 88.332 578.218 98.992C578.218 109.652 580.256 118.098 584.333 124.33C588.574 130.562 594.853 133.678 603.17 133.678ZM64.8222 205.608V366H94.6675V316.308C94.6675 311.88 94.5044 306.304 94.1782 299.58C93.852 292.856 93.4443 285.968 92.9551 278.916C92.4658 271.864 91.9765 265.058 91.4873 258.498C90.998 251.774 90.5087 246.28 90.0195 242.016H90.7534L102.251 284.82L114.727 323.442H132.341L144.573 284.82L156.804 242.016H157.538C157.212 246.28 156.723 251.774 156.07 258.498C155.581 265.058 155.092 271.864 154.603 278.916C154.113 285.968 153.706 292.856 153.379 299.58C153.053 306.304 152.89 311.88 152.89 316.308V366H183.225V205.608H145.551L129.895 262.434L124.513 284.574H123.534L118.152 262.434L102.496 205.608H64.8222ZM260.923 368.952C252.931 368.952 245.185 367.558 237.682 364.77C230.343 361.818 223.738 357.636 217.867 352.224C212.159 346.812 207.593 340.17 204.168 332.298C200.743 324.262 199.03 315.16 199.03 304.992C199.03 294.824 200.743 285.804 204.168 277.932C207.593 269.896 212.159 263.172 217.867 257.76C223.738 252.348 230.343 248.248 237.682 245.46C245.185 242.508 252.931 241.032 260.923 241.032C268.914 241.032 276.579 242.508 283.918 245.46C291.42 248.248 298.025 252.348 303.733 257.76C309.605 263.172 314.253 269.896 317.678 277.932C321.102 285.804 322.815 294.824 322.815 304.992C322.815 315.16 321.102 324.262 317.678 332.298C314.253 340.17 309.605 346.812 303.733 352.224C298.025 357.636 291.42 361.818 283.918 364.77C276.579 367.558 268.914 368.952 260.923 368.952ZM260.923 339.678C269.24 339.678 275.438 336.562 279.515 330.33C283.755 324.098 285.875 315.652 285.875 304.992C285.875 294.332 283.755 285.886 279.515 279.654C275.438 273.422 269.24 270.306 260.923 270.306C252.605 270.306 246.326 273.422 242.086 279.654C238.009 285.886 235.97 294.332 235.97 304.992C235.97 315.652 238.009 324.098 242.086 330.33C246.326 336.562 252.605 339.678 260.923 339.678ZM348.895 355.668C355.092 364.524 365.122 368.952 378.985 368.952C387.792 368.952 395.457 367.148 401.98 363.54C408.504 359.768 414.457 354.766 419.839 348.534H420.817L423.508 366H452.864V243.984H416.903V324.18C412.663 329.592 408.749 333.282 405.161 335.25C401.736 337.218 397.74 338.202 393.174 338.202C386.324 338.202 381.676 336.316 379.23 332.544C376.783 328.772 375.56 322.786 375.56 314.586V243.984H339.599V319.26C339.599 334.676 342.698 346.812 348.895 355.668ZM489.708 243.984H519.064L522 270.552H522.734C528.768 260.548 536.026 253.168 544.506 248.412C552.987 243.492 562.12 241.032 571.905 241.032C577.287 241.032 581.609 241.442 584.871 242.262C588.295 243.082 591.802 244.312 595.39 245.952L588.051 276.21C584.3 275.062 580.875 274.242 577.776 273.75C574.841 273.094 571.09 272.766 566.523 272.766C559.021 272.766 551.6 274.98 544.261 279.408C537.086 283.836 530.888 291.544 525.669 302.532V366H489.708V243.984ZM679.693 337.71C674.963 339.842 669.907 340.908 664.526 340.908C659.307 340.908 655.148 340.006 652.049 338.202C649.114 336.234 647.646 333.282 647.646 329.346C647.646 326.722 648.298 324.262 649.603 321.966C651.071 319.67 653.517 317.702 656.942 316.062C660.367 314.258 665.015 312.782 670.886 311.634C676.757 310.486 684.178 309.666 693.148 309.174V329.346C688.907 332.626 684.422 335.414 679.693 337.71Z" fill="#B9F18C"/>
</svg>
