<svg width="348" height="654" viewBox="0 0 348 654" fill="none" xmlns="http://www.w3.org/2000/svg">
<path d="M160.392 660.126L0 660.126L1.27021e-06 553.608H30.504V623.964H67.65V563.94H98.154V623.964H160.392V660.126Z" fill="#2066B8"/>
<path d="M160.392 519.756H38.376V490.236L64.944 487.284V486.546C54.94 480.478 47.56 473.18 42.804 464.652C37.884 456.124 35.424 446.94 35.424 437.1C35.424 431.688 35.834 427.342 36.654 424.062C37.474 420.618 38.704 417.092 40.344 413.484L70.602 420.864C69.454 424.636 68.634 428.08 68.142 431.196C67.486 434.148 67.158 437.92 67.158 442.512C67.158 450.056 69.372 457.518 73.8 464.898C78.228 472.114 85.936 478.346 96.924 483.594H160.392V519.756Z" fill="#2066B8"/>
<path d="M163.344 336.828C163.344 344.864 161.95 352.654 159.162 360.198C156.21 367.578 152.028 374.22 146.616 380.124C141.204 385.864 134.562 390.456 126.69 393.9C118.654 397.344 109.552 399.066 99.384 399.066C89.216 399.066 80.196 397.344 72.324 393.9C64.288 390.456 57.564 385.864 52.152 380.124C46.74 374.22 42.64 367.578 39.852 360.198C36.9 352.654 35.424 344.864 35.424 336.828C35.424 328.792 36.9 321.084 39.852 313.704C42.64 306.16 46.74 299.518 52.152 293.778C57.564 287.874 64.288 283.2 72.324 279.756C80.196 276.312 89.216 274.59 99.384 274.59C109.552 274.59 118.654 276.312 126.69 279.756C134.562 283.2 141.204 287.874 146.616 293.778C152.028 299.518 156.21 306.16 159.162 313.704C161.95 321.084 163.344 328.792 163.344 336.828ZM134.07 336.828C134.07 328.464 130.954 322.232 124.722 318.132C118.49 313.868 110.044 311.736 99.384 311.736C88.724 311.736 80.278 313.868 74.046 318.132C67.814 322.232 64.698 328.464 64.698 336.828C64.698 345.192 67.814 351.506 74.046 355.77C80.278 359.87 88.724 361.92 99.384 361.92C110.044 361.92 118.49 359.87 124.722 355.77C130.954 351.506 134.07 345.192 134.07 336.828Z" fill="#2066B8"/>
<path d="M160.392 255.252H38.376V225.732L54.612 223.026V222.042C49.364 216.794 44.854 210.808 41.082 204.084C37.31 197.196 35.424 189.16 35.424 179.976C35.424 166.2 39.852 156.114 48.708 149.718C57.564 143.322 69.7 140.124 85.116 140.124H160.392V176.286H89.79C81.59 176.286 75.604 177.598 71.832 180.222C68.06 182.846 66.174 187.52 66.174 194.244C66.174 199.164 67.24 203.51 69.372 207.282C71.504 210.89 74.702 214.826 78.966 219.09H160.392V255.252Z" fill="#2066B8"/>
<path d="M163.344 39.852C163.344 49.528 162.032 57.728 159.408 64.452C156.784 71.176 153.176 76.67 148.584 80.934C143.828 85.034 138.17 87.986 131.61 89.79C125.05 91.594 117.752 92.496 109.716 92.496H66.666V123.246H39.852L38.376 90.774L0.984009 86.1L0.984009 56.334H38.376V4.674L66.666 4.674V56.334H109.47C118.818 56.334 125.46 54.284 129.396 50.184C133.168 46.084 135.054 39.524 135.054 30.504C135.054 25.912 134.644 21.73 133.824 17.958C133.004 14.022 131.938 10.168 130.626 6.39599L156.702 0C158.342 5.412 159.818 11.398 161.13 17.958C162.606 24.354 163.344 31.652 163.344 39.852Z" fill="#2066B8"/>
<path d="M348.344 604.776C348.344 614.288 346.95 623.226 344.162 631.59C341.21 639.79 337.028 646.924 331.616 652.992C326.204 659.06 319.562 663.816 311.69 667.26C303.654 670.704 294.552 672.426 284.384 672.426C274.38 672.426 265.442 670.704 257.57 667.26C249.534 663.652 242.81 658.896 237.398 652.992C231.822 647.088 227.64 640.364 224.852 632.82C221.9 625.112 220.424 617.158 220.424 608.958C220.424 599.61 221.9 591.328 224.852 584.112C227.804 576.896 231.904 570.91 237.152 566.154C242.4 561.234 248.632 557.544 255.848 555.084C262.9 552.624 270.608 551.394 278.972 551.394C282.252 551.394 285.45 551.64 288.566 552.132C291.518 552.46 293.732 552.788 295.208 553.116V636.264C304.064 634.46 310.542 630.442 314.642 624.21C318.742 617.978 320.792 609.86 320.792 599.856C320.792 594.28 320.054 589.032 318.578 584.112C317.102 579.028 314.97 573.78 312.182 568.368L334.076 556.314C338.504 563.366 342.03 571.156 344.654 579.684C347.114 588.212 348.344 596.576 348.344 604.776ZM247.976 607.728C247.976 614.944 249.862 621.012 253.634 625.932C257.406 630.688 263.146 633.968 270.854 635.772V583.62C255.602 585.424 247.976 593.46 247.976 607.728Z" fill="#2066B8"/>
<path d="M345.392 530.58H223.376V501.06L239.612 498.354V497.37C234.364 492.122 229.854 486.136 226.082 479.412C222.31 472.524 220.424 464.488 220.424 455.304C220.424 441.528 224.852 431.442 233.708 425.046C242.564 418.65 254.7 415.452 270.116 415.452H345.392V451.614H274.79C266.59 451.614 260.604 452.926 256.832 455.55C253.06 458.174 251.174 462.848 251.174 469.572C251.174 474.492 252.24 478.838 254.372 482.61C256.504 486.218 259.702 490.154 263.966 494.418H345.392V530.58Z" fill="#2066B8"/>
<path d="M348.344 347.652C348.344 355.36 346.868 362.412 343.916 368.808C340.964 375.04 336.782 380.452 331.37 385.044C325.794 389.472 319.07 392.916 311.198 395.376C303.326 397.836 294.388 399.066 284.384 399.066C274.38 399.066 265.442 397.59 257.57 394.638C249.698 391.686 243.056 387.832 237.644 383.076C232.068 378.156 227.804 372.58 224.852 366.348C221.9 360.116 220.424 353.638 220.424 346.914C220.424 340.026 221.572 334.204 223.868 329.448C226 324.692 229.198 320.264 233.462 316.164V315.18L214.52 316.902H172.946V280.74H345.392V310.26L332.846 312.966V313.704C337.274 318.296 340.964 323.544 343.916 329.448C346.868 335.352 348.344 341.42 348.344 347.652ZM318.824 338.304C318.824 334.204 318.004 330.432 316.364 326.988C314.56 323.544 311.608 320.182 307.508 316.902H258.062C255.11 320.182 253.06 323.544 251.912 326.988C250.6 330.268 249.944 333.712 249.944 337.32C249.944 344.044 252.732 349.866 258.308 354.786C263.884 359.542 272.412 361.92 283.892 361.92C296.028 361.92 304.884 359.87 310.46 355.77C316.036 351.67 318.824 345.848 318.824 338.304Z" fill="#2066B8"/>
</svg>
