<svg width="720" height="369" viewBox="0 0 720 369" fill="none" xmlns="http://www.w3.org/2000/svg">
<path fill-rule="evenodd" clip-rule="evenodd" d="M188.14 66.274V160H224.302V37.984H139.186V66.274H188.14ZM187.156 12.892C191.748 16.828 197.57 18.796 204.622 18.796C211.674 18.796 217.414 16.828 221.842 12.892C225.705 9.58106 227.943 5.28373 228.556 1.2418e-08H180.682C181.273 5.28373 183.431 9.58106 187.156 12.892ZM53.4364 8.22947e-08C61.2697 0.641061 68.565 2.06839 75.3223 4.282C84.8343 7.398 92.9523 12.236 99.6763 18.796C106.4 25.192 111.566 33.392 115.174 43.396C118.946 53.4 120.832 65.29 120.832 79.066C120.832 92.842 119.028 104.814 115.42 114.982C111.812 125.15 106.646 133.596 99.9223 140.32C93.3623 146.88 85.4903 151.8 76.3063 155.08C67.1223 158.36 56.9543 160 45.8023 160H0V0L53.4364 8.22947e-08ZM720 256.089V366H703.666L700.96 352.224H699.976C693.744 356.98 686.938 360.998 679.558 364.278C672.178 367.394 664.552 368.952 656.68 368.952C650.448 368.952 644.872 367.968 639.952 366C635.032 364.196 630.85 361.654 627.406 358.374C623.962 354.93 621.256 350.994 619.288 346.566C617.484 342.138 616.582 337.3 616.582 332.052C616.582 325.164 618.058 319.178 621.01 314.094C623.962 308.846 628.636 304.418 635.032 300.81C641.592 297.202 649.956 294.332 660.124 292.2C670.292 289.904 682.592 288.346 697.024 287.526C696.368 281.95 693.908 277.604 689.644 274.488C685.544 271.372 679.312 269.814 670.948 269.814C665.044 269.814 659.058 270.88 652.99 273.012C647.086 274.98 640.69 277.686 633.802 281.13L621.01 257.514C629.374 252.758 638.312 248.822 647.824 245.706C657.5 242.59 667.586 241.032 678.082 241.032C695.138 241.032 708.586 245.542 718.426 254.562C718.965 255.057 719.49 255.566 720 256.089ZM41.6203 130.726H35.7163V28.882H41.6203C47.8523 28.882 53.5103 29.702 58.5943 31.342C63.8423 32.982 68.2703 35.77 71.8783 39.706C75.6503 43.478 78.5203 48.644 80.4883 55.204C82.6203 61.6 83.6863 69.554 83.6863 79.066C83.6863 88.742 82.6203 96.86 80.4883 103.42C78.5203 109.98 75.6503 115.31 71.8783 119.41C68.2703 123.346 63.8423 126.216 58.5943 128.02C53.5103 129.824 47.8523 130.726 41.6203 130.726ZM338.596 162.952C329.084 162.952 320.146 161.558 311.782 158.77C303.582 155.818 296.448 151.636 290.38 146.224C284.312 140.812 279.556 134.17 276.112 126.298C272.668 118.262 270.946 109.16 270.946 98.992C270.946 88.988 272.668 80.05 276.112 72.178C279.72 64.142 284.476 57.418 290.38 52.006C296.284 46.43 303.008 42.248 310.552 39.46C318.26 36.508 326.214 35.032 334.414 35.032C343.762 35.032 352.044 36.508 359.26 39.46C366.476 42.412 372.462 46.512 377.218 51.76C382.138 57.008 385.828 63.24 388.288 70.456C390.748 77.508 391.978 85.216 391.978 93.58C391.978 96.86 391.732 100.058 391.24 103.174C390.912 106.126 390.584 108.34 390.256 109.816H307.108C308.912 118.672 312.93 125.15 319.162 129.25C325.394 133.35 333.512 135.4 343.516 135.4C349.092 135.4 354.34 134.662 359.26 133.186C364.344 131.71 369.592 129.578 375.004 126.79L387.058 148.684C380.006 153.112 372.216 156.638 363.688 159.262C355.16 161.722 346.796 162.952 338.596 162.952ZM335.644 62.584C328.428 62.584 322.36 64.47 317.44 68.242C312.684 72.014 309.404 77.754 307.6 85.462H359.752C357.948 70.21 349.912 62.584 335.644 62.584ZM441.082 209.938C447.97 211.25 455.35 211.906 463.222 211.906C474.21 211.906 484.214 210.758 493.234 208.462C502.254 206.33 509.88 203.296 516.112 199.36C522.344 195.588 527.182 190.996 530.626 185.584C534.07 180.172 535.792 174.268 535.792 167.872C535.792 156.884 531.528 149.012 523 144.256C514.636 139.5 502.418 137.122 486.346 137.122H463.714C456.498 137.122 451.25 136.466 447.97 135.154C444.69 133.678 443.05 131.3 443.05 128.02C443.05 125.888 443.46 124.166 444.28 122.854C445.264 121.542 446.658 120.23 448.462 118.918C454.366 120.558 459.942 121.378 465.19 121.378C472.242 121.378 478.802 120.558 484.87 118.918C491.102 117.278 496.432 114.818 500.86 111.538C505.452 108.094 509.06 103.83 511.684 98.746C514.308 93.662 515.62 87.594 515.62 80.542C515.62 77.426 515.046 74.474 513.898 71.686C512.75 68.734 511.52 66.356 510.208 64.552H534.808V37.984H485.362C479.458 36.016 472.734 35.032 465.19 35.032C458.302 35.032 451.66 36.016 445.264 37.984C439.032 39.788 433.538 42.576 428.782 46.348C424.026 49.956 420.172 54.548 417.22 60.124C414.432 65.536 413.038 71.932 413.038 79.312C413.038 86.528 414.596 92.842 417.712 98.254C420.828 103.502 424.6 107.602 429.028 110.554V111.538C424.764 114.49 421.238 118.016 418.45 122.116C415.826 126.216 414.514 130.316 414.514 134.416C414.514 139.664 415.662 143.928 417.958 147.208C420.418 150.488 423.37 153.194 426.814 155.326V156.31C414.186 162.542 407.872 170.66 407.872 180.664C407.872 186.076 409.266 190.75 412.054 194.686C414.842 198.622 418.696 201.82 423.616 204.28C428.536 206.904 434.358 208.79 441.082 209.938ZM478.228 94.564C474.62 97.844 470.274 99.484 465.19 99.484C460.106 99.484 455.76 97.844 452.152 94.564C448.708 91.12 446.986 86.036 446.986 79.312C446.986 72.916 448.708 67.996 452.152 64.552C455.76 61.108 460.106 59.386 465.19 59.386C470.274 59.386 474.62 61.108 478.228 64.552C481.836 67.996 483.64 72.916 483.64 79.312C483.64 86.036 481.836 91.12 478.228 94.564ZM492.25 184.846C486.182 187.634 478.228 189.028 468.388 189.028C458.712 189.028 451.086 187.88 445.51 185.584C440.098 183.288 437.392 179.844 437.392 175.252C437.392 172.956 438.048 170.824 439.36 168.856C440.672 167.052 442.886 165.166 446.002 163.198C448.298 163.854 450.84 164.264 453.628 164.428C456.58 164.756 460.27 164.92 464.698 164.92H479.95C487.002 164.92 492.332 165.494 495.94 166.642C499.548 167.79 501.352 170.332 501.352 174.268C501.352 178.532 498.318 182.058 492.25 184.846ZM606.544 162.952C598.508 162.952 590.718 161.558 583.174 158.77C575.794 155.818 569.152 151.636 563.248 146.224C557.508 140.812 552.916 134.17 549.472 126.298C546.028 118.262 544.306 109.16 544.306 98.992C544.306 88.824 546.028 79.804 549.472 71.932C552.916 63.896 557.508 57.172 563.248 51.76C569.152 46.348 575.794 42.248 583.174 39.46C590.718 36.508 598.508 35.032 606.544 35.032C614.58 35.032 622.288 36.508 629.668 39.46C637.212 42.248 643.854 46.348 649.594 51.76C655.498 57.172 660.172 63.896 663.616 71.932C667.06 79.804 668.782 88.824 668.782 98.992C668.782 109.16 667.06 118.262 663.616 126.298C660.172 134.17 655.498 140.812 649.594 146.224C643.854 151.636 637.212 155.818 629.668 158.77C622.288 161.558 614.58 162.952 606.544 162.952ZM606.544 133.678C614.908 133.678 621.14 130.562 625.24 124.33C629.504 118.098 631.636 109.652 631.636 98.992C631.636 88.332 629.504 79.886 625.24 73.654C621.14 67.422 614.908 64.306 606.544 64.306C598.18 64.306 591.866 67.422 587.602 73.654C583.502 79.886 581.452 88.332 581.452 98.992C581.452 109.652 583.502 118.098 587.602 124.33C591.866 130.562 598.18 133.678 606.544 133.678ZM65.1882 205.608V366H95.2002V316.308C95.2002 311.88 95.0362 306.304 94.7082 299.58C94.3802 292.856 93.9702 285.968 93.4782 278.916C92.9862 271.864 92.4942 265.058 92.0022 258.498C91.5102 251.774 91.0182 246.28 90.5262 242.016H91.2642L102.826 284.82L115.372 323.442H133.084L145.384 284.82L157.684 242.016H158.422C158.094 246.28 157.602 251.774 156.946 258.498C156.454 265.058 155.962 271.864 155.47 278.916C154.978 285.968 154.568 292.856 154.24 299.58C153.912 306.304 153.748 311.88 153.748 316.308V366H184.252V205.608H146.368L130.624 262.434L125.212 284.574H124.228L118.816 262.434L103.072 205.608H65.1882ZM262.384 368.952C254.348 368.952 246.558 367.558 239.014 364.77C231.634 361.818 224.992 357.636 219.088 352.224C213.348 346.812 208.756 340.17 205.312 332.298C201.868 324.262 200.146 315.16 200.146 304.992C200.146 294.824 201.868 285.804 205.312 277.932C208.756 269.896 213.348 263.172 219.088 257.76C224.992 252.348 231.634 248.248 239.014 245.46C246.558 242.508 254.348 241.032 262.384 241.032C270.42 241.032 278.128 242.508 285.508 245.46C293.052 248.248 299.694 252.348 305.434 257.76C311.338 263.172 316.012 269.896 319.456 277.932C322.9 285.804 324.622 294.824 324.622 304.992C324.622 315.16 322.9 324.262 319.456 332.298C316.012 340.17 311.338 346.812 305.434 352.224C299.694 357.636 293.052 361.818 285.508 364.77C278.128 367.558 270.42 368.952 262.384 368.952ZM262.384 339.678C270.748 339.678 276.98 336.562 281.08 330.33C285.344 324.098 287.476 315.652 287.476 304.992C287.476 294.332 285.344 285.886 281.08 279.654C276.98 273.422 270.748 270.306 262.384 270.306C254.02 270.306 247.706 273.422 243.442 279.654C239.342 285.886 237.292 294.332 237.292 304.992C237.292 315.652 239.342 324.098 243.442 330.33C247.706 336.562 254.02 339.678 262.384 339.678ZM350.848 355.668C357.08 364.524 367.166 368.952 381.106 368.952C389.962 368.952 397.67 367.148 404.23 363.54C410.79 359.768 416.776 354.766 422.188 348.534H423.172L425.878 366H455.398V243.984H419.236V324.18C414.972 329.592 411.036 333.282 407.428 335.25C403.984 337.218 399.966 338.202 395.374 338.202C388.486 338.202 383.812 336.316 381.352 332.544C378.892 328.772 377.662 322.786 377.662 314.586V243.984H341.5V319.26C341.5 334.676 344.616 346.812 350.848 355.668ZM492.448 243.984H521.968L524.92 270.552H525.658C531.726 260.548 539.024 253.168 547.552 248.412C556.08 243.492 565.264 241.032 575.104 241.032C580.516 241.032 584.862 241.442 588.142 242.262C591.586 243.082 595.112 244.312 598.72 245.952L591.34 276.21C587.568 275.062 584.124 274.242 581.008 273.75C578.056 273.094 574.284 272.766 569.692 272.766C562.148 272.766 554.686 274.98 547.306 279.408C540.09 283.836 533.858 291.544 528.61 302.532V366H492.448V243.984ZM683.494 337.71C678.738 339.842 673.654 340.908 668.242 340.908C662.994 340.908 658.812 340.006 655.696 338.202C652.744 336.234 651.268 333.282 651.268 329.346C651.268 326.722 651.924 324.262 653.236 321.966C654.712 319.67 657.172 317.702 660.616 316.062C664.06 314.258 668.734 312.782 674.638 311.634C680.542 310.486 688.004 309.666 697.024 309.174V329.346C692.76 332.626 688.25 335.414 683.494 337.71Z" fill="#B9F18C"/>
</svg>
