<svg width="665" height="164" viewBox="0 0 665 164" fill="none" xmlns="http://www.w3.org/2000/svg">
<path d="M0 160.392V0H37.6735L53.3301 56.826L58.712 78.966H59.6905L65.0725 56.826L80.729 0H118.403V160.392H88.068V110.7C88.068 106.272 88.2311 100.696 88.5573 93.972C88.8834 87.248 89.2912 80.36 89.7804 73.308C90.2697 66.256 90.759 59.45 91.2482 52.89C91.9006 46.166 92.3899 40.672 92.716 36.408H91.9821L79.7505 79.212L67.5188 117.834H49.9052L37.4289 79.212L25.9311 36.408H25.1972C25.6865 40.672 26.1758 46.166 26.665 52.89C27.1543 59.45 27.6436 66.256 28.1328 73.308C28.6221 80.36 29.0298 87.248 29.356 93.972C29.6822 100.696 29.8453 106.272 29.8453 110.7V160.392H0Z" fill="#B9F18C"/>
<path d="M196.1 163.344C188.109 163.344 180.362 161.95 172.86 159.162C165.521 156.21 158.916 152.028 153.045 146.616C147.337 141.204 142.77 134.562 139.345 126.69C135.921 118.654 134.208 109.552 134.208 99.384C134.208 89.216 135.921 80.196 139.345 72.324C142.77 64.288 147.337 57.564 153.045 52.152C158.916 46.74 165.521 42.64 172.86 39.852C180.362 36.9 188.109 35.424 196.1 35.424C204.092 35.424 211.757 36.9 219.096 39.852C226.598 42.64 233.203 46.74 238.911 52.152C244.782 57.564 249.43 64.288 252.855 72.324C256.28 80.196 257.993 89.216 257.993 99.384C257.993 109.552 256.28 118.654 252.855 126.69C249.43 134.562 244.782 141.204 238.911 146.616C233.203 152.028 226.598 156.21 219.096 159.162C211.757 161.95 204.092 163.344 196.1 163.344ZM196.1 134.07C204.418 134.07 210.615 130.954 214.692 124.722C218.933 118.49 221.053 110.044 221.053 99.384C221.053 88.724 218.933 80.278 214.692 74.046C210.615 67.814 204.418 64.698 196.1 64.698C187.783 64.698 181.504 67.814 177.264 74.046C173.186 80.278 171.148 88.724 171.148 99.384C171.148 110.044 173.186 118.49 177.264 124.722C181.504 130.954 187.783 134.07 196.1 134.07Z" fill="#B9F18C"/>
<path d="M314.163 163.344C300.3 163.344 290.27 158.916 284.073 150.06C277.875 141.204 274.777 129.068 274.777 113.652V38.376H310.738V108.978C310.738 117.178 311.961 123.164 314.407 126.936C316.854 130.708 321.502 132.594 328.351 132.594C332.918 132.594 336.914 131.61 340.338 129.642C343.926 127.674 347.841 123.984 352.081 118.572V38.376H388.042V160.392H358.686L355.995 142.926H355.016C349.635 149.158 343.682 154.16 337.158 157.932C330.635 161.54 322.97 163.344 314.163 163.344Z" fill="#B9F18C"/>
<path d="M424.886 160.392V38.376H454.242L457.178 64.944H457.912C463.946 54.94 471.203 47.56 479.684 42.804C488.165 37.884 497.297 35.424 507.083 35.424C512.465 35.424 516.787 35.834 520.048 36.654C523.473 37.474 526.98 38.704 530.568 40.344L523.229 70.602C519.478 69.454 516.053 68.634 512.954 68.142C510.018 67.486 506.267 67.158 501.701 67.158C494.199 67.158 486.778 69.372 479.439 73.8C472.263 78.228 466.066 85.936 460.847 96.924V160.392H424.886Z" fill="#B9F18C"/>
<path d="M588.206 163.344C582.008 163.344 576.463 162.36 571.57 160.392C566.678 158.588 562.519 156.046 559.094 152.766C555.669 149.322 552.978 145.386 551.021 140.958C549.227 136.53 548.33 131.692 548.33 126.444C548.33 119.556 549.798 113.57 552.734 108.486C555.669 103.238 560.317 98.81 566.678 95.202C573.201 91.594 581.519 88.724 591.63 86.592C601.742 84.296 613.974 82.738 628.325 81.918C627.673 76.342 625.227 71.996 620.986 68.88C616.909 65.764 610.712 64.206 602.394 64.206C596.523 64.206 590.57 65.272 584.536 67.404C578.665 69.372 572.304 72.078 565.455 75.522L552.734 51.906C561.051 47.15 569.94 43.214 579.399 40.098C589.021 36.982 599.051 35.424 609.489 35.424C626.45 35.424 639.823 39.934 649.608 48.954C659.394 57.974 664.286 71.832 664.286 90.528V160.392H634.931L632.24 146.616H631.261C625.064 151.372 618.295 155.39 610.956 158.67C603.617 161.786 596.034 163.344 588.206 163.344ZM599.703 135.3C605.085 135.3 610.141 134.234 614.871 132.102C619.6 129.806 624.085 127.018 628.325 123.738V103.566C619.356 104.058 611.935 104.878 606.064 106.026C600.193 107.174 595.545 108.65 592.12 110.454C588.695 112.094 586.248 114.062 584.781 116.358C583.476 118.654 582.824 121.114 582.824 123.738C582.824 127.674 584.291 130.626 587.227 132.594C590.326 134.398 594.484 135.3 599.703 135.3Z" fill="#B9F18C"/>
</svg>
