<svg width="666" height="238" viewBox="0 0 666 238" fill="none" xmlns="http://www.w3.org/2000/svg">
<path d="M0 185.73V25.338H44.034C55.6133 25.338 66.1325 26.896 75.5917 30.012C85.0509 33.128 93.1237 37.966 99.8104 44.526C106.497 50.922 111.634 59.122 115.222 69.126C118.973 79.13 120.849 91.02 120.849 104.796C120.849 118.572 119.055 130.544 115.467 140.712C111.879 150.88 106.742 159.326 100.055 166.05C93.5315 172.61 85.7032 177.53 76.5702 180.81C67.4373 184.09 57.3257 185.73 46.2357 185.73H0ZM36.2057 156.456H42.0769C48.2743 156.456 53.9009 155.554 58.9566 153.75C64.1755 151.946 68.5789 149.076 72.1668 145.14C75.9179 141.04 78.7719 135.71 80.729 129.15C82.8492 122.59 83.9092 114.472 83.9092 104.796C83.9092 95.284 82.8492 87.33 80.729 80.934C78.7719 74.374 75.9179 69.208 72.1668 65.436C68.5789 61.5 64.1755 58.712 58.9566 57.072C53.9009 55.432 48.2743 54.612 42.0769 54.612H36.2057V156.456Z" fill="#B9F18C"/>
<path d="M187.783 185.73V92.004H139.101V63.714H223.744V185.73H187.783ZM204.173 44.526C197.16 44.526 191.371 42.558 186.804 38.622C182.401 34.686 180.199 29.356 180.199 22.632C180.199 15.908 182.401 10.496 186.804 6.39601C191.371 2.132 197.16 0 204.173 0C211.186 0 216.894 2.132 221.298 6.39601C225.864 10.496 228.147 15.908 228.147 22.632C228.147 29.356 225.864 34.686 221.298 38.622C216.894 42.558 211.186 44.526 204.173 44.526Z" fill="#B9F18C"/>
<path d="M337.403 188.682C327.944 188.682 319.055 187.288 310.738 184.5C302.583 181.548 295.489 177.366 289.455 171.954C283.42 166.542 278.691 159.9 275.266 152.028C271.841 143.992 270.129 134.89 270.129 124.722C270.129 114.718 271.841 105.78 275.266 97.908C278.854 89.872 283.584 83.148 289.455 77.736C295.326 72.16 302.013 67.978 309.515 65.19C317.18 62.238 325.09 60.762 333.244 60.762C342.54 60.762 350.776 62.238 357.952 65.19C365.128 68.142 371.081 72.242 375.81 77.49C380.703 82.738 384.372 88.97 386.819 96.186C389.265 103.238 390.488 110.946 390.488 119.31C390.488 122.59 390.244 125.788 389.754 128.904C389.428 131.856 389.102 134.07 388.776 135.546H306.09C307.884 144.402 311.879 150.88 318.077 154.98C324.274 159.08 332.347 161.13 342.296 161.13C347.841 161.13 353.059 160.392 357.952 158.916C363.008 157.44 368.227 155.308 373.609 152.52L385.596 174.414C378.583 178.842 370.836 182.368 362.355 184.992C353.875 187.452 345.557 188.682 337.403 188.682ZM334.467 88.314C327.291 88.314 321.257 90.2 316.364 93.972C311.635 97.744 308.373 103.484 306.579 111.192H358.441C356.647 95.94 348.656 88.314 334.467 88.314Z" fill="#B9F18C"/>
<path d="M461.336 237.636C453.508 237.636 446.169 236.98 439.319 235.668C432.633 234.52 426.843 232.634 421.95 230.01C417.058 227.55 413.225 224.352 410.453 220.416C407.68 216.48 406.294 211.806 406.294 206.394C406.294 196.39 412.573 188.272 425.131 182.04V181.056C421.706 178.924 418.77 176.218 416.324 172.938C414.041 169.658 412.899 165.394 412.899 160.146C412.899 156.046 414.204 151.946 416.813 147.846C419.586 143.746 423.092 140.22 427.332 137.268V136.284C422.929 133.332 419.178 129.232 416.079 123.984C412.981 118.572 411.431 112.258 411.431 105.042C411.431 97.662 412.817 91.266 415.59 85.854C418.526 80.278 422.358 75.686 427.088 72.078C431.817 68.306 437.281 65.518 443.478 63.714C449.839 61.746 456.444 60.762 463.293 60.762C470.796 60.762 477.482 61.746 483.353 63.714H532.525V90.282H508.061C509.366 92.086 510.589 94.464 511.731 97.416C512.872 100.204 513.443 103.156 513.443 106.272C513.443 113.324 512.139 119.392 509.529 124.476C506.92 129.56 503.332 133.824 498.765 137.268C494.362 140.548 489.062 143.008 482.864 144.648C476.83 146.288 470.306 147.108 463.293 147.108C458.075 147.108 452.53 146.288 446.658 144.648C444.864 145.96 443.478 147.272 442.5 148.584C441.684 149.896 441.276 151.618 441.276 153.75C441.276 157.03 442.907 159.408 446.169 160.884C449.431 162.196 454.65 162.852 461.826 162.852H484.332C500.315 162.852 512.465 165.23 520.782 169.986C529.263 174.742 533.503 182.614 533.503 193.602C533.503 199.998 531.791 205.902 528.366 211.314C524.941 216.726 520.13 221.318 513.933 225.09C507.735 229.026 500.152 232.06 491.182 234.192C482.212 236.488 472.263 237.636 461.336 237.636ZM463.293 125.214C468.349 125.214 472.671 123.574 476.259 120.294C479.847 116.85 481.641 111.766 481.641 105.042C481.641 98.646 479.847 93.726 476.259 90.282C472.671 86.838 468.349 85.116 463.293 85.116C458.238 85.116 453.916 86.838 450.328 90.282C446.903 93.726 445.191 98.646 445.191 105.042C445.191 111.766 446.903 116.85 450.328 120.294C453.916 123.574 458.238 125.214 463.293 125.214ZM466.474 214.758C476.259 214.758 484.169 213.364 490.203 210.576C496.237 207.788 499.255 204.262 499.255 199.998C499.255 196.062 497.461 193.52 493.873 192.372C490.285 191.224 484.984 190.65 477.971 190.65H462.804C458.401 190.65 454.731 190.486 451.796 190.158C449.023 189.994 446.495 189.584 444.212 188.928C441.113 190.896 438.912 192.782 437.607 194.586C436.302 196.554 435.65 198.686 435.65 200.982C435.65 205.574 438.341 209.018 443.723 211.314C449.268 213.61 456.851 214.758 466.474 214.758Z" fill="#B9F18C"/>
<path d="M603.862 188.682C595.871 188.682 588.124 187.288 580.622 184.5C573.283 181.548 566.678 177.366 560.807 171.954C555.098 166.542 550.532 159.9 547.107 152.028C543.682 143.992 541.97 134.89 541.97 124.722C541.97 114.554 543.682 105.534 547.107 97.662C550.532 89.626 555.098 82.902 560.807 77.49C566.678 72.078 573.283 67.978 580.622 65.19C588.124 62.238 595.871 60.762 603.862 60.762C611.853 60.762 619.519 62.238 626.858 65.19C634.36 67.978 640.965 72.078 646.673 77.49C652.544 82.902 657.192 89.626 660.617 97.662C664.042 105.534 665.754 114.554 665.754 124.722C665.754 134.89 664.042 143.992 660.617 152.028C657.192 159.9 652.544 166.542 646.673 171.954C640.965 177.366 634.36 181.548 626.858 184.5C619.519 187.288 611.853 188.682 603.862 188.682ZM603.862 159.408C612.18 159.408 618.377 156.292 622.454 150.06C626.695 143.828 628.815 135.382 628.815 124.722C628.815 114.062 626.695 105.616 622.454 99.384C618.377 93.152 612.18 90.036 603.862 90.036C595.544 90.036 589.266 93.152 585.025 99.384C580.948 105.616 578.909 114.062 578.909 124.722C578.909 135.382 580.948 143.828 585.025 150.06C589.266 156.292 595.544 159.408 603.862 159.408Z" fill="#B9F18C"/>
</svg>
