<?xml version="1.0" standalone="no"?>
<!DOCTYPE svg PUBLIC "-//W3C//DTD SVG 1.1//EN" "http://www.w3.org/Graphics/SVG/1.1/DTD/svg11.dtd" >
<svg xmlns="http://www.w3.org/2000/svg" xmlns:xlink="http://www.w3.org/1999/xlink" version="1.1">
<metadata>
Created by FontForge 20190801 at Thu Sep  7 21:20:24 2017
 By www-data
Copyright (c) 2017 by Alex Kaczun, dba Type Innovations Inc.. All rights reserved.
</metadata>
<defs>
<font id="RBCDisplayRegular" horiz-adv-x="264" >
  <font-face 
    font-family="RBCDisplayRegular"
    font-weight="400"
    font-stretch="normal"
    units-per-em="1000"
    panose-1="2 0 0 0 0 0 0 0 0 0"
    ascent="720"
    descent="-280"
    x-height="512"
    cap-height="689"
    bbox="-136 -283 1214 920"
    underline-thickness="50"
    underline-position="-150"
    unicode-range="U+0020-FB02"
  />
<missing-glyph horiz-adv-x="237" 
 />
    <glyph glyph-name="fi" unicode="fi" horiz-adv-x="593" 
d="M350 695q-30 16 -55.5 24.5t-46.5 8.5q-42 0 -62.5 -38.5t-20.5 -126.5v-51h141v-57h-141v-455h-84v549q0 45 5 81.5t22 66.5q28 49 71.5 67.5t93.5 18.5q27 0 54.5 -4.5t49.5 -11.5zM503 0h-84v512h84v-512zM518 666q0 -23 -17 -40.5t-41 -17.5t-40.5 17.5t-16.5 40.5
q0 25 16.5 42.5t40.5 17.5t41 -17.5t17 -42.5z" />
    <glyph glyph-name="fl" unicode="fl" horiz-adv-x="602" 
d="M350 695q-30 16 -55.5 24.5t-46.5 8.5q-42 0 -62.5 -38.5t-20.5 -126.5v-51h141v-57h-141v-455h-84v549q0 45 5 81.5t22 66.5q28 49 71.5 67.5t93.5 18.5q27 0 54.5 -4.5t49.5 -11.5zM513 0h-84v767h84v-767z" />
    <glyph glyph-name=".notdef" horiz-adv-x="237" 
 />
    <glyph glyph-name=".null" horiz-adv-x="0" 
 />
    <glyph glyph-name="nonmarkingreturn" horiz-adv-x="333" 
 />
    <glyph glyph-name="space" unicode=" " horiz-adv-x="237" 
 />
    <glyph glyph-name="exclam" unicode="!" horiz-adv-x="261" 
d="M152 192h-43l-27 534h96zM187 43q0 -24 -16.5 -41t-40.5 -17t-40.5 17t-16.5 41t16.5 42t40.5 18t40.5 -18t16.5 -42z" />
    <glyph glyph-name="quotedbl" unicode="&#x22;" horiz-adv-x="393" 
d="M250 543l-10 225h67l-9 -225h-48zM95 543l-9 225h67l-10 -225h-48z" />
    <glyph glyph-name="numbersign" unicode="#" horiz-adv-x="561" 
d="M506 414h-102l-23 -126h102l-11 -53h-103l-32 -180h-56l32 180h-110l-36 -180h-53l34 180h-103l9 53h104l25 126h-106l11 53h105l32 167h54l-31 -167h110l31 167h56l-33 -167h103zM238 414l-24 -126h109l25 126h-110z" />
    <glyph glyph-name="dollar" unicode="$" horiz-adv-x="531" 
d="M408 528q-20 25 -57 47.5t-88 22.5q-48 0 -81.5 -23t-33.5 -67q0 -23 9.5 -40.5t27.5 -31.5t44 -26.5t59 -25.5q32 -13 63.5 -27.5t56.5 -34.5t40.5 -46t15.5 -61q0 -38 -14.5 -68t-38.5 -52.5t-55.5 -36.5t-65.5 -18v-111h-52v111q-50 4 -99.5 21t-82.5 40l32 69
q13 -13 32.5 -27.5t42.5 -26.5t48.5 -19.5t51.5 -7.5q30 0 52.5 8t38.5 21t24 30t8 35q0 37 -34 66t-113 62q-30 12 -61 28t-56 36.5t-41 47t-16 60.5q0 35 14.5 63t38.5 49t55 34t65 17v96h52v-95q42 -3 80.5 -18.5t69.5 -33.5z" />
    <glyph glyph-name="percent" unicode="%" horiz-adv-x="864" 
d="M398 498q0 -42 -14 -77.5t-37.5 -61t-55 -40t-67.5 -14.5t-68 14.5t-56 40t-37.5 61t-13.5 77.5t13.5 77.5t37.5 61t56 40t68 14.5t67.5 -14.5t55 -40t37.5 -61t14 -77.5zM322 498q0 30 -7.5 56.5t-20.5 46t-31 31t-39 11.5t-39.5 -11.5t-32 -31t-21 -46t-7.5 -56.5
t7.5 -56.5t21 -46t31.5 -31t40 -11.5q21 0 39 11.5t31 31t20.5 46t7.5 56.5zM268 -10h-62l391 708h62zM814 191q0 -42 -13.5 -77.5t-37 -61t-55 -40t-67.5 -14.5q-37 0 -69 14.5t-56 40t-37.5 61t-13.5 77.5t13.5 77.5t37.5 61t56 40t69 14.5q36 0 67.5 -14.5t55 -40t37 -61
t13.5 -77.5zM739 191q0 30 -7.5 56.5t-20.5 46t-31 31t-39 11.5t-39.5 -11.5t-32 -31t-21 -46t-7.5 -56.5t7.5 -56.5t21 -46t31.5 -31t40 -11.5q21 0 39 11.5t31 31t20.5 46t7.5 56.5z" />
    <glyph glyph-name="ampersand" unicode="&#x26;" horiz-adv-x="688" 
d="M242 365q-14 -8 -32 -21t-34 -32t-26.5 -44.5t-10.5 -57.5q0 -39 15.5 -68.5t39 -49.5t51.5 -30.5t54 -10.5q25 0 47 6t40.5 15.5t33.5 21t26 23.5zM617 369q-5 -27 -14 -57t-20.5 -59.5t-25 -55.5t-27.5 -44l6 -9q19 -22 47.5 -57t70.5 -73v-14h-112l-65 79
q-12 -14 -31 -30.5t-45.5 -30.5t-60 -24t-74.5 -10q-45 0 -84.5 15t-68 41.5t-45 61t-16.5 73.5q0 70 41 128.5t117 100.5q-9 10 -20 24.5t-21 33t-16.5 41t-6.5 49.5q0 36 15.5 65t41 49t59 30.5t70.5 10.5q40 0 83 -13t81 -37l-37 -72q-9 11 -24 23t-33.5 22.5t-40 17.5
t-42.5 7q-36 0 -61.5 -24t-25.5 -64q0 -24 11 -49t29.5 -51t42 -54.5t48.5 -58.5l132 -161q15 25 30 72t15 104h77z" />
    <glyph glyph-name="quotesingle" unicode="'" horiz-adv-x="238" 
d="M95 543l-9 225h67l-10 -225h-48z" />
    <glyph glyph-name="parenleft" unicode="(" horiz-adv-x="383" 
d="M250 -259q-26 42 -54 96t-51.5 119.5t-38.5 140t-15 157.5q0 80 15 155.5t38.5 141.5t51.5 121t54 95l42 -19q-24 -49 -44 -108.5t-34.5 -123.5t-23 -131t-8.5 -131t8.5 -130t23.5 -130.5t35 -124t43 -109.5z" />
    <glyph glyph-name="parenright" unicode=")" horiz-adv-x="383" 
d="M92 -240q23 50 43 109.5t34.5 124t23 130.5t8.5 130t-8 131t-22.5 131t-34.5 123.5t-44 108.5l41 19q26 -40 54.5 -95t52 -121t39 -141.5t15.5 -155.5q0 -83 -15.5 -157.5t-39 -140t-52 -119.5t-54.5 -96z" />
    <glyph glyph-name="asterisk" unicode="*" horiz-adv-x="486" 
d="M272 534l107 -125l-62 -47l-74 147l-74 -147l-63 47l106 125l-152 34l24 75l140 -70l-21 162h80l-21 -162l140 70l24 -75z" />
    <glyph glyph-name="plus" unicode="+" horiz-adv-x="545" 
d="M302 247v-192h-59v192h-171v58h171v191h59v-191h171v-58h-171z" />
    <glyph glyph-name="comma" unicode="," horiz-adv-x="237" 
d="M48 -117q26 22 42 51t16 52q0 18 -12.5 32t-36.5 19l-3 8q3 26 21.5 42t41.5 16t43.5 -18.5t20.5 -51.5q0 -23 -9.5 -46.5t-25.5 -46.5t-35.5 -44t-38.5 -38z" />
    <glyph glyph-name="hyphen" unicode="-" horiz-adv-x="303" 
d="M37 247v58h229v-58h-229z" />
    <glyph glyph-name="period" unicode="." horiz-adv-x="237" 
d="M175 43q0 -24 -16 -41t-41 -17q-23 0 -39.5 17t-16.5 41t16.5 42t39.5 18q25 0 41 -18t16 -42z" />
    <glyph glyph-name="slash" unicode="/" horiz-adv-x="313" 
d="M81 -85h-58l228 853h59z" />
    <glyph glyph-name="zero" unicode="0" horiz-adv-x="569" 
d="M517 343q0 -78 -17.5 -143t-49 -112.5t-74 -73.5t-93.5 -26q-50 0 -92 26.5t-73 73.5t-48.5 112t-17.5 142q0 78 17.5 144t48 114t73 74.5t92.5 26.5q51 0 93.5 -26.5t74 -74.5t49 -113.5t17.5 -143.5zM424 342q0 66 -9 123t-26.5 99t-43.5 65.5t-61 23.5t-61 -23.5
t-43.5 -65t-26.5 -98t-9 -122.5t9 -122.5t27 -98t44 -65t60 -23.5t60.5 23.5t44 65t26.5 97.5t9 121z" />
    <glyph glyph-name="one" unicode="1" horiz-adv-x="358" 
d="M164 0l3 609l-136 -65v54l221 103l-4 -701h-84z" />
    <glyph glyph-name="two" unicode="2" horiz-adv-x="498" 
d="M27 0v60l132 131q83 82 132.5 149.5t49.5 133.5q0 36 -9.5 66.5t-26.5 53t-41.5 35t-55.5 12.5q-44 0 -81 -17.5t-67 -46.5l-29 36q49 44 96 66t106 22q40 0 76 -14.5t62.5 -41t42 -63t15.5 -80.5q0 -46 -17 -87.5t-42 -77.5t-53.5 -65.5t-51.5 -50.5l-158 -147h328v-74
h-408z" />
    <glyph glyph-name="three" unicode="3" horiz-adv-x="513" 
d="M281 395q37 -3 67 -18.5t51.5 -41t33.5 -58.5t12 -72q0 -46 -21 -85.5t-56 -69t-81 -46t-95 -16.5q-38 0 -78.5 8.5t-87.5 34.5l30 57q73 -51 156 -51q28 0 54 11t46.5 30.5t32.5 47t12 61.5q0 39 -11.5 68.5t-31.5 49.5t-47.5 30t-58.5 10h-53v56q72 2 118 37t46 102
q0 46 -32.5 75t-78.5 29q-40 0 -74 -12.5t-72 -38.5l-24 38q45 32 91 51t96 19q41 0 74.5 -11.5t57.5 -31.5t37.5 -48t13.5 -62q0 -30 -10 -54t-27 -43t-40 -32.5t-50 -23.5z" />
    <glyph glyph-name="four" unicode="4" horiz-adv-x="574" 
d="M441 197v-197h-84v197h-325v54l338 450h71v-432h89v-72h-89zM357 598l-247 -329h247v329z" />
    <glyph glyph-name="five" unicode="5" horiz-adv-x="505" 
d="M439 614h-278l-26 -175q11 1 22 1.5t22 0.5q79 0 131.5 -22t83 -56t43 -75.5t12.5 -80.5q0 -50 -20.5 -90.5t-55 -69t-80 -44t-95.5 -15.5q-41 0 -81.5 8.5t-89.5 34.5l31 57q72 -51 155 -51q27 0 53.5 11t47 31t33 48t12.5 62q0 54 -18 88.5t-46.5 54.5t-65 27.5
t-72.5 7.5q-23 0 -45.5 -2.5t-41.5 -5.5l46 330h323v-75z" />
    <glyph glyph-name="six" unicode="6" horiz-adv-x="536" 
d="M427 662q-54 -3 -92.5 -18t-65.5 -36t-44 -45.5t-29 -46.5q-14 -25 -26 -62.5t-16 -69.5q40 23 76.5 32.5t71.5 9.5q39 0 74 -14t61.5 -41t41.5 -66t15 -89q0 -55 -18.5 -97.5t-49 -71.5t-69.5 -44t-80 -15q-46 0 -86.5 17t-70.5 53t-47.5 91.5t-17.5 131.5q0 91 28 168
t76.5 133t114 87.5t141.5 31.5zM150 333q-2 -14 -3 -29t-1 -30q0 -43 6 -83t17 -65q19 -48 47 -71t62 -23q24 0 46.5 11.5t39.5 33.5t27.5 53t10.5 69q0 86 -35.5 128.5t-92.5 42.5q-29 0 -59.5 -8.5t-64.5 -28.5z" />
    <glyph glyph-name="seven" unicode="7" horiz-adv-x="467" 
d="M176 0h-88l282 612h-345l6 77h410v-27z" />
    <glyph glyph-name="eight" unicode="8" horiz-adv-x="510" 
d="M190 345q-21 13 -44.5 29t-43 38t-32.5 50.5t-13 67.5q0 36 17.5 67t46.5 54t66.5 36.5t78.5 13.5q40 0 74.5 -10.5t60 -30.5t40.5 -48t15 -63q0 -32 -11.5 -57t-31 -45.5t-46 -38t-55.5 -34.5l20 -12q26 -17 52 -34.5t46.5 -40t33.5 -50.5t13 -65t-18 -70.5t-49 -58.5
t-73.5 -40t-91.5 -15q-42 0 -79.5 9.5t-66 29t-45 49t-16.5 68.5q0 41 16 72t39.5 55t49.5 41.5t47 32.5zM274 400q20 11 38.5 26.5t33 34.5t23 40t8.5 44q0 38 -24 70q-14 18 -36.5 29.5t-51.5 11.5q-51 0 -83 -32q-35 -32 -35 -84q0 -24 10 -42.5t25.5 -34.5t35.5 -29
t40 -25zM225 319q-20 -15 -39 -33.5t-33.5 -39.5t-23 -44t-8.5 -46q0 -24 8.5 -46.5t25 -40t41 -27.5t57.5 -10t58 10t42.5 27.5t26 40t8.5 46.5q0 43 -43 82q-15 13 -31.5 25t-33 22.5t-31 19t-24.5 14.5z" />
    <glyph glyph-name="nine" unicode="9" horiz-adv-x="536" 
d="M111 27q52 3 91 18t67.5 36.5t48.5 46.5t33 48q14 25 24 62.5t12 69.5q-38 -23 -77 -34.5t-74 -11.5q-40 0 -75.5 14t-62 40.5t-42 65t-15.5 88.5q0 55 18.5 98t48.5 72.5t69 45t80 15.5q42 0 82.5 -17t72.5 -53t51.5 -91.5t19.5 -131.5q0 -91 -27.5 -168t-76 -133
t-114.5 -87.5t-142 -31.5zM390 360q1 11 1 19v19q-1 54 -7.5 96t-20.5 73q-20 47 -48 68t-62 21q-23 0 -44.5 -11.5t-38 -33.5t-26.5 -52.5t-10 -69.5q0 -85 37 -127.5t95 -42.5q57 0 124 41z" />
    <glyph glyph-name="colon" unicode=":" horiz-adv-x="252" 
d="M182 43q0 -24 -16.5 -41t-40.5 -17t-40 17t-16 41t16 42t40 18t40.5 -18t16.5 -42zM182 410q0 -23 -16.5 -40.5t-40.5 -17.5t-40 17.5t-16 40.5q0 24 16 41.5t40 17.5t40.5 -17.5t16.5 -41.5z" />
    <glyph glyph-name="semicolon" unicode=";" horiz-adv-x="252" 
d="M182 410q0 -23 -16.5 -40.5t-40.5 -17.5t-40 17.5t-16 40.5q0 24 16 41.5t40 17.5t40.5 -17.5t16.5 -41.5zM54 -117q26 22 42 51t16 52q0 18 -12.5 32t-35.5 19l-3 8q3 26 21.5 42t41.5 16t43.5 -18.5t20.5 -51.5q0 -23 -9.5 -46.5t-25.5 -46.5t-35.5 -44t-39.5 -38z" />
    <glyph glyph-name="less" unicode="&#x3c;" horiz-adv-x="545" 
d="M66 248v56l413 201v-65l-337 -165l337 -163v-65z" />
    <glyph glyph-name="equal" unicode="=" horiz-adv-x="545" 
d="M72 318v58h401v-58h-401zM72 176v58h401v-58h-401z" />
    <glyph glyph-name="greater" unicode="&#x3e;" horiz-adv-x="545" 
d="M67 47v65l336 163l-336 165v65l413 -201v-56z" />
    <glyph glyph-name="question" unicode="?" horiz-adv-x="450" 
d="M391 565q0 -42 -16.5 -78.5t-41 -67.5t-52.5 -57.5t-51 -49.5l-9 -120h-43l-4 177q10 8 21 18q9 8 20.5 19t22.5 23q21 22 42 55t21 81q0 63 -32 95t-77 32q-21 0 -41 -9t-36.5 -22t-28.5 -27t-19 -24l-44 63q35 29 80.5 51.5t105.5 22.5q30 0 62.5 -11.5t59 -34.5
t43.5 -57t17 -79zM256 43q0 -24 -16 -41t-41 -17q-23 0 -39.5 17t-16.5 41t16.5 42t39.5 18q25 0 41 -18t16 -42z" />
    <glyph glyph-name="at" unicode="@" horiz-adv-x="1030" 
d="M749 -87q-57 -29 -121.5 -46t-130.5 -17q-105 0 -182.5 32.5t-129.5 86t-77.5 123t-25.5 143.5q0 84 32.5 168.5t95 152t154 109.5t209.5 42q75 0 142.5 -23.5t118.5 -68.5t81.5 -111t30.5 -151q0 -62 -18.5 -120t-50 -102.5t-73.5 -71.5t-89 -27q-21 0 -37 5.5
t-29.5 12.5t-25.5 12.5t-25 5.5q-12 0 -26.5 -5t-31 -11.5t-36.5 -11.5t-44 -5q-39 0 -70 13t-52 37t-32.5 57t-11.5 73q0 63 21.5 117t59 93.5t87 62.5t106.5 23q38 0 66.5 -7t45.5 -14l69 14l-72 -335q-2 -14 -3.5 -26.5t-1.5 -20.5q0 -20 15.5 -28.5t35.5 -8.5
q24 0 52 18t51.5 53t39.5 87t16 120q0 60 -22.5 112.5t-63.5 91.5t-98.5 61.5t-127.5 22.5q-92 0 -165.5 -35.5t-126 -94.5t-80.5 -135t-28 -158q0 -72 26 -131t71.5 -101t108.5 -64.5t138 -22.5q51 0 105 13t111 38zM652 435q-17 11 -40.5 17.5t-43.5 6.5q-38 0 -71.5 -19
t-58.5 -52t-39.5 -77.5t-14.5 -95.5q0 -63 32 -95q28 -25 72 -25q30 0 58 12t41 23z" />
    <glyph glyph-name="A" unicode="A" horiz-adv-x="584" 
d="M284 597l-99 -308h201zM484 0l-78 231h-238l-74 -231h-91l202 547q23 59 21 92t-44 41v9h155l244 -689h-97z" />
    <glyph glyph-name="B" unicode="B" horiz-adv-x="606" 
d="M299 396q26 0 49 8.5t40.5 24.5t28 40t10.5 56q0 54 -37 81t-97 27h-119v-237h125zM301 56q78 0 119 39t41 111q0 32 -11 57t-30.5 42t-46 26t-57.5 9h-142v-284h127zM328 689q49 0 84.5 -13t59 -35t34.5 -49.5t11 -56.5q0 -25 -8 -49.5t-23.5 -45.5t-38 -37t-51.5 -24
q72 -18 115 -61.5t43 -120.5q0 -37 -15 -72.5t-43 -63.5q-29 -28 -71.5 -44.5t-91.5 -16.5h-246v551q0 34 -2 60.5t-16 43.5q-7 10 -19.5 17t-24.5 8v9h303z" />
    <glyph glyph-name="C" unicode="C" horiz-adv-x="620" 
d="M539 559q-10 14 -28 29.5t-40.5 29t-48 22t-50.5 8.5q-48 0 -89.5 -21.5t-72 -60.5t-48 -94.5t-17.5 -122.5q0 -71 20 -127.5t53 -96.5t76 -61t90 -21q46 0 95 17t91 52v-82q-35 -22 -85.5 -35t-109.5 -13q-69 0 -128.5 24t-103.5 70.5t-69.5 113t-25.5 152.5
q0 78 22.5 145t65 115.5t103.5 76.5t137 28q54 0 105.5 -17.5t95.5 -44.5z" />
    <glyph glyph-name="D" unicode="D" horiz-adv-x="662" 
d="M174 56h95q63 0 109 22t77 61q32 39 48 91.5t16 113.5t-16 114t-48 92q-31 39 -77 61t-109 22h-95v-577zM272 689q63 0 120.5 -18t101.5 -54q56 -48 87.5 -119.5t31.5 -153.5q0 -81 -31.5 -152.5t-87.5 -119.5q-44 -36 -101.5 -54t-120.5 -18h-185v551q0 34 -2 60.5
t-16 43.5q-7 10 -19.5 17t-24.5 8v9h247z" />
    <glyph glyph-name="E" unicode="E" horiz-adv-x="546" 
d="M494 0h-407v551q0 34 -2 60.5t-16 43.5q-7 10 -19.5 17t-24.5 8v9h460v-58h-311v-247h265v-59h-265v-267h320v-58z" />
    <glyph glyph-name="F" unicode="F" horiz-adv-x="508" 
d="M485 631h-311v-247h265v-59h-265v-325h-87v551q0 34 -2 60.5t-16 43.5q-7 10 -19.5 17t-24.5 8v9h460v-58z" />
    <glyph glyph-name="G" unicode="G" horiz-adv-x="686" 
d="M609 32q-44 -20 -98.5 -35t-109.5 -15q-81 0 -146.5 24.5t-111 70.5t-70.5 112.5t-25 151.5q0 78 22.5 145t65 116t103.5 77t137 28q54 0 105.5 -17.5t95.5 -44.5l-38 -86q-10 14 -28 29.5t-40.5 29t-48.5 22t-53 8.5q-49 0 -90 -21.5t-71 -60.5t-46.5 -94.5
t-16.5 -122.5q0 -71 19 -127.5t53.5 -96t83 -61t107.5 -21.5q29 0 61 7.5t52 19.5v255h88v-293z" />
    <glyph glyph-name="H" unicode="H" horiz-adv-x="658" 
d="M572 0h-87v325h-311v-325h-87v551q0 34 -2 60.5t-16 43.5q-7 10 -19.5 17t-24.5 8v9h149v-305h311v305h87v-689z" />
    <glyph glyph-name="I" unicode="I" horiz-adv-x="275" 
d="M181 0h-87v551q0 34 -2 60.5t-14 43.5q-8 10 -20.5 17t-25.5 8v9h149v-689z" />
    <glyph glyph-name="J" unicode="J" horiz-adv-x="277" 
d="M183 689v-610q0 -51 -12.5 -88.5t-33 -68t-45 -57t-48.5 -54.5l-34 29q18 24 34 48.5t27.5 53.5t18 64.5t6.5 82.5v462q0 34 -2 60.5t-14 43.5q-7 10 -19.5 17t-26.5 8v9h149z" />
    <glyph glyph-name="K" unicode="K" horiz-adv-x="590" 
d="M174 0h-87v551q0 34 -2 60.5t-16 43.5q-7 10 -19.5 17t-24.5 8v9h149v-689zM475 0l-301 356q46 48 93.5 98t88 95.5t69.5 82t38 57.5h117l-306 -317l314 -372h-113z" />
    <glyph glyph-name="L" unicode="L" horiz-adv-x="501" 
d="M494 0h-407v551q0 34 -2 60.5t-16 43.5q-7 10 -19.5 17t-24.5 8v9h149v-631h320v-58z" />
    <glyph glyph-name="M" unicode="M" horiz-adv-x="834" 
d="M694 0l-69 612l-171 -612h-77l-168 612l-69 -612h-90l71 551q9 69 -18 104q-7 10 -19 17t-25 8v9h198l152 -545q3 -10 5 -21t3 -19q1 8 3.5 18.5t5.5 20.5l151 546h125l83 -689h-91z" />
    <glyph glyph-name="N" unicode="N" horiz-adv-x="648" 
d="M562 0h-87l-308 610l4 -610h-84v551q0 34 -2 60.5t-16 43.5q-7 10 -19.5 17t-24.5 8v9h182l258 -515q5 -10 12.5 -26t9.5 -26q-1 17 -1 44t-1 55l-7 468h84v-689z" />
    <glyph glyph-name="O" unicode="O" horiz-adv-x="709" 
d="M660 344q0 -84 -24.5 -151t-66 -114.5t-97 -72.5t-117.5 -25q-63 0 -119 25t-97.5 72.5t-66 114.5t-24.5 151t24.5 151.5t66 114.5t97.5 72t119 25q62 0 117.5 -25t97 -72t66 -114.5t24.5 -151.5zM565 344q0 67 -15 122.5t-42.5 96t-66.5 63t-86 22.5q-48 0 -86.5 -22.5
t-66 -63t-42.5 -96t-15 -122.5q0 -66 15 -122t42.5 -96.5t66 -63t86.5 -22.5q47 0 86 22.5t66.5 63t42.5 96.5t15 122z" />
    <glyph glyph-name="P" unicode="P" horiz-adv-x="570" 
d="M87 0v551q0 34 -2 60.5t-16 43.5q-7 10 -19.5 17t-24.5 8v9h265q48 0 90 -10.5t71 -33.5q70 -52 70 -149q0 -41 -16.5 -76t-47 -61.5t-73 -41.5t-94.5 -15h-116v-302h-87zM276 359q72 0 113.5 34.5t41.5 102.5t-41.5 102.5t-113.5 34.5h-102v-274h102z" />
    <glyph glyph-name="Q" unicode="Q" horiz-adv-x="719" 
d="M637 -193q-38 4 -81.5 11t-85.5 25.5t-78.5 51t-61.5 87.5q-59 5 -110.5 32t-89.5 74t-60 111.5t-22 144.5q0 84 24.5 151.5t66 114.5t97.5 72t119 25q62 0 117.5 -25t97 -72t66 -114.5t24.5 -151.5q0 -71 -17.5 -129.5t-48 -104t-72 -76t-90.5 -43.5q18 -33 45 -57
t56.5 -39.5t59.5 -23.5t56 -10zM565 344q0 67 -15 122.5t-42.5 96t-66.5 63t-86 22.5q-48 0 -86.5 -22.5t-66 -63t-42.5 -96t-15 -122.5q0 -66 15 -122t42.5 -96.5t66 -63t86.5 -22.5q47 0 86 22.5t66.5 63t42.5 96.5t15 122z" />
    <glyph glyph-name="R" unicode="R" horiz-adv-x="589" 
d="M434 505q0 64 -37 96t-98 32h-125v-270h108q42 0 71 12t47 32t26 45.5t8 52.5zM315 689q47 0 85.5 -11t66.5 -33.5t43 -56.5t15 -80q0 -77 -40 -123.5t-106 -64.5l217 -320h-104l-206 306h-112v-306h-87v551q0 34 -2 60.5t-16 43.5q-7 10 -19.5 17t-24.5 8v9h290z" />
    <glyph glyph-name="S" unicode="S" horiz-adv-x="562" 
d="M451 559q-29 35 -72.5 62t-98.5 27q-29 0 -53.5 -8.5t-42.5 -23.5t-28.5 -35.5t-10.5 -45.5q0 -30 14.5 -51.5t38.5 -39t54 -31t61 -26.5q36 -15 72 -32t65 -39.5t47 -52.5t18 -72q0 -49 -20 -88t-53 -66t-76 -41.5t-88 -14.5q-32 0 -64.5 6t-63.5 16t-58.5 23.5
t-49.5 28.5l38 86q17 -18 39.5 -36t48.5 -32t55 -23t59 -9q31 0 57.5 9t45.5 24.5t30 37t11 47.5q0 30 -15 52.5t-40 41t-57 33.5t-66 30q-35 15 -70 33t-63 41t-45.5 52.5t-17.5 69.5q0 46 20.5 82.5t54 61.5t75.5 38t86 13q58 0 109 -19.5t91 -42.5z" />
    <glyph glyph-name="T" unicode="T" horiz-adv-x="543" 
d="M315 629v-629h-87v629h-207v60h501v-60h-207z" />
    <glyph glyph-name="U" unicode="U" horiz-adv-x="669" 
d="M582 254q0 -70 -19 -121.5t-52.5 -85t-78.5 -50t-96 -16.5t-96 15.5t-79 48.5t-54 83.5t-20 120.5v302q0 34 -2.5 60.5t-16.5 43.5q-7 10 -19.5 17t-23.5 8v9h149v-445q0 -53 14 -90t38 -60.5t55 -34.5t66 -11q42 0 73.5 15t52 43t30.5 66.5t10 85.5v431h69v-435z" />
    <glyph glyph-name="V" unicode="V" horiz-adv-x="583" 
d="M326 0h-80l-243 689h92l207 -587q33 93 65 184t58.5 169.5t43.5 139.5t19 94h93z" />
    <glyph glyph-name="W" unicode="W" horiz-adv-x="896" 
d="M672 0h-87l-125 485q-3 10 -5.5 22.5t-3.5 20.5q0 -8 -2 -20t-4 -22l-131 -486h-86l-207 689h91l163 -542q3 -10 6 -24t4 -22q1 8 3.5 21.5t5.5 23.5l133 543h68l141 -543q3 -10 6 -23.5t3 -21.5q1 8 4 22t5 24l92 354q10 38 17 65.5t12.5 49.5t8 39t3.5 34h90z" />
    <glyph glyph-name="X" unicode="X" horiz-adv-x="576" 
d="M332 361l241 -361h-106l-188 280q-27 -35 -56 -76.5t-54.5 -81t-44.5 -72.5t-25 -50h-98l241 337l-233 352h105l183 -273q25 33 54 73t55 78.5t45.5 71t25.5 50.5h100z" />
    <glyph glyph-name="Y" unicode="Y" horiz-adv-x="537" 
d="M312 310v-310h-86v310l-226 379h101l186 -312q21 34 45.5 79t46.5 90t38 83.5t18 59.5h102z" />
    <glyph glyph-name="Z" unicode="Z" horiz-adv-x="534" 
d="M136 58h358v-58h-467v42l354 589h-346l8 58h453v-35z" />
    <glyph glyph-name="bracketleft" unicode="[" horiz-adv-x="383" 
d="M109 -248v1003h187v-50h-102v-902h102v-51h-187z" />
    <glyph glyph-name="backslash" unicode="\" horiz-adv-x="313" 
d="M232 -85l-229 853h59l228 -853h-58z" />
    <glyph glyph-name="bracketright" unicode="]" horiz-adv-x="383" 
d="M89 -248v51h101v902h-101v50h186v-1003h-186z" />
    <glyph glyph-name="asciicircum" unicode="^" horiz-adv-x="411" 
d="M331 484l-126 190l-125 -190h-52l144 272h67l144 -272h-52z" />
    <glyph glyph-name="underscore" unicode="_" horiz-adv-x="470" 
d="M0 -139v58h470v-58h-470z" />
    <glyph glyph-name="grave" unicode="`" 
d="M164 581l-164 169h95l115 -169h-46z" />
    <glyph glyph-name="a" unicode="a" horiz-adv-x="575" 
d="M495 0h-14q-13 8 -24 11.5t-24 3.5q-15 0 -30.5 -5t-33.5 -11.5t-39 -11.5t-48 -5q-60 0 -105 22t-74 59t-43.5 84.5t-14.5 100.5q0 80 30 135t78 91q32 26 70 37.5t78 11.5q35 0 68 -7t53 -15l73 17v-518zM410 440q-18 11 -44.5 19.5t-55.5 8.5q-34 0 -65.5 -13
t-55.5 -39t-38.5 -66.5t-14.5 -94.5q0 -63 18 -109.5t53 -74.5q37 -31 90 -31q19 0 36.5 4.5t32 11t26 13.5t18.5 13v358z" />
    <glyph glyph-name="b" unicode="b" horiz-adv-x="581" 
d="M165 490q31 16 67 25.5t69 9.5q59 0 105 -21.5t76 -65.5q29 -43 40 -92t11 -97q0 -53 -11.5 -95t-37.5 -80q-28 -41 -74 -66t-109 -25q-29 0 -51.5 5t-41.5 11t-35 11t-32 5q-25 0 -47 -15h-13v767h84v-277zM165 79q7 -6 18.5 -12.5t26.5 -12t32 -9t35 -3.5
q39 0 67.5 13.5t48.5 36.5q27 31 38.5 71t11.5 86q0 108 -41 164.5t-115 56.5q-33 0 -64.5 -12t-57.5 -27v-352z" />
    <glyph glyph-name="c" unicode="c" horiz-adv-x="509" 
d="M482 46q-29 -21 -73.5 -41t-114.5 -20q-54 0 -99.5 19t-79 53.5t-52 82.5t-18.5 106q0 61 19 112t52.5 88t79 58t98.5 21q51 0 90.5 -12t77.5 -35l-34 -75q-10 11 -24 23.5t-31.5 22.5t-37.5 16.5t-42 6.5q-29 0 -57 -15t-50 -41.5t-35.5 -63t-13.5 -80.5q0 -55 15 -97.5
t40 -72t58 -44.5t69 -15q28 0 63.5 9.5t76.5 37.5l23 -44v0z" />
    <glyph glyph-name="d" unicode="d" horiz-adv-x="580" 
d="M414 452q-23 9 -46 14t-46 5q-37 0 -71 -13.5t-59.5 -40.5t-40.5 -69t-15 -99q0 -38 10.5 -75t32 -66.5t54.5 -48t78 -18.5q35 0 62 13t41 24v374zM499 0h-14q-13 8 -24 11.5t-22 3.5q-16 0 -32 -5t-34.5 -11t-41 -11t-50.5 -5q-64 0 -110.5 25t-75.5 66q-26 38 -38 80
t-12 94q0 79 30 134.5t78 91.5q33 26 74 38.5t83 12.5q37 0 62 -6t42 -12v260h85v-767z" />
    <glyph glyph-name="e" unicode="e" horiz-adv-x="546" 
d="M134 260q0 -50 14 -90.5t38.5 -68.5t58 -43t72.5 -15q35 0 70 12t69 35l23 -44q-48 -36 -94.5 -49t-94.5 -13q-54 0 -99 20.5t-77.5 57t-50.5 86t-18 106.5q0 58 18.5 107.5t51 86t77 57t96.5 20.5q41 0 79 -14t66.5 -41t45.5 -68t17 -95q0 -8 -0.5 -18t-1.5 -18z
M404 323q1 6 1 11.5v10.5q0 31 -9.5 55t-25 40t-36.5 24.5t-43 8.5q-63 0 -106 -42.5t-49 -117.5z" />
    <glyph glyph-name="f" unicode="f" horiz-adv-x="318" 
d="M350 695q-30 16 -55.5 24.5t-46.5 8.5q-42 0 -62.5 -38.5t-20.5 -126.5v-51h141v-57h-141v-455h-84v549q0 45 5 81.5t22 66.5q28 49 71.5 67.5t93.5 18.5q27 0 54.5 -4.5t49.5 -11.5z" />
    <glyph glyph-name="g" unicode="g" horiz-adv-x="531" 
d="M521 496q-9 -6 -22.5 -12t-28.5 -10.5t-30 -7t-28 -3.5q18 -17 35 -50.5t17 -80.5q0 -39 -15 -74t-42 -61t-64 -41t-82 -15q-26 0 -45 5.5t-29 7.5q-22 -16 -31.5 -30.5t-9.5 -27.5q0 -15 8 -24t23 -14q23 -7 58 -8.5t76 -3.5q38 -2 76 -8.5t68.5 -23t49.5 -44.5t19 -74
q0 -29 -13 -58t-39 -53q-38 -35 -90.5 -51.5t-109.5 -16.5q-59 0 -104 10t-75.5 27.5t-46.5 40.5t-16 50q0 35 27 67.5t78 54.5h13q-36 -53 -36 -96q0 -46 40.5 -74.5t120.5 -28.5q29 0 59 7t54.5 21t40 35t15.5 48t-13 43.5t-34.5 25.5t-50 13t-59.5 5q-46 2 -91.5 5
t-80.5 19q-24 11 -35.5 29t-11.5 38q0 31 19 58.5t63 58.5q-39 29 -64.5 68t-25.5 90q0 40 15 75t42 61t64.5 41t81.5 15q22 0 46 -4.5t44 -15.5q51 4 91 22.5t54 32.5zM379 333q0 28 -8 54t-23 45t-36.5 30.5t-48.5 11.5q-26 0 -47.5 -11.5t-36.5 -30.5t-23 -45t-8 -54
q0 -29 8 -54.5t23 -45t36.5 -30.5t47.5 -11q27 0 48.5 11t36.5 30.5t23 45t8 54.5z" />
    <glyph glyph-name="h" unicode="h" horiz-adv-x="579" 
d="M420 0v286q0 83 -25 126q-17 29 -45 44t-61 15q-36 0 -66.5 -11.5t-57.5 -29.5v-430h-84v767h84v-276q26 12 60.5 23t76.5 11q57 0 100 -22.5t69 -62.5q18 -29 26 -64.5t8 -77.5v-298h-85z" />
    <glyph glyph-name="i" unicode="i" 
d="M174 0h-84v512h84v-512zM188 666q0 -23 -16 -40.5t-41 -17.5q-23 0 -39.5 17.5t-16.5 40.5q0 25 16.5 42.5t39.5 17.5q25 0 41 -17.5t16 -42.5z" />
    <glyph glyph-name="j" unicode="j" 
d="M174 -3q0 -43 -12 -74.5t-30 -57.5t-40 -48.5t-42 -46.5l-36 29q14 21 28 41.5t24.5 44.5t17 54t6.5 70v503h84v-515zM188 666q0 -23 -16 -40.5t-41 -17.5q-23 0 -39.5 17.5t-16.5 40.5q0 25 16.5 42.5t39.5 17.5q25 0 41 -17.5t16 -42.5z" />
    <glyph glyph-name="k" unicode="k" horiz-adv-x="506" 
d="M165 767v-767h-84v767h84zM488 512l-231 -222l259 -290h-112l-239 268l83.5 83.5t63 65t44 51.5t26.5 44h106z" />
    <glyph glyph-name="l" unicode="l" 
d="M174 0h-84v767h84v-767z" />
    <glyph glyph-name="m" unicode="m" horiz-adv-x="857" 
d="M701 0v284q0 42 -5 73.5t-17 52.5q-16 30 -45 45.5t-58 15.5q-32 0 -60 -10.5t-57 -30.5q11 -27 13 -57.5t2 -72.5v-300h-84v329q0 26 -1.5 46.5t-9.5 36.5q-16 29 -41.5 44t-54.5 15q-38 0 -68 -12t-51 -26v-433h-83v512h13q17 -8 29 -11.5t24 -3.5q16 0 31.5 4.5
t33 9.5t38.5 9.5t48 4.5q52 0 84.5 -17t48.5 -32q81 49 162 49q50 0 92.5 -19.5t69.5 -65.5q17 -28 23.5 -63.5t6.5 -77.5v-299h-84z" />
    <glyph glyph-name="n" unicode="n" horiz-adv-x="575" 
d="M416 0v286q0 42 -5.5 73t-19.5 53q-17 29 -45 44t-60 15q-37 0 -66 -11t-55 -27v-433h-84v512h13q17 -8 28.5 -11.5t23.5 -3.5q16 0 31.5 4.5t33 9.5t39 9.5t48.5 4.5q116 0 167 -75q20 -31 28 -67.5t8 -81.5v-301h-85z" />
    <glyph glyph-name="o" unicode="o" horiz-adv-x="588" 
d="M542 253q0 -60 -19.5 -110t-53 -86t-78.5 -56t-96 -20q-52 0 -97.5 20t-79.5 56t-53.5 86t-19.5 110q0 59 19.5 109t53.5 86t79.5 56t97.5 20q51 0 96 -20t78.5 -56t53 -86t19.5 -109zM452 253q0 46 -12 86t-33 69t-50 46t-62 17q-34 0 -63 -17t-50.5 -46t-33.5 -69
t-12 -86q0 -45 12 -85t33 -69.5t50 -46.5t64 -17q33 0 62 17t50 46.5t33 69.5t12 85z" />
    <glyph glyph-name="p" unicode="p" horiz-adv-x="583" 
d="M165 76q22 -15 54 -28t70 -13q74 0 116 56.5t42 164.5q0 44 -11 83t-32 68.5t-52 46.5t-71 17q-19 0 -37 -4.5t-33.5 -10.5t-27 -13t-18.5 -13v-354zM94 512q17 -8 31.5 -11.5t26.5 -3.5q16 0 30.5 4.5t31 9.5t37 9.5t47.5 4.5q54 0 99 -23t74 -61q32 -40 48 -89.5
t16 -102.5q0 -51 -15 -99t-44.5 -85.5t-73.5 -60.5t-103 -23q-35 0 -68 9.5t-66 25.5v-278h-84v774h13z" />
    <glyph glyph-name="q" unicode="q" horiz-adv-x="580" 
d="M499 -262h-85v282q-26 -18 -59.5 -28t-69.5 -10q-51 0 -94.5 18.5t-78.5 52.5q-35 38 -51 89t-16 111q0 56 19.5 105.5t53 86t79.5 57.5t100 21q27 0 49.5 -4t40.5 -9t32.5 -9t24.5 -4q25 0 41 15h14v-774zM414 440q-50 28 -102 28q-34 0 -66 -14t-56.5 -41.5t-39 -68.5
t-14.5 -95q0 -38 10.5 -75t32 -66t54.5 -47.5t78 -18.5q24 0 45 7.5t34 21.5q24 24 24 65v304z" />
    <glyph glyph-name="r" unicode="r" horiz-adv-x="381" 
d="M353 442q-50 21 -88 21q-25 0 -49 -7.5t-51 -22.5v-433h-84v512h13q14 -8 27 -11.5t25 -3.5q15 0 31.5 4.5t35 9.5t40 9.5t46.5 4.5q37 0 83 -13z" />
    <glyph glyph-name="s" unicode="s" horiz-adv-x="483" 
d="M373 403q-26 28 -60.5 48.5t-77.5 20.5q-44 0 -73 -22.5t-29 -56.5q0 -20 10.5 -34.5t28.5 -26t41.5 -21t49.5 -18.5q30 -12 60.5 -25t54.5 -30t39.5 -41t15.5 -57q0 -38 -16.5 -67.5t-44 -49.5t-63 -31t-72.5 -11q-26 0 -53 5t-53 13t-49.5 18.5t-41.5 21.5l35 73
q14 -14 32.5 -27.5t39.5 -25t44 -18.5t46 -7q24 0 44 6.5t34.5 17t23 25t8.5 31.5q0 20 -11.5 35.5t-30.5 28t-43.5 22.5t-50.5 21q-30 12 -59 25.5t-52.5 31.5t-38 41.5t-14.5 55.5q0 35 16.5 62.5t44 47t62.5 29.5t72 10q48 0 90.5 -14.5t75.5 -32.5z" />
    <glyph glyph-name="t" unicode="t" horiz-adv-x="345" 
d="M336 40q-15 -10 -34.5 -19.5t-40.5 -17t-42.5 -12t-40.5 -4.5q-21 0 -40 7t-33 23q-24 29 -24 86v554l84 22v-167h141v-57h-141v-352q0 -29 13 -40.5t36 -11.5q12 0 26 3.5t28.5 8.5t27 10.5t20.5 9.5l20 -43v0z" />
    <glyph glyph-name="u" unicode="u" horiz-adv-x="575" 
d="M494 0h-13q-18 8 -29 11.5t-23 3.5q-17 0 -32.5 -4.5t-33 -10t-38.5 -10t-48 -4.5q-60 0 -101 19.5t-67 56.5q-20 31 -27.5 67.5t-7.5 81.5v301h85v-286q0 -86 24 -126q17 -30 45 -45t61 -15q37 0 66 11t54 28v433h85v-512z" />
    <glyph glyph-name="v" unicode="v" horiz-adv-x="513" 
d="M364 326q15 38 24.5 65.5t15 48.5t8.5 38l6 34h86l-217 -512h-62l-216 512h95l171 -408z" />
    <glyph glyph-name="w" unicode="w" horiz-adv-x="742" 
d="M539 0h-63l-107 372l-107 -372h-63l-180 512h92l136 -392l106 392h62l109 -398l73 212q13 39 21 67t12.5 48.5t6 37t2.5 33.5h85z" />
    <glyph glyph-name="x" unicode="x" horiz-adv-x="483" 
d="M282 280l192 -280h-100l-145 209q-55 -69 -88.5 -122.5t-44.5 -86.5h-86l187 255l-173 257h100l126 -186q50 65 80.5 108.5t41.5 77.5h86z" />
    <glyph glyph-name="y" unicode="y" horiz-adv-x="507" 
d="M285 0q-12 -27 -26 -59t-32 -66t-40.5 -69.5t-49.5 -68.5l-68 49q33 29 57 55.5t42 52.5t31.5 52t25.5 54l-216 512h95l168 -408l88 222q14 36 23 63.5t15 49t9.5 39t5.5 34.5h85z" />
    <glyph glyph-name="z" unicode="z" horiz-adv-x="479" 
d="M145 57h283v-57h-392v45l282 410h-268l13 57h367v-41z" />
    <glyph glyph-name="braceleft" unicode="{" horiz-adv-x="440" 
d="M353 -248h-54q-65 0 -102 34.5t-37 102.5v227q0 58 -20 91.5t-56 37.5l-25 3v10l25 3q36 5 56 38.5t20 91.5v227q0 69 37.5 103t102.5 34h53v-50h-37q-34 0 -52.5 -26t-18.5 -75v-214q0 -69 -19 -101t-74 -35q27 -2 45 -11t28.5 -25.5t15 -41.5t4.5 -59v-216
q0 -48 18.5 -73t52.5 -25h37v-51z" />
    <glyph glyph-name="bar" unicode="|" horiz-adv-x="239" 
d="M90 -265v1043h60v-1043h-60z" />
    <glyph glyph-name="braceright" unicode="}" horiz-adv-x="440" 
d="M381 248l-24 -3q-36 -4 -56.5 -37.5t-20.5 -91.5v-227q0 -68 -36.5 -102.5t-102.5 -34.5h-53v51h35q71 0 71 98v216q0 34 4.5 59t15.5 41.5t29 25.5t46 11q-28 1 -46 9.5t-29 25t-15.5 41.5t-4.5 60v214q0 49 -18 75t-53 26h-35v50h52q66 0 103 -34t37 -103v-227
q0 -58 20.5 -91.5t56.5 -38.5l24 -3v-10z" />
    <glyph glyph-name="asciitilde" unicode="~" horiz-adv-x="545" 
d="M500 280q-35 -29 -71.5 -46t-69.5 -17q-24 0 -47 8.5t-46 19.5q-22 11 -43 20t-40 9q-25 0 -52.5 -13.5t-53.5 -34.5l-31 46q35 31 71 47.5t68 16.5q30 0 54.5 -10t47.5 -21q19 -10 38 -18t36 -8q51 0 107 48z" />
    <glyph glyph-name="exclamdown" unicode="&#xa1;" horiz-adv-x="261" 
d="M178 -215h-96l27 533h43zM187 467q0 -23 -16.5 -41t-40.5 -18t-40.5 18t-16.5 41q0 25 16.5 41.5t40.5 16.5t40.5 -16.5t16.5 -41.5z" />
    <glyph glyph-name="cent" unicode="&#xa2;" horiz-adv-x="488" 
d="M404 436q-5 6 -17.5 16.5t-29 20.5t-36.5 17t-41 7q-24 0 -46.5 -12.5t-40 -34t-27.5 -51.5t-10 -65q0 -36 9.5 -70t28 -60t45 -41.5t60.5 -15.5q22 0 50.5 7.5t60.5 30.5l18 -36q-21 -17 -53.5 -32.5t-83.5 -17.5v-84h-53v87q-37 6 -68 24t-53.5 45.5t-35 63.5t-12.5 79
q0 42 12.5 79t35 66t53.5 49t68 28v87h53v-81q19 0 39.5 -4.5t39.5 -11.5t35 -14.5t27 -14.5z" />
    <glyph glyph-name="sterling" unicode="&#xa3;" horiz-adv-x="540" 
d="M412 592q-12 23 -33.5 41t-51.5 15q-33 -3 -52 -39t-25 -114l-6 -113h184l-1 -48h-184l-4 -104q-2 -42 -21.5 -79t-41.5 -58l4 -5q45 5 83 0t68 -13.5t51 -16t33 -7.5q11 0 20.5 7t18 17t15.5 21.5t12 21.5l36 -19q-14 -35 -27.5 -56.5t-28.5 -33.5t-31 -16.5t-35 -4.5
q-40 0 -101.5 16t-156.5 48l-62 -55l-27 27q19 20 37.5 41.5t33.5 47t25 57t13 73.5l4 91h-102v48h101l6 115q3 57 23.5 96t49.5 63t62 34.5t62 10.5q35 0 67 -19t52 -47z" />
    <glyph glyph-name="yen" unicode="&#xa5;" horiz-adv-x="531" 
d="M335 362h126v-51h-156v-85h156v-51h-156v-175h-84v175h-150v51h150v85h-150v51h121l-185 327h99l174 -309q21 34 44.5 78.5t44 88.5t35 82.5t17.5 59.5h104z" />
    <glyph glyph-name="brokenbar" unicode="&#xa6;" horiz-adv-x="239" 
d="M90 476v302h60v-302h-60zM90 -10v302h60v-302h-60z" />
    <glyph glyph-name="section" unicode="&#xa7;" horiz-adv-x="496" 
d="M350 593q-17 20 -45 37.5t-58 17.5q-21 0 -36 -8t-25 -20.5t-14.5 -28t-4.5 -31.5q0 -17 6 -31.5t20.5 -28t39 -28.5t62.5 -34q33 -17 61.5 -33.5t48.5 -36t31.5 -43t11.5 -54.5q0 -18 -5 -38t-17 -40t-32 -38.5t-50 -33.5q37 -23 55 -56.5t18 -71.5q0 -35 -15 -67.5
t-42.5 -57t-66 -40t-85.5 -15.5q-19 0 -40 2.5t-40.5 6.5t-36.5 9t-29 11l49 84q19 -23 45.5 -39t64.5 -16q22 0 41.5 8t33.5 22t22 33t8 41q0 35 -30.5 64.5t-78.5 55.5q-41 21 -72.5 39.5t-53 38.5t-32.5 44.5t-11 57.5q0 45 29 82.5t75 60.5q-33 24 -53 56t-20 75
q0 27 11.5 55t35 51t59 37.5t82.5 14.5q45 0 77 -10t55 -21zM292 155q41 11 57 36.5t16 49.5q0 36 -21 58t-51 39q-23 13 -44 25t-44 24q-20 -5 -34 -15t-23 -22t-13 -24.5t-4 -24.5q0 -18 6.5 -33t17 -27.5t23 -22t25.5 -16.5q23 -12 44.5 -24t44.5 -23z" />
    <glyph glyph-name="dieresis" unicode="&#xa8;" 
d="M104 644q0 -22 -15 -38t-38 -16q-21 0 -36 16t-15 38q0 23 15 39t36 16q23 0 38 -16t15 -39zM264 644q0 -22 -14.5 -38t-37.5 -16t-37.5 16t-14.5 38q0 23 14.5 39t37.5 16t37.5 -16t14.5 -39z" />
    <glyph glyph-name="copyright" unicode="&#xa9;" horiz-adv-x="823" 
d="M771 344q0 -74 -28.5 -139.5t-77.5 -114t-114.5 -77t-139.5 -28.5t-139 28.5t-114 77t-77 114t-28 139.5t28 139.5t77 114t114 77t139 28.5t139.5 -28.5t114.5 -77t77.5 -114t28.5 -139.5zM705 344q0 62 -23 116.5t-62.5 95t-93.5 63.5t-115 23q-62 0 -115 -23t-93 -63.5
t-62.5 -95t-22.5 -116.5t22.5 -116.5t62.5 -95t93 -63.5t115 -23q61 0 115 23t93.5 63.5t62.5 95t23 116.5zM519 465q-14 17 -43 33t-60 16q-26 0 -48 -12t-38.5 -33.5t-26 -52.5t-9.5 -69q0 -40 11 -71.5t29 -53.5t42 -33.5t51 -11.5q26 0 56 10.5t56 32.5v-56
q-21 -14 -51.5 -21.5t-65.5 -7.5q-41 0 -77 14t-63 40.5t-42.5 65t-15.5 87.5q0 46 14 85t39.5 67.5t61 45t77.5 16.5q31 0 62.5 -7.5t62.5 -26.5z" />
    <glyph glyph-name="ordfeminine" unicode="&#xaa;" horiz-adv-x="486" 
d="M407 330h-9q-12 5 -20.5 8t-19.5 3q-12 0 -24.5 -4t-26.5 -8.5t-31 -8.5t-38 -4q-57 0 -97 24t-63 62q-28 49 -28 111q0 58 23 99t60 67q27 19 57.5 28t61.5 9q25 0 52.5 -6t44.5 -11l58 12v-381zM330 651q-17 9 -36.5 14.5t-38.5 5.5q-24 0 -46 -9.5t-39 -28t-27.5 -47
t-10.5 -67.5q0 -47 12 -81t38 -54q14 -9 30.5 -15t36.5 -6q27 0 48.5 11t32.5 19v258z" />
    <glyph glyph-name="guillemotleft" unicode="&#xab;" horiz-adv-x="562" 
d="M448 72l-200 204l200 205l40 -38l-139 -167l139 -166zM244 72l-199 204l199 205l41 -38l-139 -167l139 -166z" />
    <glyph glyph-name="logicalnot" unicode="&#xac;" horiz-adv-x="545" 
d="M415 175v142h-343v58h401v-200h-58z" />
    <glyph glyph-name="registered" unicode="&#xae;" horiz-adv-x="823" 
d="M771 344q0 -74 -28.5 -139.5t-77.5 -114t-114.5 -77t-139.5 -28.5t-139 28.5t-114 77t-77 114t-28 139.5t28 139.5t77 114t114 77t139 28.5t139.5 -28.5t114.5 -77t77.5 -114t28.5 -139.5zM705 344q0 62 -23 116.5t-62.5 95t-93.5 63.5t-115 23q-62 0 -115 -23t-93 -63.5
t-62.5 -95t-22.5 -116.5t22.5 -116.5t62.5 -95t93 -63.5t115 -23q61 0 115 23t93.5 63.5t62.5 95t23 116.5zM510 145l-108 175h-60v-175h-64v401h148q57 0 92 -26t35 -81q0 -44 -23 -72t-61 -39l116 -183h-75zM404 360q46 0 64.5 24t18.5 53q0 35 -19 52t-54 17h-72v-146h62
z" />
    <glyph glyph-name="macron" unicode="&#xaf;" 
d="M-10 610v58h284v-58h-284z" />
    <glyph glyph-name="degree" unicode="&#xb0;" horiz-adv-x="375" 
d="M331 584q0 -30 -11.5 -56t-31 -45.5t-45.5 -30.5t-56 -11t-56 11t-45.5 30.5t-31 45.5t-11.5 56t11.5 56t31 45.5t45.5 31t56 11.5t56 -11.5t45.5 -31t31 -45.5t11.5 -56zM266 584q0 34 -23 58t-56 24q-16 0 -30.5 -6.5t-25 -17.5t-17 -26t-6.5 -32t6.5 -31.5t17 -26
t25 -18t30.5 -6.5q33 0 56 24.5t23 57.5z" />
    <glyph glyph-name="plusminus" unicode="&#xb1;" horiz-adv-x="545" 
d="M302 295v-171h-59v171h-171v57h171v173h59v-173h171v-57h-171zM72 32v57h401v-57h-401z" />
    <glyph glyph-name="twosuperior" unicode="&#xb2;" horiz-adv-x="401" 
d="M340 277h-282v43l88 79q54 48 85 86.5t31 76.5q0 40 -21 66t-59 26q-28 0 -51.5 -11t-45.5 -29l-27 31q35 27 70 41.5t73 14.5q28 0 52.5 -9t43 -25t29 -38.5t10.5 -50.5q0 -29 -11.5 -54t-29 -46.5t-36.5 -39t-34 -30.5l-90 -76h205v-55z" />
    <glyph glyph-name="threesuperior" unicode="&#xb3;" horiz-adv-x="368" 
d="M287 605q0 -33 -17.5 -54.5t-43.5 -34.5q38 -9 62 -40t24 -73q0 -29 -13.5 -53.5t-36 -42.5t-51.5 -28.5t-60 -10.5q-23 0 -48.5 6.5t-57.5 23.5l25 43q23 -15 46.5 -23.5t46.5 -8.5q31 0 54.5 22.5t23.5 60.5q0 43 -23.5 65.5t-58.5 22.5h-35v44q41 2 67.5 20.5
t26.5 55.5q0 25 -16.5 40t-42.5 15q-21 0 -41.5 -7.5t-44.5 -23.5l-21 31q29 21 58.5 33.5t61.5 12.5q51 0 83 -26.5t32 -69.5z" />
    <glyph glyph-name="acute" unicode="&#xb4;" 
d="M110 581h-46l115 169h95z" />
    <glyph glyph-name="mu" unicode="&#xb5;" horiz-adv-x="601" 
d="M511 0h-13q-18 8 -30 11.5t-23 3.5q-17 0 -32 -4.5t-32.5 -10t-38.5 -10t-48 -4.5q-73 0 -120 29v-276h-83v773h83v-286q0 -85 25 -126q18 -30 45.5 -45t61.5 -15q37 0 65.5 11t54.5 28v433h85v-512z" />
    <glyph glyph-name="paragraph" unicode="&#xb6;" horiz-adv-x="572" 
d="M514 680q-12 -1 -24.5 -8t-19.5 -17q-14 -17 -16 -43.5t-2 -60.5v-523q0 -59 -14.5 -100t-45.5 -70q-23 -23 -59.5 -34t-81.5 -11q-15 0 -39.5 2.5t-51.5 9.5l-3 93q32 -20 65.5 -33t59.5 -13q13 0 30 5.5t32 18.5t25 33.5t10 50.5v226q-9 -1 -24 -2t-25 -1
q-54 0 -105 16t-90.5 46.5t-64 75.5t-24.5 103q0 60 21.5 106t57.5 77t83.5 46.5t98.5 15.5h207v-9zM379 635q-60 3 -104 -9t-73.5 -36t-44 -58.5t-14.5 -75.5q0 -52 19.5 -91t52 -64t75 -36t89.5 -6v376z" />
    <glyph glyph-name="periodcentered" unicode="&#xb7;" horiz-adv-x="237" 
d="M175 276q0 -25 -16 -42t-41 -17q-23 0 -39.5 17t-16.5 42q0 24 16.5 41.5t39.5 17.5q25 0 41 -17.5t16 -41.5z" />
    <glyph glyph-name="cedilla" unicode="&#xb8;" 
d="M146 -57q42 -8 61.5 -36.5t19.5 -58.5q0 -50 -34 -80.5t-88 -30.5q-35 0 -54.5 5t-31.5 10v59q15 -13 37 -20.5t43 -7.5q27 0 42 15.5t15 38.5t-19.5 43t-61.5 22l59 102h47z" />
    <glyph glyph-name="onesuperior" unicode="&#xb9;" horiz-adv-x="303" 
d="M123 280l2 358l-88 -39v45l160 65l-2 -429h-72z" />
    <glyph glyph-name="ordmasculine" unicode="&#xba;" horiz-adv-x="467" 
d="M418 517q0 -44 -14 -81t-39 -63.5t-58 -41.5t-72 -15q-40 0 -74 15t-58.5 41.5t-38.5 63.5t-14 81q0 43 14 79.5t38.5 63t58.5 41.5t74 15q39 0 72 -15t58 -41.5t39 -63t14 -79.5zM335 517q0 71 -28 112.5t-72 41.5q-46 0 -74.5 -41.5t-28.5 -112.5q0 -72 28.5 -114
t74.5 -42q44 0 72 42t28 114z" />
    <glyph glyph-name="guillemotright" unicode="&#xbb;" horiz-adv-x="562" 
d="M114 72l-40 38l140 166l-140 167l40 38l200 -205zM317 72l-40 38l140 166l-140 167l40 38l201 -205z" />
    <glyph glyph-name="onequarter" unicode="&#xbc;" horiz-adv-x="811" 
d="M123 280l2 358l-88 -39v45l160 65l-2 -429h-72zM699 115v-115h-70v115h-218v45l225 265h63v-255h61v-55h-61zM629 345l-150 -175h150v175zM211 -10h-63l391 708h62z" />
    <glyph glyph-name="onehalf" unicode="&#xbd;" horiz-adv-x="820" 
d="M123 280l2 358l-88 -39v45l160 65l-2 -429h-72zM191 -10h-63l391 708h62zM760 0h-281v43l88 79q54 48 85 87t31 76q0 41 -21 67t-59 26q-28 0 -52 -11t-45 -29l-27 30q35 27 69.5 42t73.5 15q28 0 52.5 -9t43 -25.5t29 -39t10.5 -50.5q0 -29 -11.5 -54t-29 -46.5
t-36.5 -39t-34 -29.5l-90 -77h204v-55z" />
    <glyph glyph-name="threequarters" unicode="&#xbe;" horiz-adv-x="796" 
d="M299 605q0 -33 -18 -54.5t-46 -34.5q40 -9 65 -40t25 -73q0 -29 -14 -53.5t-37.5 -42.5t-54 -28.5t-63.5 -10.5q-23 0 -50.5 6.5t-60.5 23.5l26 43q24 -15 48 -23.5t50 -8.5q16 0 31 6t26 17t18 26t7 34q0 43 -24.5 65.5t-61.5 22.5h-37v44q43 2 71 20.5t28 55.5
q0 25 -18 40t-44 15q-23 0 -44.5 -7.5t-47.5 -23.5l-21 31q31 21 62 33.5t63 12.5q55 0 88.5 -26.5t33.5 -69.5zM256 -10h-62l391 708h62zM713 115v-115h-71v115h-217v45l225 265h63v-255h61v-55h-61zM642 345l-150 -175h150v175z" />
    <glyph glyph-name="questiondown" unicode="&#xbf;" horiz-adv-x="437" 
d="M414 -163q-35 -28 -80.5 -51t-105.5 -23q-30 0 -62.5 11.5t-59.5 35t-44 57.5t-17 79q0 42 16.5 78t41.5 67t53 58t51 50l8 119h42l5 -176q-10 -9 -21 -19q-9 -8 -20.5 -19t-22.5 -22q-10 -12 -21 -25.5t-20.5 -30t-15.5 -36.5t-6 -44q0 -63 32 -95t77 -32q21 0 41 9
t36.5 21.5t29 26.5t19.5 24zM294 467q0 -23 -16.5 -41t-40.5 -18t-41 18t-17 41q0 25 17 41.5t41 16.5t40.5 -16.5t16.5 -41.5z" />
    <glyph glyph-name="Agrave" unicode="&#xc0;" horiz-adv-x="584" 
d="M284 597l-99 -308h201zM484 0l-78 231h-238l-74 -231h-91l202 547q23 59 21 92t-44 41v9h155l244 -689h-97zM307 751l-164 169h95l115 -169h-46z" />
    <glyph glyph-name="Aacute" unicode="&#xc1;" horiz-adv-x="584" 
d="M284 597l-99 -308h201zM484 0l-78 231h-238l-74 -231h-91l202 547q23 59 21 92t-44 41v9h155l244 -689h-97zM273 751h-46l115 169h95z" />
    <glyph glyph-name="Acircumflex" unicode="&#xc2;" horiz-adv-x="584" 
d="M284 597l-99 -308h201zM484 0l-78 231h-238l-74 -231h-91l202 547q23 59 21 92t-44 41v9h155l244 -689h-97zM368 751l-83 95l-84 -95h-46l106 169h48l105 -169h-46z" />
    <glyph glyph-name="Atilde" unicode="&#xc3;" horiz-adv-x="584" 
d="M284 597l-99 -308h201zM484 0l-78 231h-238l-74 -231h-91l202 547q23 59 21 92t-44 41v9h155l244 -689h-97zM439 859q-22 -49 -48 -69t-54 -20q-19 0 -33.5 5.5t-33.5 18.5q-32 21 -54 21q-29 0 -51 -39l-34 10q21 49 47 69t55 20q20 0 35.5 -7.5t34.5 -18.5
q14 -8 27.5 -13.5t24.5 -5.5q14 0 27 8t24 31z" />
    <glyph glyph-name="Adieresis" unicode="&#xc4;" horiz-adv-x="584" 
d="M284 597l-99 -308h201zM484 0l-78 231h-238l-74 -231h-91l202 547q23 59 21 92t-44 41v9h155l244 -689h-97zM257 814q0 -22 -15 -38t-38 -16q-21 0 -36 16t-15 38q0 23 15 39t36 16q23 0 38 -16t15 -39zM417 814q0 -22 -14.5 -38t-37.5 -16t-37.5 16t-14.5 38
q0 23 14.5 39t37.5 16t37.5 -16t14.5 -39z" />
    <glyph glyph-name="Aring" unicode="&#xc5;" horiz-adv-x="584" 
d="M284 597l-99 -308h201zM484 0l-78 231h-238l-74 -231h-91l202 547q23 59 21 92t-44 41v9h155l244 -689h-97zM184 818q0 21 8 39.5t21.5 32t32 21.5t39.5 8t39.5 -8t32 -21.5t21.5 -32t8 -39.5t-8 -39.5t-21.5 -32t-32 -21.5t-39.5 -8t-39.5 8t-32 21.5t-21.5 32t-8 39.5z
M237 818q0 -20 14 -34t34 -14t34 14t14 34t-14 34t-34 14t-34 -14t-14 -34z" />
    <glyph glyph-name="AE" unicode="&#xc6;" horiz-adv-x="880" 
d="M828 0h-407v266h-219l-139 -266h-96l338 593q20 38 9 60.5t-39 27.5v8h544v-58h-311v-247h265v-59h-265v-267h320v-58zM421 631h-29l-158 -306h187v306z" />
    <glyph glyph-name="Ccedilla" unicode="&#xc7;" horiz-adv-x="620" 
d="M570 30q-35 -22 -85.5 -35t-109.5 -13h-4l-22 -39q42 -8 61.5 -36.5t19.5 -58.5q0 -50 -34 -80.5t-88 -30.5q-35 0 -54.5 5t-31.5 10v59q15 -13 37 -20.5t43 -7.5q27 0 42 15.5t15 38.5t-19.5 43t-61.5 22l48 84q-60 8 -110.5 35.5t-88 73t-58.5 107.5t-21 140t22.5 145
t65 115.5t103.5 76.5t137 28q54 0 105.5 -17.5t95.5 -44.5l-38 -86q-10 14 -28 29.5t-40.5 29t-48 22t-50.5 8.5q-48 0 -89.5 -21.5t-72 -60.5t-48 -94.5t-17.5 -122.5q0 -71 20 -127.5t53 -96.5t76 -61t90 -21q46 0 95 17t91 52v-82z" />
    <glyph glyph-name="Egrave" unicode="&#xc8;" horiz-adv-x="546" 
d="M494 0h-407v551q0 34 -2 60.5t-16 43.5q-7 10 -19.5 17t-24.5 8v9h460v-58h-311v-247h265v-59h-265v-267h320v-58zM295 751l-164 169h95l115 -169h-46z" />
    <glyph glyph-name="Eacute" unicode="&#xc9;" horiz-adv-x="546" 
d="M494 0h-407v551q0 34 -2 60.5t-16 43.5q-7 10 -19.5 17t-24.5 8v9h460v-58h-311v-247h265v-59h-265v-267h320v-58zM260 751h-46l115 169h95z" />
    <glyph glyph-name="Ecircumflex" unicode="&#xca;" horiz-adv-x="546" 
d="M494 0h-407v551q0 34 -2 60.5t-16 43.5q-7 10 -19.5 17t-24.5 8v9h460v-58h-311v-247h265v-59h-265v-267h320v-58zM364 751l-83 95l-84 -95h-46l106 169h48l105 -169h-46z" />
    <glyph glyph-name="Edieresis" unicode="&#xcb;" horiz-adv-x="546" 
d="M494 0h-407v551q0 34 -2 60.5t-16 43.5q-7 10 -19.5 17t-24.5 8v9h460v-58h-311v-247h265v-59h-265v-267h320v-58zM256 814q0 -22 -15 -38t-38 -16q-21 0 -36 16t-15 38q0 23 15 39t36 16q23 0 38 -16t15 -39zM416 814q0 -22 -14.5 -38t-37.5 -16t-37.5 16t-14.5 38
q0 23 14.5 39t37.5 16t37.5 -16t14.5 -39z" />
    <glyph glyph-name="Igrave" unicode="&#xcc;" horiz-adv-x="275" 
d="M181 0h-87v551q0 34 -2 60.5t-14 43.5q-8 10 -20.5 17t-25.5 8v9h149v-689zM168 751l-164 169h95l115 -169h-46z" />
    <glyph glyph-name="Iacute" unicode="&#xcd;" horiz-adv-x="275" 
d="M181 0h-87v551q0 34 -2 60.5t-14 43.5q-8 10 -20.5 17t-25.5 8v9h149v-689zM120 751h-46l115 169h95z" />
    <glyph glyph-name="Icircumflex" unicode="&#xce;" horiz-adv-x="275" 
d="M181 0h-87v551q0 34 -2 60.5t-14 43.5q-8 10 -20.5 17t-25.5 8v9h149v-689zM232 751l-83 95l-84 -95h-46l106 169h48l105 -169h-46z" />
    <glyph glyph-name="Idieresis" unicode="&#xcf;" horiz-adv-x="275" 
d="M181 0h-87v551q0 34 -2 60.5t-14 43.5q-8 10 -20.5 17t-25.5 8v9h149v-689zM123 814q0 -22 -15 -38t-38 -16q-21 0 -36 16t-15 38q0 23 15 39t36 16q23 0 38 -16t15 -39zM283 814q0 -22 -14.5 -38t-37.5 -16t-37.5 16t-14.5 38q0 23 14.5 39t37.5 16t37.5 -16t14.5 -39z
" />
    <glyph glyph-name="Eth" unicode="&#xd0;" horiz-adv-x="672" 
d="M282 689q63 0 120.5 -18t101.5 -54q56 -48 87.5 -119.5t31.5 -153.5q0 -81 -31.5 -152.5t-87.5 -119.5q-44 -36 -101.5 -54t-120.5 -18h-185v327h-72v56h72v168q0 34 -2 60.5t-16 43.5q-7 10 -19.5 17t-24.5 8v9h247zM184 327v-271h98q63 0 108 22t76 61q32 39 47.5 91.5
t15.5 113.5t-15.5 114t-47.5 92q-31 39 -76 61t-108 22h-98v-250h201v-56h-201z" />
    <glyph glyph-name="Ntilde" unicode="&#xd1;" horiz-adv-x="648" 
d="M562 0h-87l-308 610l4 -610h-84v551q0 34 -2 60.5t-16 43.5q-7 10 -19.5 17t-24.5 8v9h182l258 -515q5 -10 12.5 -26t9.5 -26q-1 17 -1 44t-1 55l-7 468h84v-689zM479 859q-22 -49 -48 -69t-54 -20q-19 0 -33.5 5.5t-33.5 18.5q-32 21 -54 21q-29 0 -51 -39l-34 10
q21 49 47 69t55 20q20 0 35.5 -7.5t34.5 -18.5q14 -8 27.5 -13.5t24.5 -5.5q14 0 27 8t24 31z" />
    <glyph glyph-name="Ograve" unicode="&#xd2;" horiz-adv-x="709" 
d="M660 344q0 -84 -24.5 -151t-66 -114.5t-97 -72.5t-117.5 -25q-63 0 -119 25t-97.5 72.5t-66 114.5t-24.5 151t24.5 151.5t66 114.5t97.5 72t119 25q62 0 117.5 -25t97 -72t66 -114.5t24.5 -151.5zM565 344q0 67 -15 122.5t-42.5 96t-66.5 63t-86 22.5q-48 0 -86.5 -22.5
t-66 -63t-42.5 -96t-15 -122.5q0 -66 15 -122t42.5 -96.5t66 -63t86.5 -22.5q47 0 86 22.5t66.5 63t42.5 96.5t15 122zM387 751l-164 169h95l115 -169h-46z" />
    <glyph glyph-name="Oacute" unicode="&#xd3;" horiz-adv-x="709" 
d="M660 344q0 -84 -24.5 -151t-66 -114.5t-97 -72.5t-117.5 -25q-63 0 -119 25t-97.5 72.5t-66 114.5t-24.5 151t24.5 151.5t66 114.5t97.5 72t119 25q62 0 117.5 -25t97 -72t66 -114.5t24.5 -151.5zM565 344q0 67 -15 122.5t-42.5 96t-66.5 63t-86 22.5q-48 0 -86.5 -22.5
t-66 -63t-42.5 -96t-15 -122.5q0 -66 15 -122t42.5 -96.5t66 -63t86.5 -22.5q47 0 86 22.5t66.5 63t42.5 96.5t15 122zM339 751h-46l115 169h95z" />
    <glyph glyph-name="Ocircumflex" unicode="&#xd4;" horiz-adv-x="709" 
d="M660 344q0 -84 -24.5 -151t-66 -114.5t-97 -72.5t-117.5 -25q-63 0 -119 25t-97.5 72.5t-66 114.5t-24.5 151t24.5 151.5t66 114.5t97.5 72t119 25q62 0 117.5 -25t97 -72t66 -114.5t24.5 -151.5zM565 344q0 67 -15 122.5t-42.5 96t-66.5 63t-86 22.5q-48 0 -86.5 -22.5
t-66 -63t-42.5 -96t-15 -122.5q0 -66 15 -122t42.5 -96.5t66 -63t86.5 -22.5q47 0 86 22.5t66.5 63t42.5 96.5t15 122zM439 751l-83 95l-84 -95h-46l106 169h48l105 -169h-46z" />
    <glyph glyph-name="Otilde" unicode="&#xd5;" horiz-adv-x="709" 
d="M660 344q0 -84 -24.5 -151t-66 -114.5t-97 -72.5t-117.5 -25q-63 0 -119 25t-97.5 72.5t-66 114.5t-24.5 151t24.5 151.5t66 114.5t97.5 72t119 25q62 0 117.5 -25t97 -72t66 -114.5t24.5 -151.5zM565 344q0 67 -15 122.5t-42.5 96t-66.5 63t-86 22.5q-48 0 -86.5 -22.5
t-66 -63t-42.5 -96t-15 -122.5q0 -66 15 -122t42.5 -96.5t66 -63t86.5 -22.5q47 0 86 22.5t66.5 63t42.5 96.5t15 122zM525 859q-22 -49 -48 -69t-54 -20q-19 0 -33.5 5.5t-33.5 18.5q-32 21 -54 21q-29 0 -51 -39l-34 10q21 49 47 69t55 20q20 0 35.5 -7.5t34.5 -18.5
q14 -8 27.5 -13.5t24.5 -5.5q14 0 27 8t24 31z" />
    <glyph glyph-name="Odieresis" unicode="&#xd6;" horiz-adv-x="709" 
d="M660 344q0 -84 -24.5 -151t-66 -114.5t-97 -72.5t-117.5 -25q-63 0 -119 25t-97.5 72.5t-66 114.5t-24.5 151t24.5 151.5t66 114.5t97.5 72t119 25q62 0 117.5 -25t97 -72t66 -114.5t24.5 -151.5zM565 344q0 67 -15 122.5t-42.5 96t-66.5 63t-86 22.5q-48 0 -86.5 -22.5
t-66 -63t-42.5 -96t-15 -122.5q0 -66 15 -122t42.5 -96.5t66 -63t86.5 -22.5q47 0 86 22.5t66.5 63t42.5 96.5t15 122zM327 814q0 -22 -15 -38t-38 -16q-21 0 -36 16t-15 38q0 23 15 39t36 16q23 0 38 -16t15 -39zM487 814q0 -22 -14.5 -38t-37.5 -16t-37.5 16t-14.5 38
q0 23 14.5 39t37.5 16t37.5 -16t14.5 -39z" />
    <glyph glyph-name="multiply" unicode="&#xd7;" horiz-adv-x="545" 
d="M403 92l-130 143l-131 -143l-38 41l131 142l-131 143l38 41l131 -142l130 142l37 -41l-130 -143l130 -142z" />
    <glyph glyph-name="Oslash" unicode="&#xd8;" horiz-adv-x="709" 
d="M574 605q40 -48 63 -113.5t23 -147.5q0 -84 -24.5 -151t-66 -114.5t-97 -72.5t-117.5 -25q-104 0 -184 65l-64 -89h-65l91 127q-39 48 -62 113t-23 147q0 84 24.5 151.5t66 114.5t97.5 72t119 25q51 0 96.5 -16.5t83.5 -47.5l61 84h66zM216 108q26 -32 61.5 -50t77.5 -18
q47 0 86 22.5t66.5 63t42.5 96.5t15 122q0 56 -11 104.5t-31 86.5zM492 582q-27 32 -61.5 49t-75.5 17q-48 0 -86.5 -22.5t-66 -63t-42.5 -96t-15 -122.5q0 -111 40 -188z" />
    <glyph glyph-name="Ugrave" unicode="&#xd9;" horiz-adv-x="669" 
d="M582 254q0 -70 -19 -121.5t-52.5 -85t-78.5 -50t-96 -16.5t-96 15.5t-79 48.5t-54 83.5t-20 120.5v302q0 34 -2.5 60.5t-16.5 43.5q-7 10 -19.5 17t-23.5 8v9h149v-445q0 -53 14 -90t38 -60.5t55 -34.5t66 -11q42 0 73.5 15t52 43t30.5 66.5t10 85.5v431h69v-435z
M363 751l-164 169h95l115 -169h-46z" />
    <glyph glyph-name="Uacute" unicode="&#xda;" horiz-adv-x="669" 
d="M582 254q0 -70 -19 -121.5t-52.5 -85t-78.5 -50t-96 -16.5t-96 15.5t-79 48.5t-54 83.5t-20 120.5v302q0 34 -2.5 60.5t-16.5 43.5q-7 10 -19.5 17t-23.5 8v9h149v-445q0 -53 14 -90t38 -60.5t55 -34.5t66 -11q42 0 73.5 15t52 43t30.5 66.5t10 85.5v431h69v-435z
M331 751h-46l115 169h95z" />
    <glyph glyph-name="Ucircumflex" unicode="&#xdb;" horiz-adv-x="669" 
d="M582 254q0 -70 -19 -121.5t-52.5 -85t-78.5 -50t-96 -16.5t-96 15.5t-79 48.5t-54 83.5t-20 120.5v302q0 34 -2.5 60.5t-16.5 43.5q-7 10 -19.5 17t-23.5 8v9h149v-445q0 -53 14 -90t38 -60.5t55 -34.5t66 -11q42 0 73.5 15t52 43t30.5 66.5t10 85.5v431h69v-435z
M422 751l-83 95l-84 -95h-46l106 169h48l105 -169h-46z" />
    <glyph glyph-name="Udieresis" unicode="&#xdc;" horiz-adv-x="669" 
d="M582 254q0 -70 -19 -121.5t-52.5 -85t-78.5 -50t-96 -16.5t-96 15.5t-79 48.5t-54 83.5t-20 120.5v302q0 34 -2.5 60.5t-16.5 43.5q-7 10 -19.5 17t-23.5 8v9h149v-445q0 -53 14 -90t38 -60.5t55 -34.5t66 -11q42 0 73.5 15t52 43t30.5 66.5t10 85.5v431h69v-435z
M311 814q0 -22 -15 -38t-38 -16q-21 0 -36 16t-15 38q0 23 15 39t36 16q23 0 38 -16t15 -39zM471 814q0 -22 -14.5 -38t-37.5 -16t-37.5 16t-14.5 38q0 23 14.5 39t37.5 16t37.5 -16t14.5 -39z" />
    <glyph glyph-name="Yacute" unicode="&#xdd;" horiz-adv-x="537" 
d="M312 310v-310h-86v310l-226 379h101l186 -312q21 34 45.5 79t46.5 90t38 83.5t18 59.5h102zM265 732h-46l115 169h95z" />
    <glyph glyph-name="Thorn" unicode="&#xde;" horiz-adv-x="570" 
d="M174 555h116q48 0 90 -10.5t71 -33.5q70 -55 70 -149q0 -41 -16.5 -76t-47 -61.5t-73 -41.5t-94.5 -15h-116v-168h-87v689h87v-134zM276 225q72 0 113.5 34.5t41.5 102.5t-41.5 102.5t-113.5 34.5h-102v-274h102z" />
    <glyph glyph-name="germandbls" unicode="&#xdf;" horiz-adv-x="570" 
d="M269 104q26 -28 51.5 -46t60.5 -18q36 0 59 19t23 54q0 32 -17.5 52.5t-43.5 35t-56 27t-56 30t-43.5 44t-17.5 68.5q0 24 8.5 43t22.5 35.5t31 31t35 28.5q33 26 54.5 52.5t21.5 63.5q0 15 -6.5 31t-20 29.5t-34.5 22.5t-50 9q-63 0 -95 -48.5t-32 -150.5v-517h-83v517
q0 52 10 95.5t33 75.5q29 38 72.5 60t99.5 22q40 0 74.5 -10t59.5 -29t39.5 -45t14.5 -59q0 -29 -10 -51t-25.5 -39.5t-34.5 -31.5t-38 -27q-29 -20 -50.5 -42t-21.5 -54q0 -26 17 -42t42.5 -29t55.5 -26t55.5 -32t42.5 -47.5t17 -72.5q0 -32 -12 -59t-32.5 -46.5t-48.5 -30
t-60 -10.5q-54 0 -92.5 15.5t-67.5 38.5l48 63v0z" />
    <glyph glyph-name="agrave" unicode="&#xe0;" horiz-adv-x="575" 
d="M495 0h-14q-13 8 -24 11.5t-24 3.5q-15 0 -30.5 -5t-33.5 -11.5t-39 -11.5t-48 -5q-60 0 -105 22t-74 59t-43.5 84.5t-14.5 100.5q0 80 30 135t78 91q32 26 70 37.5t78 11.5q35 0 68 -7t53 -15l73 17v-518zM410 440q-18 11 -44.5 19.5t-55.5 8.5q-34 0 -65.5 -13
t-55.5 -39t-38.5 -66.5t-14.5 -94.5q0 -63 18 -109.5t53 -74.5q37 -31 90 -31q19 0 36.5 4.5t32 11t26 13.5t18.5 13v358zM324 581l-164 169h95l115 -169h-46z" />
    <glyph glyph-name="aacute" unicode="&#xe1;" horiz-adv-x="575" 
d="M495 0h-14q-13 8 -24 11.5t-24 3.5q-15 0 -30.5 -5t-33.5 -11.5t-39 -11.5t-48 -5q-60 0 -105 22t-74 59t-43.5 84.5t-14.5 100.5q0 80 30 135t78 91q32 26 70 37.5t78 11.5q35 0 68 -7t53 -15l73 17v-518zM410 440q-18 11 -44.5 19.5t-55.5 8.5q-34 0 -65.5 -13
t-55.5 -39t-38.5 -66.5t-14.5 -94.5q0 -63 18 -109.5t53 -74.5q37 -31 90 -31q19 0 36.5 4.5t32 11t26 13.5t18.5 13v358zM284 581h-46l115 169h95z" />
    <glyph glyph-name="acircumflex" unicode="&#xe2;" horiz-adv-x="575" 
d="M495 0h-14q-13 8 -24 11.5t-24 3.5q-15 0 -30.5 -5t-33.5 -11.5t-39 -11.5t-48 -5q-60 0 -105 22t-74 59t-43.5 84.5t-14.5 100.5q0 80 30 135t78 91q32 26 70 37.5t78 11.5q35 0 68 -7t53 -15l73 17v-518zM410 440q-18 11 -44.5 19.5t-55.5 8.5q-34 0 -65.5 -13
t-55.5 -39t-38.5 -66.5t-14.5 -94.5q0 -63 18 -109.5t53 -74.5q37 -31 90 -31q19 0 36.5 4.5t32 11t26 13.5t18.5 13v358zM379 581l-83 95l-84 -95h-46l106 169h48l105 -169h-46z" />
    <glyph glyph-name="atilde" unicode="&#xe3;" horiz-adv-x="575" 
d="M495 0h-14q-13 8 -24 11.5t-24 3.5q-15 0 -30.5 -5t-33.5 -11.5t-39 -11.5t-48 -5q-60 0 -105 22t-74 59t-43.5 84.5t-14.5 100.5q0 80 30 135t78 91q32 26 70 37.5t78 11.5q35 0 68 -7t53 -15l73 17v-518zM410 440q-18 11 -44.5 19.5t-55.5 8.5q-34 0 -65.5 -13
t-55.5 -39t-38.5 -66.5t-14.5 -94.5q0 -63 18 -109.5t53 -74.5q37 -31 90 -31q19 0 36.5 4.5t32 11t26 13.5t18.5 13v358zM464 689q-22 -49 -48 -69t-54 -20q-19 0 -33.5 5.5t-33.5 18.5q-32 21 -54 21q-29 0 -51 -39l-34 10q21 49 47 69t55 20q20 0 35.5 -7.5t34.5 -18.5
q14 -8 27.5 -13.5t24.5 -5.5q14 0 27 8t24 31z" />
    <glyph glyph-name="adieresis" unicode="&#xe4;" horiz-adv-x="575" 
d="M495 0h-14q-13 8 -24 11.5t-24 3.5q-15 0 -30.5 -5t-33.5 -11.5t-39 -11.5t-48 -5q-60 0 -105 22t-74 59t-43.5 84.5t-14.5 100.5q0 80 30 135t78 91q32 26 70 37.5t78 11.5q35 0 68 -7t53 -15l73 17v-518zM410 440q-18 11 -44.5 19.5t-55.5 8.5q-34 0 -65.5 -13
t-55.5 -39t-38.5 -66.5t-14.5 -94.5q0 -63 18 -109.5t53 -74.5q37 -31 90 -31q19 0 36.5 4.5t32 11t26 13.5t18.5 13v358zM272 644q0 -22 -15 -38t-38 -16q-21 0 -36 16t-15 38q0 23 15 39t36 16q23 0 38 -16t15 -39zM432 644q0 -22 -14.5 -38t-37.5 -16t-37.5 16t-14.5 38
q0 23 14.5 39t37.5 16t37.5 -16t14.5 -39z" />
    <glyph glyph-name="aring" unicode="&#xe5;" horiz-adv-x="575" 
d="M495 0h-14q-13 8 -24 11.5t-24 3.5q-15 0 -30.5 -5t-33.5 -11.5t-39 -11.5t-48 -5q-60 0 -105 22t-74 59t-43.5 84.5t-14.5 100.5q0 80 30 135t78 91q32 26 70 37.5t78 11.5q35 0 68 -7t53 -15l73 17v-518zM410 440q-18 11 -44.5 19.5t-55.5 8.5q-34 0 -65.5 -13
t-55.5 -39t-38.5 -66.5t-14.5 -94.5q0 -63 18 -109.5t53 -74.5q37 -31 90 -31q19 0 36.5 4.5t32 11t26 13.5t18.5 13v358zM197 682q0 21 8 39.5t21.5 32t32 21.5t39.5 8t39.5 -8t32 -21.5t21.5 -32t8 -39.5t-8 -39.5t-21.5 -32t-32 -21.5t-39.5 -8t-39.5 8t-32 21.5
t-21.5 32t-8 39.5zM250 682q0 -20 14 -34t34 -14t34 14t14 34t-14 34t-34 14t-34 -14t-14 -34z" />
    <glyph glyph-name="ae" unicode="&#xe6;" horiz-adv-x="900" 
d="M833 46q-17 -14 -39 -26t-45.5 -20.5t-48 -13.5t-46.5 -5q-56 0 -96 18t-65 38l4 -56l-78 31q-29 -11 -62.5 -19t-76.5 -8q-47 0 -90 17.5t-76 50.5q-32 35 -50.5 85.5t-18.5 116.5q0 60 19.5 109t53 84t78 54t93.5 19q46 0 79 -10t51 -17l78 31l-4 -54q11 9 25 18.5
t32 17.5t41 13t52 5q41 0 78.5 -14t66 -41t45.5 -68t17 -95q0 -8 -0.5 -18t-0.5 -18l-360 -11q0 -56 9.5 -92t32.5 -64q25 -31 62 -46t79 -15q35 0 70 12t68 35zM759 323q1 6 1 11.5v10.5q0 31 -9.5 55t-26 40t-37.5 24.5t-43 8.5q-63 0 -106 -42.5t-49 -117.5zM414 422
q-30 23 -58 32t-56 9q-37 0 -69 -15.5t-55 -48.5q-18 -28 -29 -64t-11 -80q0 -45 11 -82t29 -66q23 -32 55 -48t69 -16q28 0 56.5 9t57.5 33v337z" />
    <glyph glyph-name="ccedilla" unicode="&#xe7;" horiz-adv-x="509" 
d="M482 46q-29 -21 -73.5 -41t-114.5 -20l-24 -42q42 -8 61.5 -36.5t19.5 -58.5q0 -50 -34 -80.5t-88 -30.5q-35 0 -54.5 5t-31.5 10v59q15 -13 37 -20.5t43 -7.5q27 0 42 15.5t15 38.5t-19.5 43t-61.5 22l50 87q-45 7 -82.5 28.5t-64.5 55t-42 77.5t-15 96q0 61 19 112
t52.5 88t79 58t98.5 21q51 0 90.5 -12t77.5 -35l-34 -75q-10 11 -24 23.5t-31.5 22.5t-37.5 16.5t-42 6.5q-29 0 -57 -15t-50 -41.5t-35.5 -63t-13.5 -80.5q0 -55 15 -97.5t40 -72t58 -44.5t69 -15q28 0 63.5 9.5t76.5 37.5l23 -44v0z" />
    <glyph glyph-name="egrave" unicode="&#xe8;" horiz-adv-x="546" 
d="M134 260q0 -50 14 -90.5t38.5 -68.5t58 -43t72.5 -15q35 0 70 12t69 35l23 -44q-48 -36 -94.5 -49t-94.5 -13q-54 0 -99 20.5t-77.5 57t-50.5 86t-18 106.5q0 58 18.5 107.5t51 86t77 57t96.5 20.5q41 0 79 -14t66.5 -41t45.5 -68t17 -95q0 -8 -0.5 -18t-1.5 -18z
M404 323q1 6 1 11.5v10.5q0 31 -9.5 55t-25 40t-36.5 24.5t-43 8.5q-63 0 -106 -42.5t-49 -117.5zM326 581l-164 169h95l115 -169h-46z" />
    <glyph glyph-name="eacute" unicode="&#xe9;" horiz-adv-x="546" 
d="M134 260q0 -50 14 -90.5t38.5 -68.5t58 -43t72.5 -15q35 0 70 12t69 35l23 -44q-48 -36 -94.5 -49t-94.5 -13q-54 0 -99 20.5t-77.5 57t-50.5 86t-18 106.5q0 58 18.5 107.5t51 86t77 57t96.5 20.5q41 0 79 -14t66.5 -41t45.5 -68t17 -95q0 -8 -0.5 -18t-1.5 -18z
M404 323q1 6 1 11.5v10.5q0 31 -9.5 55t-25 40t-36.5 24.5t-43 8.5q-63 0 -106 -42.5t-49 -117.5zM262 581h-46l115 169h95z" />
    <glyph glyph-name="ecircumflex" unicode="&#xea;" horiz-adv-x="546" 
d="M134 260q0 -50 14 -90.5t38.5 -68.5t58 -43t72.5 -15q35 0 70 12t69 35l23 -44q-48 -36 -94.5 -49t-94.5 -13q-54 0 -99 20.5t-77.5 57t-50.5 86t-18 106.5q0 58 18.5 107.5t51 86t77 57t96.5 20.5q41 0 79 -14t66.5 -41t45.5 -68t17 -95q0 -8 -0.5 -18t-1.5 -18z
M404 323q1 6 1 11.5v10.5q0 31 -9.5 55t-25 40t-36.5 24.5t-43 8.5q-63 0 -106 -42.5t-49 -117.5zM375 581l-83 95l-84 -95h-46l106 169h48l105 -169h-46z" />
    <glyph glyph-name="edieresis" unicode="&#xeb;" horiz-adv-x="546" 
d="M134 260q0 -50 14 -90.5t38.5 -68.5t58 -43t72.5 -15q35 0 70 12t69 35l23 -44q-48 -36 -94.5 -49t-94.5 -13q-54 0 -99 20.5t-77.5 57t-50.5 86t-18 106.5q0 58 18.5 107.5t51 86t77 57t96.5 20.5q41 0 79 -14t66.5 -41t45.5 -68t17 -95q0 -8 -0.5 -18t-1.5 -18z
M404 323q1 6 1 11.5v10.5q0 31 -9.5 55t-25 40t-36.5 24.5t-43 8.5q-63 0 -106 -42.5t-49 -117.5zM262 644q0 -22 -15 -38t-38 -16q-21 0 -36 16t-15 38q0 23 15 39t36 16q23 0 38 -16t15 -39zM422 644q0 -22 -14.5 -38t-37.5 -16t-37.5 16t-14.5 38q0 23 14.5 39t37.5 16
t37.5 -16t14.5 -39z" />
    <glyph glyph-name="igrave" unicode="&#xec;" 
d="M174 0h-84v512h84v-512zM164 581l-164 169h95l115 -169h-46z" />
    <glyph glyph-name="iacute" unicode="&#xed;" 
d="M174 0h-84v512h84v-512zM110 581h-46l115 169h95z" />
    <glyph glyph-name="icircumflex" unicode="&#xee;" 
d="M174 0h-84v512h84v-512zM215 581l-83 95l-84 -95h-46l106 169h48l105 -169h-46z" />
    <glyph glyph-name="idieresis" unicode="&#xef;" 
d="M174 0h-84v512h84v-512zM104 644q0 -22 -15 -38t-38 -16q-21 0 -36 16t-15 38q0 23 15 39t36 16q23 0 38 -16t15 -39zM264 644q0 -22 -14.5 -38t-37.5 -16t-37.5 16t-14.5 38q0 23 14.5 39t37.5 16t37.5 -16t14.5 -39z" />
    <glyph glyph-name="eth" unicode="&#xf0;" horiz-adv-x="592" 
d="M495 718l-106 -49q37 -39 66 -87t48 -99t29 -101.5t10 -95.5q0 -68 -18 -124.5t-51 -96.5t-79 -62t-102 -22q-52 0 -97 20t-78.5 56t-52.5 86t-19 110q0 59 19 109t52.5 86t78.5 56t97 20q69 0 126 -36q-3 8 -8.5 24.5t-15.5 38t-25 45.5t-36 48l-154 -69v56l114 51
q-21 17 -45.5 31.5t-54.5 23.5v44q45 -8 83.5 -27t72.5 -47l146 67v-56zM452 253q0 46 -12 85.5t-33 68.5t-50 45.5t-62 16.5q-34 0 -63 -16.5t-50.5 -45.5t-33.5 -68.5t-12 -85.5q0 -45 12 -84.5t33 -69t50 -46.5t64 -17q33 0 62 17t50 46.5t33 69t12 84.5z" />
    <glyph glyph-name="ntilde" unicode="&#xf1;" horiz-adv-x="575" 
d="M416 0v286q0 42 -5.5 73t-19.5 53q-17 29 -45 44t-60 15q-37 0 -66 -11t-55 -27v-433h-84v512h13q17 -8 28.5 -11.5t23.5 -3.5q16 0 31.5 4.5t33 9.5t39 9.5t48.5 4.5q116 0 167 -75q20 -31 28 -67.5t8 -81.5v-301h-85zM452 689q-22 -49 -48 -69t-54 -20q-19 0 -33.5 5.5
t-33.5 18.5q-32 21 -54 21q-29 0 -51 -39l-34 10q21 49 47 69t55 20q20 0 35.5 -7.5t34.5 -18.5q14 -8 27.5 -13.5t24.5 -5.5q14 0 27 8t24 31z" />
    <glyph glyph-name="ograve" unicode="&#xf2;" horiz-adv-x="588" 
d="M542 253q0 -60 -19.5 -110t-53 -86t-78.5 -56t-96 -20q-52 0 -97.5 20t-79.5 56t-53.5 86t-19.5 110q0 59 19.5 109t53.5 86t79.5 56t97.5 20q51 0 96 -20t78.5 -56t53 -86t19.5 -109zM452 253q0 46 -12 86t-33 69t-50 46t-62 17q-34 0 -63 -17t-50.5 -46t-33.5 -69
t-12 -86q0 -45 12 -85t33 -69.5t50 -46.5t64 -17q33 0 62 17t50 46.5t33 69.5t12 85zM346 581l-164 169h95l115 -169h-46z" />
    <glyph glyph-name="oacute" unicode="&#xf3;" horiz-adv-x="588" 
d="M542 253q0 -60 -19.5 -110t-53 -86t-78.5 -56t-96 -20q-52 0 -97.5 20t-79.5 56t-53.5 86t-19.5 110q0 59 19.5 109t53.5 86t79.5 56t97.5 20q51 0 96 -20t78.5 -56t53 -86t19.5 -109zM452 253q0 46 -12 86t-33 69t-50 46t-62 17q-34 0 -63 -17t-50.5 -46t-33.5 -69
t-12 -86q0 -45 12 -85t33 -69.5t50 -46.5t64 -17q33 0 62 17t50 46.5t33 69.5t12 85zM268 581h-46l115 169h95z" />
    <glyph glyph-name="ocircumflex" unicode="&#xf4;" horiz-adv-x="588" 
d="M542 253q0 -60 -19.5 -110t-53 -86t-78.5 -56t-96 -20q-52 0 -97.5 20t-79.5 56t-53.5 86t-19.5 110q0 59 19.5 109t53.5 86t79.5 56t97.5 20q51 0 96 -20t78.5 -56t53 -86t19.5 -109zM452 253q0 46 -12 86t-33 69t-50 46t-62 17q-34 0 -63 -17t-50.5 -46t-33.5 -69
t-12 -86q0 -45 12 -85t33 -69.5t50 -46.5t64 -17q33 0 62 17t50 46.5t33 69.5t12 85zM379 581l-83 95l-84 -95h-46l106 169h48l105 -169h-46z" />
    <glyph glyph-name="otilde" unicode="&#xf5;" horiz-adv-x="588" 
d="M542 253q0 -60 -19.5 -110t-53 -86t-78.5 -56t-96 -20q-52 0 -97.5 20t-79.5 56t-53.5 86t-19.5 110q0 59 19.5 109t53.5 86t79.5 56t97.5 20q51 0 96 -20t78.5 -56t53 -86t19.5 -109zM452 253q0 46 -12 86t-33 69t-50 46t-62 17q-34 0 -63 -17t-50.5 -46t-33.5 -69
t-12 -86q0 -45 12 -85t33 -69.5t50 -46.5t64 -17q33 0 62 17t50 46.5t33 69.5t12 85zM456 689q-22 -49 -48 -69t-54 -20q-19 0 -33.5 5.5t-33.5 18.5q-32 21 -54 21q-29 0 -51 -39l-34 10q21 49 47 69t55 20q20 0 35.5 -7.5t34.5 -18.5q14 -8 27.5 -13.5t24.5 -5.5
q14 0 27 8t24 31z" />
    <glyph glyph-name="odieresis" unicode="&#xf6;" horiz-adv-x="588" 
d="M542 253q0 -60 -19.5 -110t-53 -86t-78.5 -56t-96 -20q-52 0 -97.5 20t-79.5 56t-53.5 86t-19.5 110q0 59 19.5 109t53.5 86t79.5 56t97.5 20q51 0 96 -20t78.5 -56t53 -86t19.5 -109zM452 253q0 46 -12 86t-33 69t-50 46t-62 17q-34 0 -63 -17t-50.5 -46t-33.5 -69
t-12 -86q0 -45 12 -85t33 -69.5t50 -46.5t64 -17q33 0 62 17t50 46.5t33 69.5t12 85zM268 644q0 -22 -15 -38t-38 -16q-21 0 -36 16t-15 38q0 23 15 39t36 16q23 0 38 -16t15 -39zM428 644q0 -22 -14.5 -38t-37.5 -16t-37.5 16t-14.5 38q0 23 14.5 39t37.5 16t37.5 -16
t14.5 -39z" />
    <glyph glyph-name="divide" unicode="&#xf7;" horiz-adv-x="545" 
d="M72 247v58h401v-58h-401zM325 471q0 -23 -14.5 -39t-37.5 -16t-37.5 16t-14.5 39q0 22 14.5 38t37.5 16t37.5 -16t14.5 -38zM325 80q0 -22 -14.5 -38t-37.5 -16t-37.5 16t-14.5 38q0 23 14.5 39t37.5 16t37.5 -16t14.5 -39z" />
    <glyph glyph-name="oslash" unicode="&#xf8;" horiz-adv-x="588" 
d="M468 450q35 -38 54.5 -87.5t19.5 -109.5t-19.5 -110t-53 -86t-78.5 -56t-96 -20q-40 0 -76 12t-66 34l-61 -82h-62l85 115q-32 36 -51 84.5t-19 108.5q0 59 19.5 109t53.5 86t79.5 56t97.5 20q76 0 137 -43l61 82h61zM194 82q41 -47 101 -47q33 0 62 17t50 46.5t33 69.5
t12 85q0 76 -31 132zM390 427q-20 21 -44 32.5t-51 11.5q-34 0 -63 -17t-50.5 -46t-33.5 -69t-12 -86q0 -36 7.5 -68.5t21.5 -59.5z" />
    <glyph glyph-name="ugrave" unicode="&#xf9;" horiz-adv-x="575" 
d="M494 0h-13q-18 8 -29 11.5t-23 3.5q-17 0 -32.5 -4.5t-33 -10t-38.5 -10t-48 -4.5q-60 0 -101 19.5t-67 56.5q-20 31 -27.5 67.5t-7.5 81.5v301h85v-286q0 -86 24 -126q17 -30 45 -45t61 -15q37 0 66 11t54 28v433h85v-512zM308 581l-164 169h95l115 -169h-46z" />
    <glyph glyph-name="uacute" unicode="&#xfa;" horiz-adv-x="575" 
d="M494 0h-13q-18 8 -29 11.5t-23 3.5q-17 0 -32.5 -4.5t-33 -10t-38.5 -10t-48 -4.5q-60 0 -101 19.5t-67 56.5q-20 31 -27.5 67.5t-7.5 81.5v301h85v-286q0 -86 24 -126q17 -30 45 -45t61 -15q37 0 66 11t54 28v433h85v-512zM278 581h-46l115 169h95z" />
    <glyph glyph-name="ucircumflex" unicode="&#xfb;" horiz-adv-x="575" 
d="M494 0h-13q-18 8 -29 11.5t-23 3.5q-17 0 -32.5 -4.5t-33 -10t-38.5 -10t-48 -4.5q-60 0 -101 19.5t-67 56.5q-20 31 -27.5 67.5t-7.5 81.5v301h85v-286q0 -86 24 -126q17 -30 45 -45t61 -15q37 0 66 11t54 28v433h85v-512zM370 581l-83 95l-84 -95h-46l106 169h48
l105 -169h-46z" />
    <glyph glyph-name="udieresis" unicode="&#xfc;" horiz-adv-x="575" 
d="M494 0h-13q-18 8 -29 11.5t-23 3.5q-17 0 -32.5 -4.5t-33 -10t-38.5 -10t-48 -4.5q-60 0 -101 19.5t-67 56.5q-20 31 -27.5 67.5t-7.5 81.5v301h85v-286q0 -86 24 -126q17 -30 45 -45t61 -15q37 0 66 11t54 28v433h85v-512zM259 644q0 -22 -15 -38t-38 -16q-21 0 -36 16
t-15 38q0 23 15 39t36 16q23 0 38 -16t15 -39zM419 644q0 -22 -14.5 -38t-37.5 -16t-37.5 16t-14.5 38q0 23 14.5 39t37.5 16t37.5 -16t14.5 -39z" />
    <glyph glyph-name="yacute" unicode="&#xfd;" horiz-adv-x="507" 
d="M285 0q-12 -27 -26 -59t-32 -66t-40.5 -69.5t-49.5 -68.5l-68 49q33 29 57 55.5t42 52.5t31.5 52t25.5 54l-216 512h95l168 -408l88 222q14 36 23 63.5t15 49t9.5 39t5.5 34.5h85zM252 581h-46l115 169h95z" />
    <glyph glyph-name="thorn" unicode="&#xfe;" horiz-adv-x="583" 
d="M165 491q16 8 52 21t86 13q54 0 96.5 -23t71.5 -61q32 -40 48 -89.5t16 -102.5q0 -51 -15 -99t-44.5 -85.5t-73.5 -60.5t-103 -23q-35 0 -68 9.5t-66 25.5v-278h-84v1029h84v-276zM165 76q22 -15 54 -28t70 -13q74 0 116 56.5t42 164.5q0 44 -11 83t-32 68.5t-52 46.5
t-71 17q-19 0 -37 -4.5t-33.5 -10.5t-27 -13t-18.5 -13v-354z" />
    <glyph glyph-name="ydieresis" unicode="&#xff;" horiz-adv-x="507" 
d="M285 0q-12 -27 -26 -59t-32 -66t-40.5 -69.5t-49.5 -68.5l-68 49q33 29 57 55.5t42 52.5t31.5 52t25.5 54l-216 512h95l168 -408l88 222q14 36 23 63.5t15 49t9.5 39t5.5 34.5h85zM237 644q0 -22 -15 -38t-38 -16q-21 0 -36 16t-15 38q0 23 15 39t36 16q23 0 38 -16
t15 -39zM397 644q0 -22 -14.5 -38t-37.5 -16t-37.5 16t-14.5 38q0 23 14.5 39t37.5 16t37.5 -16t14.5 -39z" />
    <glyph glyph-name="dotlessi" unicode="&#x131;" 
d="M174 0h-84v512h84v-512z" />
    <glyph glyph-name="Lslash" unicode="&#x141;" horiz-adv-x="511" 
d="M504 0h-407v258l-91 -52v64l91 52v229q0 34 -2 60.5t-16 43.5q-7 10 -19.5 17t-24.5 8v9h149v-318l182 104v-63l-182 -104v-250h320v-58z" />
    <glyph glyph-name="lslash" unicode="&#x142;" 
d="M174 384v-384h-84v337l-89 -50v62l89 50v368h84v-321l88 51v-62z" />
    <glyph glyph-name="OE" unicode="&#x152;" horiz-adv-x="987" 
d="M535 0v45q-35 -31 -83.5 -47.5t-93.5 -16.5q-69 0 -126 27.5t-98 76t-63.5 115t-22.5 144.5q0 79 22.5 145.5t63.5 115t98 75.5t126 27q22 0 47 -4.5t48.5 -13t45 -20.5t36.5 -26v46h391v-58h-311v-247h265v-59h-265v-267h320v-58h-400zM528 555q-27 42 -72.5 67.5
t-97.5 25.5q-50 0 -89 -22.5t-67 -63t-42.5 -96t-14.5 -122.5q0 -66 14.5 -122t42.5 -96.5t67 -63t89 -22.5q51 0 97 25t73 69v421z" />
    <glyph glyph-name="oe" unicode="&#x153;" horiz-adv-x="945" 
d="M452 253q0 46 -12 86t-33 69t-50 46t-62 17q-34 0 -63 -17t-50.5 -46t-33.5 -69t-12 -86q0 -45 12 -85t33 -69.5t50 -46.5t64 -17q33 0 62 17t50 46.5t33 69.5t12 85zM878 46q-48 -36 -94.5 -50.5t-94.5 -14.5q-60 0 -112 29.5t-84 78.5q-34 -50 -85.5 -79t-112.5 -29
q-52 0 -97.5 20t-79.5 56t-53.5 86t-19.5 110q0 59 19.5 109t53.5 86t79.5 56t97.5 20q61 0 112.5 -27.5t85.5 -76.5q32 49 82.5 77t111.5 28q42 0 79.5 -14t66 -41t45.5 -68t17 -95q0 -8 -0.5 -18t-1.5 -18l-359 -11q0 -50 13.5 -90.5t38 -68.5t58.5 -43t74 -15
q34 0 68.5 12t69.5 35zM804 323q1 6 1 11.5v10.5q0 31 -9.5 55t-25.5 40t-37 24.5t-43 8.5q-31 0 -58 -11t-47.5 -32t-33 -50.5t-15.5 -66.5z" />
    <glyph glyph-name="Scaron" unicode="&#x160;" horiz-adv-x="562" 
d="M451 559q-29 35 -72.5 62t-98.5 27q-29 0 -53.5 -8.5t-42.5 -23.5t-28.5 -35.5t-10.5 -45.5q0 -30 14.5 -51.5t38.5 -39t54 -31t61 -26.5q36 -15 72 -32t65 -39.5t47 -52.5t18 -72q0 -49 -20 -88t-53 -66t-76 -41.5t-88 -14.5q-32 0 -64.5 6t-63.5 16t-58.5 23.5
t-49.5 28.5l38 86q17 -18 39.5 -36t48.5 -32t55 -23t59 -9q31 0 57.5 9t45.5 24.5t30 37t11 47.5q0 30 -15 52.5t-40 41t-57 33.5t-66 30q-35 15 -70 33t-63 41t-45.5 52.5t-17.5 69.5q0 46 20.5 82.5t54 61.5t75.5 38t86 13q58 0 109 -19.5t91 -42.5zM303 749h-48l-106 169
h46l84 -95l83 95h46z" />
    <glyph glyph-name="scaron" unicode="&#x161;" horiz-adv-x="483" 
d="M373 403q-26 28 -60.5 48.5t-77.5 20.5q-44 0 -73 -22.5t-29 -56.5q0 -20 10.5 -34.5t28.5 -26t41.5 -21t49.5 -18.5q30 -12 60.5 -25t54.5 -30t39.5 -41t15.5 -57q0 -38 -16.5 -67.5t-44 -49.5t-63 -31t-72.5 -11q-26 0 -53 5t-53 13t-49.5 18.5t-41.5 21.5l35 73
q14 -14 32.5 -27.5t39.5 -25t44 -18.5t46 -7q24 0 44 6.5t34.5 17t23 25t8.5 31.5q0 20 -11.5 35.5t-30.5 28t-43.5 22.5t-50.5 21q-30 12 -59 25.5t-52.5 31.5t-38 41.5t-14.5 55.5q0 35 16.5 62.5t44 47t62.5 29.5t72 10q48 0 90.5 -14.5t75.5 -32.5zM258 581h-48
l-106 169h46l84 -95l83 95h46z" />
    <glyph glyph-name="Ydieresis" unicode="&#x178;" horiz-adv-x="537" 
d="M312 310v-310h-86v310l-226 379h101l186 -312q21 34 45.5 79t46.5 90t38 83.5t18 59.5h102zM247 804q0 -22 -15 -38t-38 -16q-21 0 -36 16t-15 38q0 23 15 39t36 16q23 0 38 -16t15 -39zM407 804q0 -22 -14.5 -38t-37.5 -16t-37.5 16t-14.5 38q0 23 14.5 39t37.5 16
t37.5 -16t14.5 -39z" />
    <glyph glyph-name="Zcaron" unicode="&#x17d;" horiz-adv-x="534" 
d="M136 58h358v-58h-467v42l354 589h-346l8 58h453v-35zM286 751h-48l-106 169h46l84 -95l83 95h46z" />
    <glyph glyph-name="zcaron" unicode="&#x17e;" horiz-adv-x="479" 
d="M145 57h283v-57h-392v45l282 410h-268l13 57h367v-41zM263 581h-48l-106 169h46l84 -95l83 95h46z" />
    <glyph glyph-name="florin" unicode="&#x192;" horiz-adv-x="481" 
d="M444 614q-11 16 -25.5 31.5t-28.5 22.5q-5 3 -12 5.5t-15 2.5q-15 0 -29 -9q-20 -15 -33 -52.5t-21 -89.5l-14 -102h135l-6 -56h-136l-41 -314q-6 -46 -23 -84.5t-41.5 -66.5t-55.5 -44t-65 -16q-30 0 -59.5 10.5t-62.5 40.5l57 69q12 -18 27 -34.5t27 -24.5
q6 -3 12.5 -6.5t14.5 -3.5q9 0 20 6t20 19q7 11 13 26t12 35.5t11.5 48t10.5 63.5l58 439q7 54 25.5 90.5t43.5 59.5t54.5 33t58.5 10q34 0 65 -12.5t59 -32.5z" />
    <glyph glyph-name="circumflex" unicode="&#x2c6;" 
d="M215 581l-83 95l-84 -95h-46l106 169h48l105 -169h-46z" />
    <glyph glyph-name="caron" unicode="&#x2c7;" 
d="M156 581h-48l-106 169h46l84 -95l83 95h46z" />
    <glyph glyph-name="breve" unicode="&#x2d8;" 
d="M260 726q-8 -77 -43 -111t-85 -34t-85 34t-43 111h34q11 -42 36 -62t58 -20t58 20t36 62h34v0z" />
    <glyph glyph-name="dotaccent" unicode="&#x2d9;" 
d="M185 646q0 -23 -15.5 -39.5t-38.5 -16.5q-22 0 -37.5 16.5t-15.5 39.5t15.5 40t37.5 17q23 0 38.5 -17t15.5 -40z" />
    <glyph glyph-name="ring" unicode="&#x2da;" 
d="M31 682q0 21 8 39.5t21.5 32t32 21.5t39.5 8t39.5 -8t32 -21.5t21.5 -32t8 -39.5t-8 -39.5t-21.5 -32t-32 -21.5t-39.5 -8t-39.5 8t-32 21.5t-21.5 32t-8 39.5zM84 682q0 -20 14 -34t34 -14t34 14t14 34t-14 34t-34 14t-34 -14t-14 -34z" />
    <glyph glyph-name="ogonek" unicode="&#x2db;" 
d="M242 -220q-12 -5 -33.5 -11.5t-55.5 -6.5q-27 0 -50.5 8t-41.5 23t-28 35.5t-10 45.5q0 31 14.5 57.5t38 48t52.5 37t59 23.5v-40q-22 -10 -39 -25t-29 -32t-18 -35t-6 -34q0 -26 16.5 -44.5t52.5 -18.5q29 0 49 9.5t29 15.5v-56z" />
    <glyph glyph-name="tilde" unicode="&#x2dc;" 
d="M290 689q-22 -49 -48 -69t-54 -20q-19 0 -33.5 5.5t-33.5 18.5q-32 21 -54 21q-29 0 -51 -39l-34 10q21 49 47 69t55 20q20 0 35.5 -7.5t34.5 -18.5q14 -8 27.5 -13.5t24.5 -5.5q14 0 27 8t24 31l33 -10v0z" />
    <glyph glyph-name="hungarumlaut" unicode="&#x2dd;" 
d="M167 581h-46l115 169h94zM49 581h-43l89 179h91z" />
    <glyph glyph-name="pi" unicode="&#x3c0;" horiz-adv-x="695" 
d="M648 30q-34 -26 -62 -37.5t-58 -11.5q-46 0 -70.5 27.5t-24.5 77.5v384h-204v-470h-85v470h-83v64h545v-64h-88v-378q0 -29 10.5 -40t28.5 -11q16 0 34 7t36 18l21 -36v0z" />
    <glyph glyph-name="endash" unicode="&#x2013;" horiz-adv-x="511" 
d="M24 247v58h463v-58h-463z" />
    <glyph glyph-name="emdash" unicode="&#x2014;" horiz-adv-x="927" 
d="M91 247v58h745v-58h-745z" />
    <glyph glyph-name="quoteleft" unicode="&#x2018;" horiz-adv-x="218" 
d="M178 713q-25 -23 -41.5 -52t-16.5 -52q0 -18 13 -32t37 -19l3 -8q-3 -26 -22 -41.5t-42 -15.5q-11 0 -22.5 4.5t-20.5 13.5t-15 22t-6 29q0 22 10 46t25.5 47t35 44t39.5 38l23 -24v0z" />
    <glyph glyph-name="quoteright" unicode="&#x2019;" horiz-adv-x="218" 
d="M39 506q26 23 42.5 52t16.5 51q0 19 -13 33t-36 19l-3 7q3 27 21.5 42.5t41.5 15.5q11 0 22.5 -4.5t21 -13.5t15.5 -22t6 -29q0 -23 -10 -46.5t-26 -47t-36 -44.5t-39 -38z" />
    <glyph glyph-name="quotesinglbase" unicode="&#x201a;" horiz-adv-x="237" 
d="M48 -117q26 22 42 51t16 52q0 18 -12.5 32t-36.5 19l-3 8q3 26 21.5 42t41.5 16t43.5 -18.5t20.5 -51.5q0 -23 -9.5 -46.5t-25.5 -46.5t-35.5 -44t-38.5 -38z" />
    <glyph glyph-name="quotedblleft" unicode="&#x201c;" horiz-adv-x="391" 
d="M178 713q-25 -23 -41.5 -52t-16.5 -52q0 -18 13 -32t37 -19l3 -8q-3 -26 -22 -41.5t-42 -15.5q-11 0 -22.5 4.5t-20.5 13.5t-15 22t-6 29q0 22 10 46t25.5 47t35 44t39.5 38zM352 713q-26 -23 -42 -52t-16 -52q0 -18 12.5 -32t35.5 -19l3 -8q-3 -26 -21.5 -41.5
t-41.5 -15.5q-11 0 -22.5 4.5t-20.5 13.5t-15 22t-6 29q0 22 10 46t25.5 47t35 44t39.5 38z" />
    <glyph glyph-name="quotedblright" unicode="&#x201d;" horiz-adv-x="391" 
d="M39 506q26 23 42.5 52t16.5 51q0 19 -13 33t-36 19l-3 7q3 27 21.5 42.5t41.5 15.5q11 0 22.5 -4.5t21 -13.5t15.5 -22t6 -29q0 -23 -10 -46.5t-26 -47t-36 -44.5t-39 -38zM213 506q25 23 41.5 52t16.5 51q0 19 -13 33t-36 19l-3 7q3 27 21.5 42.5t41.5 15.5t43.5 -18
t20.5 -51q0 -23 -9.5 -46.5t-25.5 -47t-35.5 -44.5t-39.5 -38z" />
    <glyph glyph-name="quotedblbase" unicode="&#x201e;" horiz-adv-x="410" 
d="M48 -117q26 22 42 51t16 52q0 18 -12.5 32t-36.5 19l-3 8q3 26 21.5 42t41.5 16t43.5 -18.5t20.5 -51.5q0 -23 -9.5 -46.5t-25.5 -46.5t-35.5 -44t-38.5 -38zM221 -117q26 22 42 51t16 52q0 18 -12.5 32t-35.5 19l-3 8q3 26 21 42t42 16q21 0 42.5 -18.5t21.5 -51.5
q0 -23 -10 -46.5t-25.5 -46.5t-35.5 -44t-40 -38z" />
    <glyph glyph-name="dagger" unicode="&#x2020;" horiz-adv-x="581" 
d="M313 424l25 -203l-28 -406h-40l-27 406l25 203l-196 -31v104l196 -29l-27 239h99l-27 -239l196 29v-104z" />
    <glyph glyph-name="daggerdbl" unicode="&#x2021;" horiz-adv-x="581" 
d="M313 55l27 -240h-99l27 240l-196 -28v102l196 -30l-25 162l25 163l-196 -31v104l196 -29l-27 239h99l-27 -239l196 29v-104l-196 31l25 -163l-25 -162l196 30v-102z" />
    <glyph glyph-name="bullet" unicode="&#x2022;" horiz-adv-x="332" 
d="M274 367q0 -22 -8.5 -41.5t-23 -33.5t-34.5 -22.5t-42 -8.5t-41.5 8.5t-34 22.5t-23 33.5t-8.5 41.5t8.5 41.5t23 34t34 23t41.5 8.5t42 -8.5t34.5 -23t23 -34t8.5 -41.5z" />
    <glyph glyph-name="ellipsis" unicode="&#x2026;" horiz-adv-x="714" 
d="M175 43q0 -24 -16 -41t-41 -17q-23 0 -39.5 17t-16.5 41t16.5 42t39.5 18q25 0 41 -18t16 -42zM414 43q0 -24 -17 -41t-40 -17q-25 0 -41 17t-16 41t16 42t41 18q23 0 40 -18t17 -42zM652 43q0 -24 -17 -41t-41 -17t-40 17t-16 41t16 42t40 18t41 -18t17 -42z" />
    <glyph glyph-name="perthousand" unicode="&#x2030;" horiz-adv-x="1262" 
d="M398 498q0 -42 -14 -77.5t-37.5 -61t-55 -40t-67.5 -14.5t-68 14.5t-56 40t-37.5 61t-13.5 77.5t13.5 77.5t37.5 61t56 40t68 14.5t67.5 -14.5t55 -40t37.5 -61t14 -77.5zM322 498q0 30 -7.5 56.5t-20.5 46t-31 31t-39 11.5t-39.5 -11.5t-32 -31t-21 -46t-7.5 -56.5
t7.5 -56.5t21 -46t31.5 -31t40 -11.5q21 0 39 11.5t31 31t20.5 46t7.5 56.5zM268 -10h-62l391 708h62zM814 191q0 -42 -13.5 -77.5t-37 -61t-55 -40t-67.5 -14.5q-37 0 -69 14.5t-56 40t-37.5 61t-13.5 77.5t13.5 77.5t37.5 61t56 40t69 14.5q36 0 67.5 -14.5t55 -40t37 -61
t13.5 -77.5zM739 191q0 30 -7.5 56.5t-20.5 46t-31 31t-39 11.5t-39.5 -11.5t-32 -31t-21 -46t-7.5 -56.5t7.5 -56.5t21 -46t31.5 -31t40 -11.5q21 0 39 11.5t31 31t20.5 46t7.5 56.5zM1214 191q0 -42 -14 -77.5t-37.5 -61t-55.5 -40t-68 -14.5t-68 14.5t-55.5 40t-37 61
t-13.5 77.5t13.5 77.5t37 61t55.5 40t68 14.5t68 -14.5t55.5 -40t37.5 -61t14 -77.5zM1138 191q0 30 -7.5 56.5t-21 46t-31.5 31t-39 11.5t-39.5 -11.5t-32 -31t-21 -46t-7.5 -56.5t7.5 -56.5t21 -46t31.5 -31t40 -11.5q21 0 39 11.5t31.5 31t21 46t7.5 56.5z" />
    <glyph glyph-name="guilsinglleft" unicode="&#x2039;" horiz-adv-x="359" 
d="M244 72l-199 204l199 205l41 -38l-139 -167l139 -166z" />
    <glyph glyph-name="guilsinglright" unicode="&#x203a;" horiz-adv-x="359" 
d="M114 72l-40 38l140 166l-140 167l40 38l200 -205z" />
    <glyph glyph-name="fraction" unicode="&#x2044;" horiz-adv-x="181" 
d="M-73 -10h-63l391 708h62z" />
    <glyph glyph-name="Euro" unicode="&#x20ac;" horiz-adv-x="603" 
d="M525 582q-22 27 -56.5 46t-70.5 19q-33 0 -60 -15.5t-48 -43t-36 -65t-23 -81.5h215l-8 -51h-213q-2 -19 -2 -42t2 -43h201l-8 -51h-187q8 -48 25 -87.5t40.5 -67.5t53 -43t62.5 -15q40 0 75.5 12t71.5 43v-77q-36 -14 -73 -23t-92 -9q-49 0 -91.5 19.5t-76 54.5
t-56.5 84.5t-32 108.5h-95l8 51h82q-2 20 -1.5 42.5t2.5 42.5h-86l8 51h85q10 57 33.5 104.5t56.5 82t74 53.5t87 19q53 0 93.5 -15t75.5 -34z" />
    <glyph glyph-name="trademark" unicode="&#x2122;" horiz-adv-x="750" 
d="M594 462l-26 231l-66 -231h-45l-65 231l-27 -231h-55l40 305h66l64 -225l64 225h68l39 -305h-57zM190 727v-265h-57v265h-92v40h241v-40h-92z" />
    <glyph glyph-name="Omega" unicode="&#x2126;" horiz-adv-x="756" 
d="M692 0h-258l-8 33q33 24 62.5 53t52.5 66.5t36.5 85t13.5 106.5q0 57 -13.5 111.5t-40.5 97t-67 69t-92 26.5t-91.5 -26.5t-66 -69t-40 -97t-13.5 -111.5q0 -59 13.5 -106.5t36 -85t52 -66.5t62.5 -53l-8 -33h-258l-22 153l10 1q7 -28 16.5 -43.5t22.5 -23t31 -9t42 -1.5
h51q-17 14 -42 37.5t-48.5 59.5t-40.5 85t-17 114q0 68 23.5 129t64.5 106.5t98 72t124 26.5t124 -26.5t98.5 -72t65 -106.5t23.5 -129q0 -65 -17 -114t-40.5 -85t-49 -59.5t-42.5 -37.5h52q24 0 41.5 1.5t30.5 9t22.5 23t16.5 43.5l11 -1z" />
    <glyph glyph-name="partialdiff" unicode="&#x2202;" horiz-adv-x="592" 
d="M193 781q57 -10 105 -38t86.5 -67.5t68 -88t49.5 -100t30 -103.5t10 -98q0 -68 -18 -124.5t-51 -96.5t-79 -62t-102 -22q-52 0 -97 20t-78.5 56t-52.5 86t-19 110q0 59 19 109t52.5 86t78.5 56t97 20q69 0 126 -36q-4 13 -16.5 45.5t-38 71t-67 75t-103.5 57.5v44z
M452 253q0 46 -12 85.5t-33 68.5t-50 45.5t-62 16.5q-34 0 -63 -16.5t-50.5 -45.5t-33.5 -68.5t-12 -85.5q0 -45 12 -84.5t33 -69t50 -46.5t64 -17q33 0 62 17t50 46.5t33 69t12 84.5z" />
    <glyph glyph-name="Delta" unicode="&#x2206;" horiz-adv-x="645" 
d="M630 0h-615v10l288 697h37l290 -697v-10zM307 564l-197 -481h395z" />
    <glyph glyph-name="product" unicode="&#x220f;" horiz-adv-x="741" 
d="M594 620v-620h-85v620h-275v-620h-87v620h-102v69h651v-69h-102z" />
    <glyph glyph-name="summation" unicode="&#x2211;" horiz-adv-x="667" 
d="M561 -19h-550v38l303 329l-290 321v38h537v-175h-10q-4 15 -8.5 35.5t-17 39t-35.5 32t-63 13.5h-262l245 -269v-8l-284 -307h301q40 0 63 13.5t35.5 32t17 39t8.5 34.5h10v-206z" />
    <glyph glyph-name="minus" unicode="&#x2212;" horiz-adv-x="545" 
d="M72 247v58h401v-58h-401z" />
    <glyph glyph-name="radical" unicode="&#x221a;" horiz-adv-x="614" 
d="M275 -19l-156 357l-66 -41l-19 32l135 95l147 -339l261 688l47 -18l-298 -774h-51z" />
    <glyph glyph-name="infinity" unicode="&#x221e;" horiz-adv-x="644" 
d="M305 249q-11 15 -36 45q-18 23 -40 41t-52 18q-28 0 -51 -17.5t-23 -52.5q0 -20 8.5 -34.5t22 -25t31 -15.5t35.5 -5q29 0 56.5 12.5t48.5 33.5zM338 303q5 -8 14.5 -19t22.5 -26q17 -23 39 -41t51 -18t52.5 17.5t23.5 52.5q0 19 -8.5 34t-22 25.5t-31.5 15.5t-36 5
q-29 0 -56.5 -12.5t-48.5 -33.5zM320 223q-9 -17 -23 -33t-31 -28t-37.5 -19.5t-42.5 -7.5q-28 0 -51 12t-39.5 31.5t-25.5 45t-9 52.5q0 31 9.5 56.5t26.5 44.5t39.5 29.5t49.5 10.5q34 0 59 -14t48 -38q5 -6 15 -18.5l14 -17.5q20 34 55 61t80 27q28 0 51.5 -12t40 -31.5
t25.5 -45t9 -53.5q0 -30 -10 -56t-27 -44.5t-40 -29t-49 -10.5q-33 0 -58 14t-48 38q-6 6 -16.5 18.5t-14.5 17.5z" />
    <glyph glyph-name="integral" unicode="&#x222b;" horiz-adv-x="414" 
d="M406 614q-11 16 -25.5 31.5t-28.5 22.5q-5 3 -12 5.5t-15 2.5q-15 0 -29 -9q-20 -15 -33 -53t-21 -89l-62 -472q-6 -46 -23 -84.5t-41.5 -66.5t-55.5 -44t-65 -16q-30 0 -59.5 10.5t-63.5 40.5l58 69q12 -18 27 -34t27 -24q6 -4 12.5 -7.5t14.5 -3.5q9 0 20 6t20 19
q7 11 13 26t12 35.5t11 48t10 63.5l59 439q7 54 25.5 90.5t43 59.5t54 33t59.5 10q33 0 64.5 -12.5t59.5 -32.5z" />
    <glyph glyph-name="approxequal" unicode="&#x2248;" horiz-adv-x="545" 
d="M500 353q-35 -29 -71.5 -46t-69.5 -17q-24 0 -47 8.5t-46 19.5q-22 11 -43 20t-40 9q-25 0 -52.5 -13t-53.5 -34l-31 45q35 32 71 48.5t68 16.5q30 0 54.5 -10.5t47.5 -21.5q19 -9 38 -17.5t36 -8.5q51 0 107 48zM500 207q-35 -29 -71.5 -46t-69.5 -17q-24 0 -47 8.5
t-46 19.5q-22 11 -43 20.5t-40 9.5q-25 0 -52.5 -13.5t-53.5 -34.5l-31 46q35 31 71 47.5t68 16.5q30 0 54.5 -10.5t47.5 -21.5q19 -9 38 -17.5t36 -8.5q25 0 52.5 12.5t54.5 35.5z" />
    <glyph glyph-name="notequal" unicode="&#x2260;" horiz-adv-x="545" 
d="M247 176l-65 -112h-66l65 112h-109v58h143l49 84h-192v58h225l65 112h66l-65 -112h110v-58h-143l-49 -84h192v-58h-226z" />
    <glyph glyph-name="lessequal" unicode="&#x2264;" horiz-adv-x="545" 
d="M72 298v55l401 158v-65l-319 -119l319 -121v-65zM72 32v57h401v-57h-401z" />
    <glyph glyph-name="greaterequal" unicode="&#x2265;" horiz-adv-x="545" 
d="M72 141v65l320 121l-320 119v65l401 -158v-55zM72 32v57h401v-57h-401z" />
    <glyph glyph-name="lozenge" unicode="&#x25ca;" horiz-adv-x="530" 
d="M285 -14h-43l-190 360l190 361h43l193 -361zM265 606h-2l-134 -260l134 -260h2l135 260z" />
    <glyph glyph-name="apple" unicode="&#xf8ff;" horiz-adv-x="782" 
d="M534 691q2 -36 -10 -67.5t-33 -55t-48.5 -37t-57.5 -13.5q2 72 41 118t108 55zM696 168q-38 -93 -82.5 -143.5t-86.5 -50.5q-17 0 -29 4.5t-24.5 9.5t-27.5 9.5t-37 4.5q-24 0 -42 -4.5t-33 -10.5t-28 -10.5t-26 -4.5q-35 0 -70 33t-62.5 83t-44.5 108.5t-17 109.5
q0 49 13.5 89t38.5 69t59 45t76 16q21 0 39 -4.5t33.5 -10.5t28 -10.5t23.5 -4.5q15 0 29.5 5t30.5 11t34 11t41 5q93 0 145 -71q-44 -33 -62.5 -65t-18.5 -74q0 -51 26.5 -90t73.5 -59z" />
    <glyph glyph-name="A.alt" horiz-adv-x="584" 
d="M284 597l-99 -308h201zM484 0l-78 231h-238l-74 -231h-91l249 689h79l250 -689h-97z" />
    <glyph glyph-name="B.alt" horiz-adv-x="606" 
d="M299 396q26 0 49 8.5t40.5 24.5t28 40t10.5 56q0 54 -37 81t-97 27h-119v-237h125zM301 56q78 0 119 39t41 111q0 32 -11 57t-30.5 42t-46 26t-57.5 9h-142v-284h127zM328 689q49 0 84.5 -13t59 -35t34.5 -49.5t11 -56.5q0 -25 -8 -49.5t-23.5 -45.5t-38 -37t-51.5 -24
q72 -18 115 -61.5t43 -120.5q0 -37 -15 -72.5t-43 -63.5q-29 -28 -71.5 -44.5t-91.5 -16.5h-246v689h241z" />
    <glyph glyph-name="D.alt" horiz-adv-x="662" 
d="M174 56h95q63 0 109 22t77 61q32 39 48 91.5t16 113.5t-16 114t-48 92q-31 39 -77 61t-109 22h-95v-577zM272 689q63 0 120.5 -18t101.5 -54q56 -48 87.5 -119.5t31.5 -153.5q0 -81 -31.5 -152.5t-87.5 -119.5q-44 -36 -101.5 -54t-120.5 -18h-185v689h185z" />
    <glyph glyph-name="E.alt" horiz-adv-x="546" 
d="M494 0h-407v689h398v-58h-311v-247h265v-59h-265v-267h320v-58z" />
    <glyph glyph-name="F.alt" horiz-adv-x="508" 
d="M485 631h-311v-247h265v-59h-265v-325h-87v689h398v-58z" />
    <glyph glyph-name="H.alt" horiz-adv-x="658" 
d="M572 0h-87v325h-311v-325h-87v689h87v-305h311v305h87v-689z" />
    <glyph glyph-name="I.alt" horiz-adv-x="275" 
d="M181 0h-87v689h87v-689z" />
    <glyph glyph-name="J.alt" horiz-adv-x="277" 
d="M183 689v-610q0 -51 -12.5 -88.5t-33 -68t-45 -57t-48.5 -54.5l-34 29q18 24 34 48.5t27.5 53.5t18 64.5t6.5 82.5v600h87z" />
    <glyph glyph-name="K.alt" horiz-adv-x="590" 
d="M174 0h-87v689h87v-689zM475 0l-301 356q46 48 93.5 98t88 95.5t69.5 82t38 57.5h117l-306 -317l314 -372h-113z" />
    <glyph glyph-name="L.alt" horiz-adv-x="501" 
d="M494 0h-407v689h87v-631h320v-58z" />
    <glyph glyph-name="M.alt" horiz-adv-x="834" 
d="M694 0l-69 612l-171 -612h-77l-168 612l-69 -612h-90l89 689h118l152 -545q3 -10 5 -21t3 -19q1 8 3.5 18.5t5.5 20.5l151 546h125l83 -689h-91z" />
    <glyph glyph-name="N.alt" horiz-adv-x="648" 
d="M562 0h-87l-308 610l4 -610h-84v689h120l258 -515q5 -10 12.5 -26t9.5 -26q-1 17 -1 44t-1 55l-7 468h84v-689z" />
    <glyph glyph-name="P.alt" horiz-adv-x="570" 
d="M87 0v689h203q48 0 90 -10.5t71 -33.5q70 -52 70 -149q0 -41 -16.5 -76t-47 -61.5t-73 -41.5t-94.5 -15h-116v-302h-87zM276 359q72 0 113.5 34.5t41.5 102.5t-41.5 102.5t-113.5 34.5h-102v-274h102z" />
    <glyph glyph-name="R.alt" horiz-adv-x="589" 
d="M282 363q42 0 71 12t47 32t26 45.5t8 52.5q0 64 -37 96t-98 32h-125v-270h108zM315 689q47 0 85.5 -11t66.5 -33.5t43 -56.5t15 -80q0 -77 -40 -123.5t-106 -64.5l217 -320h-104l-206 306h-112v-306h-87v689h228z" />
    <glyph glyph-name="U.alt" horiz-adv-x="669" 
d="M582 254q0 -70 -19 -121.5t-52.5 -85t-78.5 -50t-96 -16.5t-96 15.5t-79 48.5t-54 83.5t-20 120.5v440h87v-445q0 -53 14 -90t38 -60.5t55 -34.5t66 -11q42 0 73.5 15t52 43t30.5 66.5t10 85.5v431h69v-435z" />
    <glyph glyph-name="Eth.alt" horiz-adv-x="672" 
d="M282 689q63 0 120.5 -18t101.5 -54q56 -48 87.5 -119.5t31.5 -153.5q0 -81 -31.5 -152.5t-87.5 -119.5q-44 -36 -101.5 -54t-120.5 -18h-185v327h-72v56h72v306h185zM184 327v-271h98q63 0 108 22t76 61q32 39 47.5 91.5t15.5 113.5t-15.5 114t-47.5 92q-31 39 -76 61
t-108 22h-98v-250h201v-56h-201z" />
    <glyph glyph-name="Adieresis.alt" horiz-adv-x="584" 
d="M284 597l-99 -308h201zM484 0l-78 231h-238l-74 -231h-91l249 689h79l250 -689h-97zM263 814q0 -22 -15 -38t-38 -16q-21 0 -36 16t-15 38q0 23 15 39t36 16q23 0 38 -16t15 -39zM423 814q0 -22 -14.5 -38t-37.5 -16t-37.5 16t-14.5 38q0 23 14.5 39t37.5 16t37.5 -16
t14.5 -39z" />
    <glyph glyph-name="Aring.alt" horiz-adv-x="584" 
d="M284 597l-99 -308h201zM484 0l-78 231h-238l-74 -231h-91l249 689h79l250 -689h-97zM190 818q0 21 8 39.5t21.5 32t32 21.5t39.5 8t39.5 -8t32 -21.5t21.5 -32t8 -39.5t-8 -39.5t-21.5 -32t-32 -21.5t-39.5 -8t-39.5 8t-32 21.5t-21.5 32t-8 39.5zM243 818q0 -20 14 -34
t34 -14t34 14t14 34t-14 34t-34 14t-34 -14t-14 -34z" />
    <glyph glyph-name="Agrave.alt" horiz-adv-x="584" 
d="M284 597l-99 -308h201zM484 0l-78 231h-238l-74 -231h-91l249 689h79l250 -689h-97zM313 751l-164 169h95l115 -169h-46z" />
    <glyph glyph-name="Atilde.alt" horiz-adv-x="584" 
d="M453 859q-22 -49 -48 -69t-54 -20q-19 0 -33.5 5.5t-33.5 18.5q-32 21 -54 21q-29 0 -51 -39l-34 10q21 49 47 69t55 20q20 0 35.5 -7.5t34.5 -18.5q14 -8 27.5 -13.5t24.5 -5.5q14 0 27 8t24 31zM284 597l-99 -308h201zM484 0l-78 231h-238l-74 -231h-91l249 689h79
l250 -689h-97z" />
    <glyph glyph-name="Acircumflex.alt" horiz-adv-x="584" 
d="M284 597l-99 -308h201zM484 0l-78 231h-238l-74 -231h-91l249 689h79l250 -689h-97zM375 751l-83 95l-84 -95h-46l106 169h48l105 -169h-46z" />
    <glyph glyph-name="Aacute.alt" horiz-adv-x="584" 
d="M284 597l-99 -308h201zM484 0l-78 231h-238l-74 -231h-91l249 689h79l250 -689h-97zM286 751h-46l115 169h95z" />
    <glyph glyph-name="Eacute.alt" horiz-adv-x="546" 
d="M494 0h-407v689h398v-58h-311v-247h265v-59h-265v-267h320v-58zM281 751h-46l115 169h95z" />
    <glyph glyph-name="Ecircumflex.alt" horiz-adv-x="546" 
d="M494 0h-407v689h398v-58h-311v-247h265v-59h-265v-267h320v-58zM377 751l-83 95l-84 -95h-46l106 169h48l105 -169h-46z" />
    <glyph glyph-name="Edieresis.alt" horiz-adv-x="546" 
d="M494 0h-407v689h398v-58h-311v-247h265v-59h-265v-267h320v-58zM266 814q0 -22 -15 -38t-38 -16q-21 0 -36 16t-15 38q0 23 15 39t36 16q23 0 38 -16t15 -39zM426 814q0 -22 -14.5 -38t-37.5 -16t-37.5 16t-14.5 38q0 23 14.5 39t37.5 16t37.5 -16t14.5 -39z" />
    <glyph glyph-name="Egrave.alt" horiz-adv-x="546" 
d="M494 0h-407v689h398v-58h-311v-247h265v-59h-265v-267h320v-58zM306 751l-164 169h95l115 -169h-46z" />
    <glyph glyph-name="Iacute.alt" horiz-adv-x="275" 
d="M118 751h-46l115 169h95zM181 0h-87v689h87v-689z" />
    <glyph glyph-name="Icircumflex.alt" horiz-adv-x="275" 
d="M181 0h-87v689h87v-689zM221 751l-83 95l-84 -95h-46l106 169h48l105 -169h-46z" />
    <glyph glyph-name="Idieresis.alt" horiz-adv-x="275" 
d="M110 814q0 -22 -15 -38t-38 -16q-21 0 -36 16t-15 38q0 23 15 39t36 16q23 0 38 -16t15 -39zM270 814q0 -22 -14.5 -38t-37.5 -16t-37.5 16t-14.5 38q0 23 14.5 39t37.5 16t37.5 -16t14.5 -39zM181 0h-87v689h87v-689z" />
    <glyph glyph-name="Igrave.alt" horiz-adv-x="275" 
d="M181 0h-87v689h87v-689zM166 751l-164 169h95l115 -169h-46z" />
    <glyph glyph-name="Lslash.alt" horiz-adv-x="511" 
d="M504 0h-407v258l-91 -52v64l91 52v367h87v-318l182 104v-63l-182 -104v-250h320v-58z" />
    <glyph glyph-name="Ntilde.alt" horiz-adv-x="648" 
d="M562 0h-87l-308 610l4 -610h-84v689h120l258 -515q5 -10 12.5 -26t9.5 -26q-1 17 -1 44t-1 55l-7 468h84v-689zM490 859q-22 -49 -48 -69t-54 -20q-19 0 -33.5 5.5t-33.5 18.5q-32 21 -54 21q-29 0 -51 -39l-34 10q21 49 47 69t55 20q20 0 35.5 -7.5t34.5 -18.5
q14 -8 27.5 -13.5t24.5 -5.5q14 0 27 8t24 31z" />
    <glyph glyph-name="Udieresis.alt" horiz-adv-x="669" 
d="M582 254q0 -70 -19 -121.5t-52.5 -85t-78.5 -50t-96 -16.5t-96 15.5t-79 48.5t-54 83.5t-20 120.5v440h87v-445q0 -53 14 -90t38 -60.5t55 -34.5t66 -11q42 0 73.5 15t52 43t30.5 66.5t10 85.5v431h69v-435zM313 814q0 -22 -15 -38t-38 -16q-21 0 -36 16t-15 38
q0 23 15 39t36 16q23 0 38 -16t15 -39zM473 814q0 -22 -14.5 -38t-37.5 -16t-37.5 16t-14.5 38q0 23 14.5 39t37.5 16t37.5 -16t14.5 -39z" />
    <glyph glyph-name="Uacute.alt" horiz-adv-x="669" 
d="M582 254q0 -70 -19 -121.5t-52.5 -85t-78.5 -50t-96 -16.5t-96 15.5t-79 48.5t-54 83.5t-20 120.5v440h87v-445q0 -53 14 -90t38 -60.5t55 -34.5t66 -11q42 0 73.5 15t52 43t30.5 66.5t10 85.5v431h69v-435zM331 751h-46l115 169h95z" />
    <glyph glyph-name="Ucircumflex.alt" horiz-adv-x="669" 
d="M582 254q0 -70 -19 -121.5t-52.5 -85t-78.5 -50t-96 -16.5t-96 15.5t-79 48.5t-54 83.5t-20 120.5v440h87v-445q0 -53 14 -90t38 -60.5t55 -34.5t66 -11q42 0 73.5 15t52 43t30.5 66.5t10 85.5v431h69v-435zM427 751l-83 95l-84 -95h-46l106 169h48l105 -169h-46z" />
    <glyph glyph-name="Ugrave.alt" horiz-adv-x="669" 
d="M582 254q0 -70 -19 -121.5t-52.5 -85t-78.5 -50t-96 -16.5t-96 15.5t-79 48.5t-54 83.5t-20 120.5v440h87v-445q0 -53 14 -90t38 -60.5t55 -34.5t66 -11q42 0 73.5 15t52 43t30.5 66.5t10 85.5v431h69v-435zM360 751l-164 169h95l115 -169h-46z" />
    <glyph glyph-name="AE.alt" horiz-adv-x="880" 
d="M828 0h-407v266h-219l-139 -266h-96l391 689h461v-58h-311v-247h265v-59h-265v-267h320v-58zM421 631h-29l-158 -306h187v306z" />
    <glyph glyph-name="a.alt" horiz-adv-x="514" 
d="M355 257l-80 -18q-35 -8 -61.5 -17.5t-45 -22t-28 -30.5t-9.5 -43q0 -26 9.5 -43t25 -27t34.5 -14t38 -4q29 0 58 8t57 30zM424 0q-13 8 -24 11.5t-22 3.5q-16 0 -32 -5.5t-34.5 -11.5t-40 -11.5t-49.5 -5.5q-44 0 -78.5 10.5t-57.5 28.5t-35 42t-12 52q0 29 9.5 54
t30.5 46t55.5 37.5t85.5 27.5l136 31v19q0 26 -4 51.5t-15.5 46t-32 33t-53.5 12.5q-45 0 -81 -23t-66 -54l-40 75q52 29 98.5 42t92.5 13q68 0 108 -26t58 -68q12 -26 15.5 -55t3.5 -61l-2 -315h-14z" />
    <glyph glyph-name="aacute.alt" horiz-adv-x="514" 
d="M355 257l-80 -18q-35 -8 -61.5 -17.5t-45 -22t-28 -30.5t-9.5 -43q0 -26 9.5 -43t25 -27t34.5 -14t38 -4q29 0 58 8t57 30zM424 0q-13 8 -24 11.5t-22 3.5q-16 0 -32 -5.5t-34.5 -11.5t-40 -11.5t-49.5 -5.5q-44 0 -78.5 10.5t-57.5 28.5t-35 42t-12 52q0 29 9.5 54
t30.5 46t55.5 37.5t85.5 27.5l136 31v19q0 26 -4 51.5t-15.5 46t-32 33t-53.5 12.5q-45 0 -81 -23t-66 -54l-40 75q52 29 98.5 42t92.5 13q68 0 108 -26t58 -68q12 -26 15.5 -55t3.5 -61l-2 -315h-14zM236 581h-46l115 169h95z" />
    <glyph glyph-name="agrave.alt" horiz-adv-x="514" 
d="M355 257l-80 -18q-35 -8 -61.5 -17.5t-45 -22t-28 -30.5t-9.5 -43q0 -26 9.5 -43t25 -27t34.5 -14t38 -4q29 0 58 8t57 30zM424 0q-13 8 -24 11.5t-22 3.5q-16 0 -32 -5.5t-34.5 -11.5t-40 -11.5t-49.5 -5.5q-44 0 -78.5 10.5t-57.5 28.5t-35 42t-12 52q0 29 9.5 54
t30.5 46t55.5 37.5t85.5 27.5l136 31v19q0 26 -4 51.5t-15.5 46t-32 33t-53.5 12.5q-45 0 -81 -23t-66 -54l-40 75q52 29 98.5 42t92.5 13q68 0 108 -26t58 -68q12 -26 15.5 -55t3.5 -61l-2 -315h-14zM290 581l-164 169h95l115 -169h-46z" />
    <glyph glyph-name="acircumflex.alt" horiz-adv-x="514" 
d="M355 257l-80 -18q-35 -8 -61.5 -17.5t-45 -22t-28 -30.5t-9.5 -43q0 -26 9.5 -43t25 -27t34.5 -14t38 -4q29 0 58 8t57 30zM424 0q-13 8 -24 11.5t-22 3.5q-16 0 -32 -5.5t-34.5 -11.5t-40 -11.5t-49.5 -5.5q-44 0 -78.5 10.5t-57.5 28.5t-35 42t-12 52q0 29 9.5 54
t30.5 46t55.5 37.5t85.5 27.5l136 31v19q0 26 -4 51.5t-15.5 46t-32 33t-53.5 12.5q-45 0 -81 -23t-66 -54l-40 75q52 29 98.5 42t92.5 13q68 0 108 -26t58 -68q12 -26 15.5 -55t3.5 -61l-2 -315h-14zM336 581l-83 95l-84 -95h-46l106 169h48l105 -169h-46z" />
    <glyph glyph-name="adieresis.alt" horiz-adv-x="514" 
d="M355 257l-80 -18q-35 -8 -61.5 -17.5t-45 -22t-28 -30.5t-9.5 -43q0 -26 9.5 -43t25 -27t34.5 -14t38 -4q29 0 58 8t57 30zM424 0q-13 8 -24 11.5t-22 3.5q-16 0 -32 -5.5t-34.5 -11.5t-40 -11.5t-49.5 -5.5q-44 0 -78.5 10.5t-57.5 28.5t-35 42t-12 52q0 29 9.5 54
t30.5 46t55.5 37.5t85.5 27.5l136 31v19q0 26 -4 51.5t-15.5 46t-32 33t-53.5 12.5q-45 0 -81 -23t-66 -54l-40 75q52 29 98.5 42t92.5 13q68 0 108 -26t58 -68q12 -26 15.5 -55t3.5 -61l-2 -315h-14zM225 644q0 -22 -15 -38t-38 -16q-21 0 -36 16t-15 38q0 23 15 39t36 16
q23 0 38 -16t15 -39zM385 644q0 -22 -14.5 -38t-37.5 -16t-37.5 16t-14.5 38q0 23 14.5 39t37.5 16t37.5 -16t14.5 -39z" />
    <glyph glyph-name="atilde.alt" horiz-adv-x="514" 
d="M355 257l-80 -18q-35 -8 -61.5 -17.5t-45 -22t-28 -30.5t-9.5 -43q0 -26 9.5 -43t25 -27t34.5 -14t38 -4q29 0 58 8t57 30zM424 0q-13 8 -24 11.5t-22 3.5q-16 0 -32 -5.5t-34.5 -11.5t-40 -11.5t-49.5 -5.5q-44 0 -78.5 10.5t-57.5 28.5t-35 42t-12 52q0 29 9.5 54
t30.5 46t55.5 37.5t85.5 27.5l136 31v19q0 26 -4 51.5t-15.5 46t-32 33t-53.5 12.5q-45 0 -81 -23t-66 -54l-40 75q52 29 98.5 42t92.5 13q68 0 108 -26t58 -68q12 -26 15.5 -55t3.5 -61l-2 -315h-14zM422 689q-22 -49 -48 -69t-54 -20q-19 0 -33.5 5.5t-33.5 18.5
q-32 21 -54 21q-29 0 -51 -39l-34 10q21 49 47 69t55 20q20 0 35.5 -7.5t34.5 -18.5q14 -8 27.5 -13.5t24.5 -5.5q14 0 27 8t24 31z" />
    <glyph glyph-name="aring.alt" horiz-adv-x="514" 
d="M355 257l-80 -18q-35 -8 -61.5 -17.5t-45 -22t-28 -30.5t-9.5 -43q0 -26 9.5 -43t25 -27t34.5 -14t38 -4q29 0 58 8t57 30zM424 0q-13 8 -24 11.5t-22 3.5q-16 0 -32 -5.5t-34.5 -11.5t-40 -11.5t-49.5 -5.5q-44 0 -78.5 10.5t-57.5 28.5t-35 42t-12 52q0 29 9.5 54
t30.5 46t55.5 37.5t85.5 27.5l136 31v19q0 26 -4 51.5t-15.5 46t-32 33t-53.5 12.5q-45 0 -81 -23t-66 -54l-40 75q52 29 98.5 42t92.5 13q68 0 108 -26t58 -68q12 -26 15.5 -55t3.5 -61l-2 -315h-14zM152 682q0 21 8 39.5t21.5 32t32 21.5t39.5 8t39.5 -8t32 -21.5
t21.5 -32t8 -39.5t-8 -39.5t-21.5 -32t-32 -21.5t-39.5 -8t-39.5 8t-32 21.5t-21.5 32t-8 39.5zM205 682q0 -20 14 -34t34 -14t34 14t14 34t-14 34t-34 14t-34 -14t-14 -34z" />
    <glyph glyph-name="ae.alt" horiz-adv-x="849" 
d="M385 100q-15 31 -23 67t-7 90l-80 -18q-35 -8 -61.5 -17.5t-45 -22.5t-28 -31t-9.5 -44q0 -25 9.5 -41.5t25 -26.5t34.5 -14t38 -4q42 0 77 15t70 47zM783 46q-48 -36 -94.5 -50.5t-95.5 -14.5q-48 0 -92 18.5t-75 50.5q-12 -7 -31 -18.5t-45 -23t-58.5 -19.5t-69.5 -8
q-44 0 -78.5 10.5t-57.5 28.5t-35 42t-12 52q0 29 9.5 54t30.5 46t55.5 37.5t85.5 27.5l136 31v20q0 25 -4 50.5t-15.5 46t-32 33t-53.5 12.5q-45 0 -81 -23t-66 -54l-40 75q52 29 98.5 42t92.5 13q62 0 100.5 -22.5t59.5 -58.5q32 38 77.5 59.5t98.5 21.5q42 0 79.5 -14
t66 -41t45.5 -68t17 -95q0 -8 -0.5 -18t-0.5 -18l-359 -11q0 -50 13.5 -90.5t38 -68.5t58 -43t73.5 -15q33 0 68.5 12t69.5 35zM708 323q1 6 1 11.5v10.5q0 31 -9.5 55t-25 40t-36.5 24.5t-44 8.5q-62 0 -105 -42.5t-49 -117.5z" />
    <glyph glyph-name="f.alt" horiz-adv-x="328" 
d="M369 695q-31 16 -56 24.5t-46 8.5q-42 0 -62.5 -38.5t-20.5 -126.5v-51h114v-56h-114v-456h-84v456h-79v56h79v37q0 45 5 81.5t22 66.5q28 49 71.5 67.5t93.5 18.5q26 0 54 -4.5t49 -11.5z" />
    <glyph glyph-name="fi.alt" horiz-adv-x="612" 
d="M369 695q-31 16 -56 24.5t-46 8.5q-42 0 -62.5 -38.5t-20.5 -126.5v-51h114v-56h-114v-456h-84v456h-79v56h79v37q0 45 5 81.5t22 66.5q28 49 71.5 67.5t93.5 18.5q26 0 54 -4.5t49 -11.5zM522 0h-84v512h84v-512zM536 666q0 -23 -16 -40.5t-41 -17.5q-23 0 -39.5 17.5
t-16.5 40.5q0 25 16.5 42.5t39.5 17.5q25 0 41 -17.5t16 -42.5z" />
    <glyph glyph-name="fl.alt" horiz-adv-x="622" 
d="M369 695q-31 16 -56 24.5t-46 8.5q-42 0 -62.5 -38.5t-20.5 -126.5v-51h114v-56h-114v-456h-84v456h-79v56h79v37q0 45 5 81.5t22 66.5q28 49 71.5 67.5t93.5 18.5q26 0 54 -4.5t49 -11.5zM532 0h-84v767h84v-767z" />
    <glyph glyph-name="g.alt" horiz-adv-x="580" 
d="M499 -22q0 -251 -244 -251q-40 0 -86 9t-77 23l17 86q52 -29 100 -44.5t81 -15.5q44 0 69 20t37 53t15 75t3 87q-26 -18 -59.5 -28t-69.5 -10q-51 0 -94.5 18.5t-78.5 52.5q-35 38 -51 89t-16 111q0 56 19.5 105.5t53 86t79.5 57.5t100 21q27 0 49.5 -4t40.5 -9t32.5 -9
t24.5 -4q25 0 41 15h14v-534zM414 440q-50 28 -102 28q-34 0 -66 -14t-56.5 -41.5t-39 -68.5t-14.5 -95q0 -38 10.5 -75t32 -66t54.5 -47.5t78 -18.5q24 0 45 7.5t34 21.5q24 24 24 65v304z" />
    <glyph glyph-name="t.alt" horiz-adv-x="338" 
d="M322 32q-29 -18 -61 -31.5t-67 -13.5q-20 0 -37.5 6.5t-31.5 20.5q-22 26 -22 79v362h-92v57h92v145l83 22v-167h141v-57h-141v-363q0 -23 11 -32t26 -9q9 0 20 2.5t22.5 6t21.5 7.5t17 7l18 -42v0z" />
    <glyph glyph-name="florin.alt" horiz-adv-x="490" 
d="M454 614q-11 16 -25.5 31.5t-28.5 22.5q-5 3 -12 5.5t-15 2.5q-9 0 -16 -2.5t-14 -6.5q-20 -15 -32.5 -52.5t-20.5 -89.5l-14 -102h135l-7 -56h-135l-41 -314q-6 -46 -23 -84.5t-41.5 -66.5t-56 -44t-65.5 -16q-29 0 -58.5 10.5t-63.5 40.5l57 69q12 -18 27 -34.5
t28 -24.5q5 -3 11.5 -6.5t14.5 -3.5q10 0 21 6t19 19q7 11 13 26t12 35.5t11.5 48t10.5 63.5l36 276h-95v56h103l14 107q7 54 25.5 90.5t43.5 59.5t54.5 33t58.5 10q34 0 65.5 -12.5t58.5 -32.5z" />
    </font>
</defs>
</svg>
