<?xml version="1.0" encoding="utf-8"?>
<!-- Generated by IcoMoon.io -->
<svg version="1.1" xmlns="http://www.w3.org/2000/svg" xmlns:xlink="http://www.w3.org/1999/xlink" width="752" height="32" viewBox="0 0 752 32">
<svg id="icon-Blue" width="91" height="32" viewBox="0 0 91 32" x="0" y="0">
<path fill="#0051a5" d="M24.203 27.894c0 1.042-0.427 1.646-1.26 1.966-3.237 1.249-7.071 1.893-10.718 1.893s-7.48-0.644-10.718-1.893c-0.833-0.321-1.26-0.924-1.26-1.966v-27.648h23.956v27.648z"></path>
<path fill="#fedf01" d="M6.672 17.095c-3.316-2.071-4.412-2.989-4.505-4.347-0.016-0.276 0.047-0.742 0.163-1.074l-0.313-0.208c-0.251 0.398-0.409 0.923-0.409 1.405-0 0.785 0.251 1.379 0.559 1.854 0.466 0.718 0.957 1.169 2.163 2.074 1.302 0.977 2.189 2.118 2.7 3.311h0.185v-1.355c1.759 0.998 3.309 1.939 4.071 3.617h0.185c-0.299-1.74-1.282-3.081-4.8-5.278z"></path>
<path fill="#fedf01" d="M21.949 22.376h-0.224c0-1.239-1.135-1.576-2.324-1.576h-3.714c0.119 0.61 0.175 1.325 0.082 2h-0.185c-0.344-2.783-1.916-4.161-4.113-5.637v1.266h-0.185c-0.583-1.307-1.867-2.533-3.082-3.403h0.001c-0.324-0.231-0.658-0.47-0.989-0.706v1.366h-0.185c-0.515-1.355-1.45-2.366-2.784-3.569-1.44-1.297-2.022-2.074-2.358-2.966-0.205-0.541-0.262-0.978-0.27-1.572-0.013-1.062 0.523-2.021 1.192-2.38v0.514c-0.332 0.44-0.504 0.996-0.504 1.561-0.001 0.521 0.123 1.101 0.383 1.596 0.811 1.545 3.542 3.441 5.277 4.605 5.394 3.62 6.471 4.252 7.367 6.173 0.1 0.214 0.199 0.502 0.282 0.835 0.78-0.12 3.606-0.551 4.128-0.633 0.1-0.016 0.308-0.042 0.416-0.049 0.487-0.308 0.867-0.7 1.201-1.19l-2.068-0.161c-0.107 0.238-0.213 0.437-0.306 0.597h-0.168c0.056-0.21 0.106-0.417 0.147-0.622l-0.528-0.039v-0.113l0.572-0.071c0.109-0.586 0.161-1.139 0.172-1.657l-2.605-0.147c-0.014 0.267-0.017 0.519-0.008 0.752h-0.167c-0.056-0.26-0.099-0.518-0.133-0.77l-0.571-0.033v-0.174l0.542-0.029c-0.076-0.689-0.081-1.333-0.053-1.886l-1.523-0.070c0.072 0.134 0.146 0.27 0.198 0.417 0.329 0.919 0.251 1.997 0.142 2.492h-0.185c-0.027-0.574-0.219-1.276-0.402-1.705-0.421-0.993-1.367-1.871-2.951-2.89v1.269h-0.185c-0.527-1.668-1.838-2.596-3.788-3.598-1.609-0.826-2.109-1.822-2.018-3.363l0.544 0.322c0.139 1.442 1.246 2.273 2.404 2.264 0.682-0.005 1.321-0.095 1.938-0.219 0.891-0.18 1.716-0.334 2.405-0.090v-0.851h-0.541c-0.193 0.167-0.586 0.362-1.163 0.371-0.635 0.012-1.836-0.354-1.836-1.697 0-1.166 0.987-1.352 1.79-1.352 0.429 0 1.144-0.016 1.386-0.030 0.18-0.011 0.314-0.038 0.402-0.125 0.091-0.090 0.119-0.182 0.14-0.301 0.025-0.145 0.025-0.293 0.025-0.543 0-0.092 0-0.852 0-0.852h-3.722v1.475l-1.408-0.536v-0.353h0.674v-0.586h-2.511v-1.225h-0.857c-0.458 0-0.985 0.321-1.022 0.942-0.036 0.596 0.232 1.098 0.846 1.098h0.11v0.714h-0.11c-1.075 0-1.885-0.808-1.885-1.88 0-1.117 0.951-1.968 2.1-1.968h1.816v1.225h7.060c0 0 0 1.464 0 1.81 0 0.305-0.016 0.715-0.046 0.974-0.021 0.188-0.088 0.527-0.444 0.8-0.215 0.164-0.539 0.23-1.066 0.232-0.172 0.001-0.672-0.008-1.272-0.045-0.804-0.051-1.032 0.26-1.065 0.548-0.007 0.061-0.006 0.12 0 0.177 0.377-0.292 0.91-0.498 1.515-0.308 1.065 0.335 1.369 0.365 1.924-0.071l0.056 0.125c-0.060 0.093-0.167 0.225-0.322 0.344h0.515v2.789l1.602-0.96h4.496c0 0 1.901 0.993 2.213 1.157 0.276 0.145 0.385 0.321 0.428 0.578 0.036 0.215-0.020 0.488-0.126 0.663-0.066 0.109-0.582 0.956-0.856 1.408 0.764 0.828 1.28 1.985 1.28 3.275 0 1.168-0.432 2.676-1.835 3.796 0.617 0.202 1.013 0.538 1.323 0.981l-0.436 1.485zM11.923 7.354c-0.632-0.139-0.984-0.061-1.347 0.286 0.178 0.085 0.4 0.131 0.646 0.113 0.354-0.025 0.575-0.237 0.7-0.399zM11.558 11.373l1.779-1.067c-0.349-0.174-0.735-0.284-1.194-0.29-0.613-0.010-1.648 0.273-2.149 0.35 0.224 0.153 1.019 0.661 1.563 1.008zM19.504 11.486l0.247-0.346-0.382-0.51 0.064-0.113 1.074 0.58-0.234 0.71c0.173 0.083 0.332 0.188 0.545 0.329l0.694-1.141-1.797-0.94h-3.971l-3.222 1.94c0.605 0.421 1.162 0.875 1.558 1.333 0.863-1.257 2.381-2.059 3.883-2.059 0.491-0 1.064 0.052 1.542 0.216zM19.18 15.99c-0.020-0.593-0.095-1.13-0.194-1.604l-2.104-0.095c-0.145 0.641-0.24 1.266-0.285 1.836l2.583-0.137zM19.889 14.428c0.068 0.543 0.074 1.053 0.040 1.523l2.084-0.111c-0.053-0.473-0.188-0.922-0.39-1.332l-1.735-0.080zM18.826 13.745c-0.217-0.753-0.477-1.276-0.614-1.523-0.087-0.005-0.175-0.007-0.264-0.007-0.146 0-0.294 0.019-0.436 0.034-0.211 0.526-0.382 1.059-0.522 1.598l1.836-0.102zM19.404 12.481c0.155 0.417 0.272 0.822 0.358 1.212l1.274-0.070c-0.438-0.504-0.997-0.9-1.632-1.141zM21.749 17.86c0.149-0.362 0.245-0.711 0.271-1.151l-2.166-0.123c-0.098 0.607-0.259 1.135-0.431 1.567l2.326-0.293zM16.406 12.565c-0.726 0.326-1.226 0.767-1.672 1.401l1.483-0.078c0.053-0.659 0.14-1.096 0.189-1.324z"></path>
<path fill="#fff" d="M13.654 25.578c0.604-0.098 1.182-0.569 1.182-1.28 0-0.641-0.272-1.345-2.158-1.345-1.411 0-3.182 0-3.182 0v0.051c0.096 0.029 0.248 0.108 0.348 0.206 0.216 0.211 0.287 0.527 0.298 0.946v4.766c0 0 1.743 0 2.637 0 1.451 0 2.5-0.553 2.5-1.821 0-1.031-0.802-1.47-1.625-1.524zM12.298 23.522c0.675 0 1.132 0.146 1.132 0.867 0 0.768-0.613 0.98-1.313 0.98-0.339 0-0.603 0-0.603 0v-1.847c0 0 0.377 0 0.783 0zM12.366 28.358c-0.286 0-0.851 0-0.851 0v-2.437c0 0 0.463 0 0.812 0 1.116 0 1.544 0.332 1.544 1.169 0 0.905-0.559 1.268-1.505 1.268z"></path>
<path fill="#fff" d="M7.148 28.923h1.718l-2.195-2.808c0.88-0.236 1.539-0.717 1.539-1.592 0-1.027-0.614-1.571-2.221-1.571-1.425 0-3.319 0-3.319 0v0.051c0.122 0.044 0.259 0.123 0.348 0.211 0.232 0.229 0.302 0.579 0.302 1.052 0 0.001 0 4.656 0 4.656h1.378v-2.646c0 0 0.299 0 0.503 0l1.947 2.646zM4.698 23.522c0 0 0.524 0 0.929 0 0.773 0 1.177 0.226 1.177 1.048 0 0.733-0.528 1.167-1.374 1.167-0.339 0-0.731 0-0.731 0v-2.215z"></path>
<path fill="#fff" d="M20.853 23.771c0.369 0.209 0.481 0.483 0.483 0.485 0.018 0.020 0.057 0.014 0.057 0.014l0.3-1.021c0 0-0.539-0.387-1.82-0.387-1.94 0-3.392 0.978-3.392 3.117 0 2.411 1.73 3.037 3.255 3.037 1.419 0 1.976-0.451 1.976-0.451v-0.7c0 0-0.501 0.468-1.576 0.468-0.888 0-2.191-0.406-2.219-2.388-0.026-1.829 0.771-2.426 1.84-2.426 0.595 0 0.893 0.139 1.096 0.253z"></path>
<path fill="#0051a5" d="M27.308 31.276c-0.818 0-1.49-0.66-1.49-1.498 0-0.834 0.672-1.498 1.49-1.498 0.816 0 1.488 0.665 1.488 1.498 0 0.838-0.672 1.498-1.488 1.498zM27.308 28.578c-0.638 0-1.148 0.532-1.148 1.201s0.51 1.208 1.148 1.208c0.635 0 1.151-0.539 1.151-1.208s-0.516-1.201-1.151-1.201zM27.407 28.929c0.298 0 0.495 0.197 0.495 0.49 0 0.255-0.169 0.46-0.374 0.464 0.030 0.028 0.048 0.044 0.068 0.073 0.096 0.121 0.401 0.652 0.401 0.652h-0.398c-0.064-0.113-0.092-0.157-0.157-0.278-0.165-0.301-0.218-0.382-0.278-0.411-0.017-0.004-0.030-0.012-0.053-0.012v0.701h-0.328v-1.679h0.623zM27.112 29.653h0.114c0.145 0 0.208-0.016 0.253-0.056 0.040-0.039 0.063-0.101 0.063-0.169 0-0.104-0.038-0.174-0.119-0.205-0.036-0.012-0.108-0.024-0.189-0.024h-0.122v0.455z"></path>
<path fill="#0051a5" d="M41.651 8.609h-1.048l-0.909-3.56c-0.035-0.121-0.069-0.294-0.078-0.372-0.009 0.078-0.035 0.251-0.069 0.364l-0.909 3.569h-1.065l-1.862-5.969h1.238l1.325 4.323c0.035 0.121 0.069 0.295 0.078 0.372 0.009-0.078 0.043-0.251 0.069-0.364l0.9-4.332h0.857l1.178 4.332c0.026 0.113 0.061 0.286 0.069 0.364 0.009-0.078 0.061-0.251 0.095-0.372l0.433-1.655c0.268-0.979 0.45-1.897 0.502-2.668h1.126l-1.931 5.969z"></path>
<path fill="#0051a5" d="M46.179 8.774c-1.342 0-2.294-1.031-2.294-2.382 0-1.369 0.978-2.391 2.277-2.391 1.065 0 2.017 0.667 2.017 1.958 0 0.087-0.009 0.286-0.026 0.442l-3.117 0.061c0.087 0.953 0.632 1.62 1.359 1.62 0.416 0 0.849-0.156 1.351-0.459l0.312 0.537c-0.684 0.477-1.281 0.615-1.879 0.615zM46.984 5.759c0.009-0.728-0.364-1.109-0.805-1.109-0.528 0-0.987 0.451-1.082 1.196l1.888-0.087z"></path>
<path fill="#0051a5" d="M53.269 8.609h-0.251c-0.164-0.087-0.286-0.13-0.442-0.13-0.121 0-0.26 0.052-0.416 0.113-0.234 0.087-0.528 0.182-0.892 0.182-0.84 0-1.498-0.416-1.844-1.040-0.208-0.381-0.295-0.849-0.295-1.317 0-0.936 0.372-1.568 0.926-2.001 0.39-0.294 0.9-0.433 1.377-0.433 0.398 0 0.831 0.113 1.074 0.199l0.762-0.173v4.6zM51.468 4.668c-0.614 0-1.195 0.537-1.195 1.698 0 0.684 0.165 1.195 0.502 1.481 0.156 0.147 0.364 0.251 0.615 0.251 0.303 0 0.632-0.156 0.77-0.286v-2.945c-0.217-0.139-0.485-0.199-0.693-0.199z"></path>
<path fill="#0051a5" d="M55.788 8.609h-1.099v-6.74h1.099v6.74z"></path>
<path fill="#0051a5" d="M59.805 8.202c-0.424 0.277-1.039 0.52-1.575 0.52-0.286 0-0.563-0.087-0.753-0.303-0.165-0.19-0.251-0.485-0.251-0.883v-4.721l1.090-0.268v1.568h1.23v0.667h-1.23v2.677c0 0.338 0.173 0.45 0.398 0.45 0.277 0 0.693-0.165 0.883-0.251l0.208 0.546z"></path>
<path fill="#0051a5" d="M63.623 8.609v-2.512c0-0.45-0.061-0.78-0.182-0.979-0.164-0.268-0.442-0.372-0.736-0.372-0.312 0-0.598 0.104-0.831 0.234v3.63h-1.099v-6.74h1.099v2.313c0.139-0.052 0.468-0.208 1.004-0.208 0.675 0 1.221 0.312 1.55 0.806 0.208 0.329 0.294 0.78 0.294 1.273v2.555l-1.099 0z"></path>
<path fill="#0051a5" d="M43.088 18.766h-1.151l-0.546-4.99-1.333 4.99h-0.952l-1.325-4.99-0.554 4.99h-1.151l0.649-4.773c0.043-0.39 0-0.702-0.156-0.901-0.078-0.113-0.242-0.208-0.39-0.217v-0.078h2.147l1.186 4.392c0.035 0.113 0.069 0.26 0.078 0.347 0.009-0.087 0.035-0.225 0.069-0.338l1.186-4.401h1.515l0.727 5.969z"></path>
<path fill="#0051a5" d="M48.17 18.766h-0.251c-0.165-0.087-0.286-0.13-0.442-0.13-0.121 0-0.26 0.052-0.416 0.113-0.234 0.087-0.528 0.182-0.892 0.182-0.84 0-1.498-0.416-1.844-1.040-0.208-0.381-0.295-0.849-0.295-1.317 0-0.936 0.372-1.568 0.926-2.001 0.39-0.295 0.9-0.433 1.377-0.433 0.398 0 0.831 0.113 1.074 0.199l0.762-0.173v4.6h-0zM46.369 14.824c-0.615 0-1.195 0.537-1.195 1.698 0 0.684 0.165 1.195 0.502 1.481 0.156 0.147 0.364 0.251 0.615 0.251 0.303 0 0.632-0.156 0.771-0.286v-2.945c-0.217-0.139-0.485-0.199-0.693-0.199z"></path>
<path fill="#0051a5" d="M52.317 18.766v-2.521c0-0.442-0.052-0.771-0.182-0.97-0.164-0.268-0.433-0.373-0.744-0.373s-0.598 0.113-0.788 0.208v3.656h-1.099v-4.496h0.251c0.208 0.095 0.32 0.13 0.433 0.13 0.156 0 0.294-0.035 0.459-0.087 0.225-0.078 0.493-0.182 0.926-0.182 0.684 0 1.229 0.286 1.55 0.78 0.217 0.329 0.294 0.762 0.294 1.256v2.599l-1.1-0z"></path>
<path fill="#0051a5" d="M58.611 18.766h-0.251c-0.165-0.087-0.286-0.13-0.442-0.13-0.122 0-0.26 0.052-0.416 0.113-0.233 0.087-0.528 0.182-0.892 0.182-0.84 0-1.498-0.416-1.844-1.040-0.208-0.381-0.294-0.849-0.294-1.317 0-0.936 0.372-1.568 0.927-2.001 0.389-0.295 0.9-0.433 1.377-0.433 0.398 0 0.831 0.113 1.074 0.199l0.762-0.173v4.6h-0.001zM56.81 14.824c-0.614 0-1.194 0.537-1.194 1.698 0 0.684 0.164 1.195 0.502 1.481 0.156 0.147 0.364 0.251 0.615 0.251 0.303 0 0.632-0.156 0.77-0.286v-2.945c-0.216-0.139-0.484-0.199-0.693-0.199z"></path>
<path fill="#0051a5" d="M63.32 14.868c0.182 0.216 0.364 0.537 0.364 1.040 0 0.97-0.814 1.741-1.948 1.741-0.208 0-0.433-0.035-0.641-0.087-0.164 0.139-0.251 0.26-0.251 0.373s0.069 0.182 0.199 0.217c0.173 0.061 0.658 0.078 0.996 0.095 1.091 0.043 2.139 0.286 2.139 1.438 0 0.372-0.173 0.762-0.511 1.065-0.467 0.433-1.151 0.624-1.827 0.624-1.584 0-2.251-0.546-2.251-1.239 0-0.45 0.442-0.831 0.866-0.97h0.286c-0.208 0.338-0.268 0.589-0.268 0.788 0 0.476 0.433 0.788 1.29 0.788 0.641 0 1.368-0.277 1.368-0.849 0-0.528-0.702-0.606-1.368-0.658-0.251-0.017-0.805-0.017-1.247-0.199-0.347-0.13-0.615-0.373-0.615-0.762 0-0.338 0.191-0.667 0.632-0.996-0.468-0.355-0.727-0.814-0.727-1.377 0-0.97 0.805-1.75 1.93-1.75 0.433 0 0.753 0.104 0.927 0.208 0.485-0.104 1.030-0.399 1.212-0.572l0.381 0.754c-0.191 0.13-0.667 0.277-0.935 0.329zM61.745 14.781c-0.537 0-0.84 0.477-0.84 1.118s0.303 1.118 0.84 1.118c0.537 0 0.848-0.477 0.848-1.118s-0.312-1.118-0.848-1.118z"></path>
<path fill="#0051a5" d="M67.095 18.93c-1.342 0-2.295-1.031-2.295-2.382 0-1.369 0.978-2.391 2.277-2.391 1.065 0 2.017 0.667 2.017 1.958 0 0.087-0.009 0.286-0.026 0.442l-3.117 0.061c0.087 0.953 0.632 1.62 1.359 1.62 0.415 0 0.848-0.156 1.35-0.459l0.312 0.537c-0.684 0.476-1.281 0.615-1.878 0.615zM67.9 15.916c0.008-0.728-0.364-1.109-0.805-1.109-0.529 0-0.988 0.451-1.083 1.196l1.888-0.087z"></path>
<path fill="#0051a5" d="M75.368 18.766v-2.625c0-0.364-0.052-0.641-0.138-0.823-0.139-0.251-0.424-0.399-0.675-0.399-0.268 0-0.528 0.104-0.736 0.243 0.061 0.217 0.069 0.494 0.069 0.858v2.746h-1.091v-2.937c0-0.208-0.009-0.407-0.087-0.563-0.103-0.217-0.32-0.364-0.623-0.364-0.329 0-0.58 0.139-0.77 0.251v3.612h-1.1v-4.496h0.138c0.208 0.095 0.329 0.13 0.477 0.13 0.372 0 0.728-0.26 1.376-0.26 0.641 0 0.987 0.225 1.186 0.407 0.468-0.286 0.874-0.407 1.359-0.407 0.563 0 1.134 0.225 1.455 0.762 0.182 0.32 0.259 0.745 0.259 1.239v2.625l-1.1-0z"></path>
<path fill="#0051a5" d="M79.843 18.93c-1.342 0-2.294-1.031-2.294-2.382 0-1.369 0.978-2.391 2.277-2.391 1.065 0 2.017 0.667 2.017 1.958 0 0.087-0.009 0.286-0.026 0.442l-3.117 0.061c0.087 0.953 0.632 1.62 1.359 1.62 0.415 0 0.848-0.156 1.351-0.459l0.312 0.537c-0.684 0.476-1.281 0.615-1.879 0.615zM80.649 15.916c0.008-0.728-0.364-1.109-0.805-1.109-0.528 0-0.987 0.451-1.082 1.196l1.888-0.087z"></path>
<path fill="#0051a5" d="M85.779 18.766v-2.521c0-0.442-0.052-0.771-0.182-0.97-0.164-0.268-0.433-0.373-0.745-0.373s-0.598 0.113-0.788 0.208v3.656h-1.099v-4.496h0.251c0.208 0.095 0.32 0.13 0.433 0.13 0.156 0 0.294-0.035 0.459-0.087 0.225-0.078 0.493-0.182 0.926-0.182 0.684 0 1.23 0.286 1.55 0.78 0.217 0.329 0.294 0.762 0.294 1.256v2.599l-1.099-0z"></path>
<path fill="#0051a5" d="M90.753 18.359c-0.424 0.277-1.039 0.52-1.576 0.52-0.286 0-0.563-0.087-0.753-0.303-0.164-0.191-0.251-0.485-0.251-0.884v-4.721l1.091-0.269v1.568h1.229v0.667h-1.229v2.677c0 0.338 0.173 0.45 0.398 0.45 0.277 0 0.693-0.164 0.883-0.251l0.208 0.546z"></path>
</svg>
<svg id="icon-Compliance-2" width="28" height="32" viewBox="0 0 28 32" x="144" y="0">
<path fill="none" stroke="#b8a970" stroke-width="0.7805" stroke-miterlimit="10" stroke-linecap="butt" stroke-linejoin="miter" d="M20.185 27.663l1.97 1.963 5.069-5.047"></path>
<path fill="none" stroke="#6f6e6f" stroke-width="0.7805" stroke-miterlimit="10" stroke-linecap="butt" stroke-linejoin="miter" d="M4.059 11.801h17.807"></path>
<path fill="none" stroke="#6f6e6f" stroke-width="0.7805" stroke-miterlimit="10" stroke-linecap="butt" stroke-linejoin="miter" d="M4.059 7.124h17.807"></path>
<path fill="none" stroke="#6f6e6f" stroke-width="0.7805" stroke-miterlimit="10" stroke-linecap="butt" stroke-linejoin="miter" d="M4.059 16.475h17.807"></path>
<path fill="none" stroke="#6f6e6f" stroke-width="0.7805" stroke-miterlimit="10" stroke-linecap="butt" stroke-linejoin="miter" d="M4.059 25.827h13.515"></path>
<path fill="none" stroke="#6f6e6f" stroke-width="0.7805" stroke-miterlimit="10" stroke-linecap="butt" stroke-linejoin="miter" d="M4.059 21.152h17.807"></path>
<path fill="none" stroke="#6f6e6f" stroke-width="0.7805" stroke-miterlimit="10" stroke-linecap="butt" stroke-linejoin="miter" d="M25.373 23.421v-22.872h-22.744c-1.147 0-2.078 0.928-2.078 2.070v28.833h21.097"></path>
</svg>
<svg id="icon-Contact" width="24" height="32" viewBox="0 0 24 32" x="192" y="0">
<path fill="none" stroke="#b8a970" stroke-width="0.6809" stroke-miterlimit="10" stroke-linecap="butt" stroke-linejoin="miter" d="M8.636 9.366c0-1.831 1.471-3.318 3.289-3.318s3.289 1.485 3.289 3.318c0 1.831-1.471 3.318-3.289 3.318-1.817-0.003-3.289-1.487-3.289-3.318z"></path>
<path fill="none" stroke="#6f6e6f" stroke-width="0.6809" stroke-miterlimit="10" stroke-linecap="round" stroke-linejoin="miter" d="M3.069 0.574v2.034"></path>
<path fill="none" stroke="#6f6e6f" stroke-width="0.6809" stroke-miterlimit="10" stroke-linecap="round" stroke-linejoin="miter" d="M7.491 0.574v2.034"></path>
<path fill="none" stroke="#6f6e6f" stroke-width="0.6809" stroke-miterlimit="10" stroke-linecap="round" stroke-linejoin="miter" d="M11.914 0.574v2.034"></path>
<path fill="none" stroke="#6f6e6f" stroke-width="0.6809" stroke-miterlimit="10" stroke-linecap="round" stroke-linejoin="miter" d="M16.333 0.574v2.034"></path>
<path fill="none" stroke="#6f6e6f" stroke-width="0.6809" stroke-miterlimit="10" stroke-linecap="round" stroke-linejoin="miter" d="M20.755 0.574v2.034"></path>
<path fill="none" stroke="#6f6e6f" stroke-width="0.6809" stroke-miterlimit="10" stroke-linecap="butt" stroke-linejoin="miter" d="M2.475 2.773c-1.052 0-1.905 0.861-1.905 1.922v26.64h-0.24l18.049 0.091 0.022-16.999h-5.36l0.965 7.67-1.61 2.463-1.597-2.463 0.965-7.67h-5.36l0.022 9.331c0 0.795 0.643 1.443 1.433 1.443l0.147 0.011h0.229"></path>
<path fill="none" stroke="#6f6e6f" stroke-width="0.6809" stroke-miterlimit="10" stroke-linecap="butt" stroke-linejoin="miter" d="M21.358 31.426c1.052 0 1.905-0.861 1.905-1.922l-0.104-26.659-20.359-0.091"></path>
</svg>
<svg id="icon-Exceptional-experience" width="23" height="32" viewBox="0 0 23 32" x="240" y="0">
<path fill="none" stroke="#6f6e6f" stroke-width="0.64" stroke-miterlimit="10" stroke-linecap="butt" stroke-linejoin="miter" d="M8.843 24.961h11.054"></path>
<path fill="none" stroke="#6f6e6f" stroke-width="0.64" stroke-miterlimit="10" stroke-linecap="butt" stroke-linejoin="miter" d="M21.192 24.961c0.904 0 1.636-0.732 1.636-1.636v-22.793h-17.908c-0.904 0-1.636 0.732-1.636 1.636v15.132"></path>
<path fill="none" stroke="#6f6e6f" stroke-width="0.64" stroke-miterlimit="10" stroke-linecap="butt" stroke-linejoin="miter" d="M6.079 9.812h14.288"></path>
<path fill="none" stroke="#6f6e6f" stroke-width="0.64" stroke-miterlimit="10" stroke-linecap="butt" stroke-linejoin="miter" d="M6.079 6.836h14.288"></path>
<path fill="none" stroke="#6f6e6f" stroke-width="0.64" stroke-miterlimit="10" stroke-linecap="butt" stroke-linejoin="miter" d="M6.079 12.64h14.288"></path>
<path fill="none" stroke="#6f6e6f" stroke-width="0.64" stroke-miterlimit="10" stroke-linecap="butt" stroke-linejoin="miter" d="M6.079 15.469h14.288"></path>
<path fill="none" stroke="#6f6e6f" stroke-width="0.64" stroke-miterlimit="10" stroke-linecap="butt" stroke-linejoin="miter" d="M13.223 18.299h7.144"></path>
<path fill="none" stroke="#b8a970" stroke-width="0.64" stroke-miterlimit="10" stroke-linecap="butt" stroke-linejoin="miter" d="M7.693 25.884l0.804 5.221-3.151-2.877-3.068 2.877 0.804-5.221"></path>
<path fill="none" stroke="#b8a970" stroke-width="0.64" stroke-miterlimit="10" stroke-linecap="butt" stroke-linejoin="miter" d="M5.389 26.452c2.682 0 4.857-2.128 4.857-4.752s-2.174-4.752-4.857-4.752-4.857 2.128-4.857 4.752c0 2.625 2.174 4.752 4.857 4.752z"></path>
<path fill="none" stroke="#b8a970" stroke-width="0.64" stroke-miterlimit="10" stroke-linecap="butt" stroke-linejoin="miter" d="M4.57 20.794l0.806-2.054 0.83 2.045 2.245 0.117-1.731 1.402 0.581 2.126-1.899-1.177-1.886 1.199 0.558-2.132-1.748-1.385 2.245-0.14z"></path>
</svg>
</svg>
