<?xml version="1.0" encoding="UTF-8"?>
<svg width="250px" height="250px" viewBox="0 0 250 250" version="1.1" xmlns="http://www.w3.org/2000/svg" xmlns:xlink="http://www.w3.org/1999/xlink">
    <!-- Generator: Sketch 58 (84663) - https://sketch.com -->
    <title>dv-logo</title>
    <desc>Created with Sketch.</desc>
    <defs>
        <filter x="-21.3%" y="-22.5%" width="142.6%" height="145.0%" filterUnits="objectBoundingBox" id="filter-1">
            <feOffset dx="1" dy="2" in="SourceAlpha" result="shadowOffsetOuter1"></feOffset>
            <feGaussianBlur stdDeviation="9.5" in="shadowOffsetOuter1" result="shadowBlurOuter1"></feGaussianBlur>
            <feColorMatrix values="0 0 0 0 0   0 0 0 0 0   0 0 0 0 0  0 0 0 0.377786276 0" type="matrix" in="shadowBlurOuter1" result="shadowMatrixOuter1"></feColorMatrix>
            <feMerge>
                <feMergeNode in="shadowMatrixOuter1"></feMergeNode>
                <feMergeNode in="SourceGraphic"></feMergeNode>
            </feMerge>
        </filter>
        <linearGradient x1="85.8668789%" y1="-14.9333643%" x2="35.1513179%" y2="128.908478%" id="linearGradient-2">
            <stop stop-color="#373737" offset="0%"></stop>
            <stop stop-color="#2B2D36" stop-opacity="0" offset="100%"></stop>
        </linearGradient>
        <path d="M120.395313,135.551191 C141.259067,126.366943 150,105.028218 150,90 C150,84.412544 148.439834,77.693557 145.378354,71.0188001 C138.42776,55.864849 123.738743,40.9388789 102,40 C78.4747176,40 65.9554023,40 60.4790056,40" id="path-3"></path>
        <filter x="-3.9%" y="-2.6%" width="105.6%" height="105.4%" filterUnits="objectBoundingBox" id="filter-4">
            <feMorphology radius="0.5" operator="dilate" in="SourceAlpha" result="shadowSpreadOuter1"></feMorphology>
            <feOffset dx="-1" dy="0" in="shadowSpreadOuter1" result="shadowOffsetOuter1"></feOffset>
            <feMorphology radius="1" operator="erode" in="SourceAlpha" result="shadowInner"></feMorphology>
            <feOffset dx="-1" dy="0" in="shadowInner" result="shadowInner"></feOffset>
            <feComposite in="shadowOffsetOuter1" in2="shadowInner" operator="out" result="shadowOffsetOuter1"></feComposite>
            <feGaussianBlur stdDeviation="0.5" in="shadowOffsetOuter1" result="shadowBlurOuter1"></feGaussianBlur>
            <feColorMatrix values="0 0 0 0 0   0 0 0 0 0   0 0 0 0 0  0 0 0 0.45 0" type="matrix" in="shadowBlurOuter1"></feColorMatrix>
        </filter>
    </defs>
    <g id="dv-logo" stroke="none" stroke-width="1" fill="none" fill-rule="evenodd">
        <rect fill="#1D1D2E" x="0" y="0" width="250" height="250"></rect>
        <g id="Group" filter="url(#filter-1)" transform="translate(30.000000, 35.000000)">
            <path d="M2.84217094e-14,-1.42108547e-14 L100,-1.42108547e-14 C145.844699,-1.42108547e-14 190,36.2088529 190,90 C190,138.166429 153.31797,178.293737 103.220209,179.947015 L103.198973,180 L70,180 L2.84217094e-14,-1.42108547e-14 Z M145.420225,71.1102971 L145.436531,71.3891365 L120.503964,135.503204 C141.289418,126.292804 150,105.002104 150,90 C150,84.438074 148.454059,77.7549338 145.420225,71.1102971 Z M102,40 L60,40 L86.6303812,106.575953 L86.6303812,106.575953 L112.590134,41.7171516 L112.799163,41.7148557 C109.419443,40.7613919 105.818478,40.164917 102,40 Z" id="Shape" fill="#373737"></path>
            <path d="M129.373893,-1.77635684e-14 C128.14699,2.91982015 127.533539,4.37973022 127.533539,4.37973022 C142.002277,9.61565655 153.878058,16.7561516 163.160882,25.8012153 L163.214611,25.6986542 L173.635534,-1.77635684e-14 L129.373893,-1.77635684e-14 Z" id="Rectangle-Copy" fill="#9EB300"></path>
            <g id="Oval">
                <use fill="black" fill-opacity="1" filter="url(#filter-4)" xlink:href="#path-3"></use>
                <use stroke="url(#linearGradient-2)" stroke-width="1" xlink:href="#path-3"></use>
            </g>
            <polygon id="Rectangle" fill="#E1FF00" transform="translate(43.319821, 81.679519) rotate(-360.000000) translate(-43.319821, -81.679519) " points="43.9109477 -1.13586676e-11 86.6396419 106.584984 63.4338178 163.359038 9.57019732e-12 -1.13586676e-11"></polygon>
        </g>
    </g>
</svg>