<svg width="185" height="65" viewBox="0 0 185 65" fill="none" xmlns="http://www.w3.org/2000/svg">
<g clip-path="url(#clip0)">
<path d="M49.1621 56.66C49.1621 58.776 48.2949 60.0027 46.6027 60.6538C40.0276 63.1913 32.24 64.4992 24.8321 64.4992C17.4251 64.4992 9.63771 63.1913 3.06063 60.6538C1.36919 60.0027 0.502014 58.776 0.502014 56.66V0.500656H49.1621V56.66Z" fill="#0051A5"/>
<path d="M13.5519 34.724C6.81631 30.5168 4.58981 28.6529 4.40132 25.8933C4.36967 25.3317 4.49645 24.3868 4.73149 23.7112L4.0966 23.2896C3.58752 24.0985 3.26569 25.1647 3.26569 26.1443C3.2648 27.7386 3.77574 28.9457 4.40132 29.9104C5.34864 31.3694 6.34446 32.2844 8.7958 34.1241C11.4401 36.1095 13.2424 38.4258 14.281 40.8496H14.6568V38.0983C18.2288 40.1264 21.3785 42.0362 22.9263 45.4458H23.3021C22.6951 41.9109 20.6978 39.1869 13.5519 34.724Z" fill="#FEDF01"/>
<path d="M44.5838 45.4515H44.1278C44.1278 42.9355 41.8229 42.2498 39.4079 42.2498H31.864C32.1063 43.4896 32.2202 44.9412 32.031 46.3124H31.6561C30.9568 40.66 27.7642 37.8595 23.3018 34.8631V37.435H22.9259C21.7409 34.781 19.133 32.2892 16.6649 30.5224H16.6659C16.0084 30.0531 15.3297 29.5671 14.6564 29.0875V31.862H14.2806C13.2346 29.1098 11.3344 27.0565 8.62568 24.6124C5.70082 21.977 4.51943 20.4003 3.83596 18.5868C3.42006 17.4888 3.30356 16.6007 3.28778 15.3944C3.26083 13.2376 4.3508 11.2898 5.70924 10.5601V11.605C5.03516 12.4988 4.68629 13.6276 4.68461 14.7751C4.68266 15.8329 4.93436 17.0112 5.46312 18.016C7.1097 21.1542 12.6583 25.0062 16.1828 27.3701C27.1404 34.7231 29.3278 36.0068 31.1479 39.9092C31.3502 40.3438 31.5526 40.9289 31.7212 41.6061C33.3046 41.3616 39.0463 40.4875 40.1055 40.3195C40.3077 40.2879 40.7321 40.2338 40.951 40.2208C41.9394 39.5947 42.7124 38.798 43.3913 37.8036L39.1908 37.477C38.9745 37.9594 38.759 38.3643 38.5698 38.6888H38.2286C38.3431 38.2617 38.4431 37.841 38.5278 37.4258L37.4556 37.3465V37.1179L38.6183 36.9742C38.8393 35.7848 38.9457 34.6606 38.968 33.6093L33.6775 33.3099C33.6486 33.8527 33.6439 34.3639 33.6617 34.8379H33.3232C33.2103 34.3099 33.1217 33.7856 33.0537 33.2733L31.8948 33.2072V32.8537L32.9958 32.7941C32.8421 31.3936 32.8318 30.0858 32.8887 28.9635L29.7958 28.8208C29.9414 29.0931 30.0923 29.3693 30.1987 29.6687C30.8663 31.5363 30.7078 33.7258 30.4869 34.7315H30.112C30.0579 33.5662 29.6663 32.139 29.2951 31.2677C28.4392 29.2499 26.5184 27.4672 23.3018 25.398V27.9765H22.9259C21.8555 24.5881 19.1916 22.7037 15.2309 20.6682C11.9629 18.9899 10.9466 16.9682 11.131 13.8375L12.2352 14.4915C12.5175 17.4198 14.7665 19.1084 17.119 19.0906C18.5036 19.0812 19.8016 18.8975 21.0566 18.6457C22.8672 18.2799 24.5428 17.9674 25.9423 18.4637V16.7342H24.843C24.4503 17.0736 23.6533 17.4693 22.4803 17.4869C21.1908 17.5111 18.7507 16.7678 18.7507 14.0399C18.7507 11.6713 20.7554 11.2934 22.3872 11.2934C23.2589 11.2934 24.7107 11.2607 25.202 11.2329C25.5675 11.2115 25.8407 11.1554 26.0178 10.98C26.2033 10.7982 26.2593 10.6106 26.3023 10.3689C26.3534 10.0751 26.3534 9.77373 26.3534 9.26624C26.3534 9.0796 26.3534 7.53665 26.3534 7.53665H18.7926V10.5323L15.9321 9.44356V8.72708H17.3018V7.53665H12.2016V5.04862H10.4615C9.53098 5.04862 8.46077 5.69972 8.38603 6.96281C8.31333 8.17374 8.85788 9.19341 10.1035 9.19341H10.3273V10.6431H10.1035C7.92084 10.6431 6.27524 9.00216 6.27524 6.82487C6.27524 4.55603 8.20712 2.8283 10.5418 2.8283H14.2304V5.31624H28.5716C28.5716 5.31624 28.5716 8.29047 28.5716 8.99276C28.5716 9.6122 28.5382 10.4444 28.4774 10.9706C28.4354 11.3522 28.2995 12.0415 27.575 12.5948C27.1385 12.9278 26.4793 13.0622 25.409 13.0669C25.0603 13.0686 24.043 13.0511 22.8244 12.9764C21.1908 12.8737 20.7273 13.5035 20.6612 14.0892C20.6462 14.2134 20.6481 14.3336 20.6612 14.4493C21.4266 13.856 22.5092 13.4381 23.7391 13.8242C25.9032 14.5054 26.5204 14.5659 27.6468 13.6798L27.7613 13.9335C27.6401 14.1219 27.423 14.3915 27.1068 14.6313H28.152V20.2967L31.4061 18.3459H40.539C40.539 18.3459 44.4001 20.3639 45.035 20.6969C45.5955 20.9918 45.8164 21.3481 45.9041 21.8716C45.9768 22.3091 45.8639 22.8631 45.6486 23.2176C45.5143 23.4388 44.4654 25.1591 43.9105 26.0779C45.4629 27.759 46.5111 30.1109 46.5111 32.7303C46.5111 35.1036 45.6337 38.1655 42.7833 40.4408C44.0365 40.8511 44.8403 41.5342 45.4696 42.4343L44.5838 45.4515ZM24.2191 14.9381C22.9363 14.6565 22.2212 14.8151 21.4835 15.5185C21.8444 15.6911 22.2966 15.7853 22.7963 15.749C23.5162 15.6986 23.9646 15.2666 24.2191 14.9381ZM23.478 23.101L27.0919 20.9339C26.3832 20.5805 25.5982 20.3565 24.6668 20.3442C23.4221 20.3248 21.3194 20.8985 20.3023 21.0542C20.7564 21.365 22.3713 22.3976 23.478 23.101ZM39.6168 23.3306L40.1176 22.6281L39.3419 21.5918L39.4713 21.3631L41.6532 22.5406L41.1777 23.9836C41.5283 24.1516 41.8527 24.3661 42.2845 24.6525L43.6934 22.3342L40.0438 20.4256H31.9777L25.4322 24.3661C26.662 25.2207 27.7931 26.1443 28.5968 27.0744C30.3507 24.521 33.4331 22.8912 36.484 22.8912C37.4817 22.8911 38.6443 22.9974 39.6168 23.3306ZM38.9596 32.4795C38.9185 31.2742 38.7665 30.1836 38.5651 29.2219L34.2919 29.0279C33.9972 30.3292 33.8053 31.5999 33.7138 32.7575L38.9596 32.4795ZM40.3991 29.3068C40.5363 30.4104 40.5502 31.4449 40.4804 32.4002L44.7142 32.1753C44.6061 31.2136 44.3329 30.3022 43.9227 29.4691L40.3991 29.3068ZM38.2397 27.9195C37.7988 26.3904 37.271 25.3269 36.9931 24.8259C36.8159 24.8157 36.637 24.811 36.4569 24.811C36.1596 24.811 35.8602 24.8492 35.5712 24.8809C35.1424 25.95 34.7945 27.0313 34.5101 28.1266L38.2397 27.9195ZM39.4154 25.353C39.7307 26.2002 39.9684 27.0228 40.1427 27.814L42.7311 27.6713C41.8417 26.648 40.7049 25.8439 39.4154 25.353ZM44.1773 36.2773C44.4803 35.5421 44.6751 34.834 44.7284 33.9385L40.3283 33.6885C40.1297 34.9208 39.8015 35.9938 39.4518 36.8724L44.1773 36.2773ZM33.3241 25.5229C31.8499 26.1843 30.8346 27.0808 29.9283 28.369L32.9399 28.2114C33.0482 26.8737 33.2234 25.9857 33.3241 25.5229Z" fill="#FEDF01"/>
<path d="M27.7355 51.9547C28.9626 51.755 30.1366 50.7997 30.1366 49.3555C30.1366 48.0533 29.5836 46.623 25.7525 46.623C22.8872 46.623 19.2889 46.623 19.2889 46.623V46.7275C19.4847 46.7874 19.7935 46.9459 19.9957 47.1465C20.4349 47.5756 20.5795 48.2174 20.6008 49.0682V58.7498C20.6008 58.7498 24.1421 58.7498 25.9575 58.7498C28.904 58.7498 31.0364 57.6256 31.0364 55.05C31.0364 52.9556 29.4073 52.0637 27.7355 51.9547ZM24.9794 47.7789C26.3501 47.7789 27.2797 48.0757 27.2797 49.5403C27.2797 51.1011 26.0339 51.5311 24.613 51.5311C23.924 51.5311 23.3888 51.5311 23.3888 51.5311V47.7789C23.3888 47.7789 24.1551 47.7789 24.9794 47.7789ZM25.1175 57.6032C24.5374 57.6032 23.3888 57.6032 23.3888 57.6032V52.6525C23.3888 52.6525 24.3287 52.6525 25.038 52.6525C27.304 52.6525 28.1737 53.3278 28.1737 55.0276C28.1737 56.8664 27.0392 57.6032 25.1175 57.6032Z" fill="white"/>
<path d="M14.5189 58.7499H18.0088L13.5501 53.047C15.3375 52.5685 16.6764 51.5908 16.6764 49.8138C16.6764 47.7269 15.4288 46.6231 12.1644 46.6231C9.27032 46.6231 5.42242 46.6231 5.42242 46.6231V46.7276C5.6704 46.8163 5.94826 46.9768 6.1301 47.1558C6.60194 47.6214 6.74265 48.3323 6.74265 49.2932C6.74265 49.296 6.74265 58.7499 6.74265 58.7499H9.54268V53.3745C9.54268 53.3745 10.1506 53.3745 10.5647 53.3745L14.5189 58.7499ZM9.54268 47.7789C9.54268 47.7789 10.6064 47.7789 11.4289 47.7789C12.9991 47.7789 13.8187 48.2378 13.8187 49.9079C13.8187 51.3968 12.7463 52.2783 11.0269 52.2783C10.338 52.2783 9.54268 52.2783 9.54268 52.2783V47.7789Z" fill="white"/>
<path d="M42.3576 48.2846C43.1063 48.7099 43.3337 49.2649 43.3384 49.2697C43.3748 49.3108 43.455 49.2977 43.455 49.2977L44.0647 47.2239C44.0647 47.2239 42.9702 46.4375 40.3669 46.4375C36.4265 46.4375 33.4764 48.4236 33.4764 52.7689C33.4764 57.6658 36.9905 58.9372 40.0881 58.9372C42.9702 58.9372 44.102 58.0203 44.102 58.0203V56.5976C44.102 56.5976 43.0838 57.5492 40.9012 57.5492C39.097 57.5492 36.4517 56.7254 36.3948 52.699C36.3417 48.9834 37.9612 47.7705 40.1318 47.7705C41.3411 47.7706 41.9462 48.0533 42.3576 48.2846Z" fill="white"/>
<path d="M55.4684 63.5291C53.8069 63.5291 52.4418 62.1885 52.4418 60.4869C52.4418 58.7936 53.8069 57.4437 55.4684 57.4437C57.1261 57.4437 58.4912 58.7936 58.4912 60.4869C58.4912 62.1885 57.1261 63.5291 55.4684 63.5291ZM55.4684 58.0484C54.1724 58.0484 53.1374 59.1295 53.1374 60.487C53.1374 61.8461 54.1724 62.9405 55.4684 62.9405C56.7588 62.9405 57.8069 61.8461 57.8069 60.487C57.8069 59.1294 56.7588 58.0484 55.4684 58.0484ZM55.6715 58.7611C56.2777 58.7611 56.6767 59.1612 56.6767 59.7573C56.6767 60.2743 56.3336 60.6921 55.9177 60.6995C55.9794 60.7555 56.0147 60.7882 56.0558 60.847C56.2515 61.0923 56.8707 62.1716 56.8707 62.1716H56.0632C55.9326 61.9422 55.8769 61.8535 55.7443 61.6073C55.4087 60.9953 55.3024 60.8312 55.1793 60.7723C55.1457 60.7639 55.1178 60.748 55.0712 60.748V62.1716H54.4054V58.7611H55.6715V58.7611ZM55.0712 60.2322H55.3024C55.5971 60.2322 55.7258 60.1996 55.8171 60.1183C55.8992 60.0381 55.9458 59.9141 55.9458 59.775C55.9458 59.5633 55.8692 59.4225 55.7033 59.3581C55.6305 59.3329 55.4833 59.3086 55.3193 59.3086H55.0712V60.2322Z" fill="#0051A5"/>
<path d="M84.6038 17.4873H82.476L80.6293 10.2552C80.5591 10.0088 80.4886 9.65709 80.4708 9.49857C80.4535 9.65709 80.4007 10.0088 80.3301 10.2379L78.4838 17.4874H76.3206L72.5391 5.36335H75.0543L77.7453 14.1439C77.8154 14.3903 77.8855 14.7424 77.9033 14.9005C77.921 14.7424 77.9911 14.3903 78.044 14.1616L79.873 5.36327H81.6142L84.006 14.1616C84.0589 14.3903 84.129 14.7424 84.1467 14.9005C84.1645 14.7424 84.2697 14.3903 84.3403 14.1439L85.2195 10.7831C85.7645 8.7946 86.1342 6.92955 86.2394 5.36327H88.526L84.6038 17.4873Z" fill="#0051A5"/>
<path d="M93.8004 17.8216C91.0744 17.8216 89.1398 15.7274 89.1398 12.9826C89.1398 10.2023 91.1272 8.12584 93.7649 8.12584C95.9281 8.12584 97.8628 9.48109 97.8628 12.1029C97.8628 12.2787 97.8451 12.6833 97.81 13.0003L91.4788 13.1234C91.6545 15.059 92.7627 16.4139 94.2399 16.4139C95.084 16.4139 95.9637 16.0973 96.9836 15.4814L97.6166 16.572C96.2273 17.54 95.0139 17.8216 93.8004 17.8216ZM95.4359 11.6979C95.4532 10.2201 94.6969 9.44561 93.8004 9.44561C92.7273 9.44561 91.7952 10.3608 91.6017 11.8742L95.4359 11.6979Z" fill="#0051A5"/>
<path d="M108.203 17.4873H107.693C107.359 17.3115 107.113 17.2235 106.796 17.2235C106.55 17.2235 106.268 17.3287 105.952 17.4521C105.477 17.628 104.879 17.8216 104.141 17.8216C102.435 17.8216 101.098 16.977 100.395 15.71C99.9723 14.9356 99.7966 13.9858 99.7966 13.0355C99.7966 11.1348 100.553 9.85064 101.678 8.9705C102.47 8.37235 103.507 8.0908 104.475 8.0908C105.284 8.0908 106.163 8.31948 106.656 8.49574L108.203 8.14358V17.4873H108.203ZM104.545 9.48118C103.297 9.48118 102.118 10.5718 102.118 12.9298C102.118 14.3197 102.453 15.358 103.138 15.9388C103.455 16.2381 103.877 16.4491 104.387 16.4491C105.002 16.4491 105.671 16.1325 105.952 15.8686V9.88577C105.512 9.60412 104.967 9.48118 104.545 9.48118Z" fill="#0051A5"/>
<path d="M113.32 17.4873H111.087V3.79751H113.32V17.4873Z" fill="#0051A5"/>
<path d="M121.479 16.6603C120.618 17.2235 119.369 17.7159 118.279 17.7159C117.698 17.7159 117.135 17.54 116.749 17.1C116.414 16.7132 116.239 16.1146 116.239 15.3055V5.71542L118.454 5.17014V8.35496H120.952V9.70977H118.454V15.1469C118.454 15.833 118.806 16.0617 119.263 16.0617C119.826 16.0617 120.67 15.7272 121.057 15.5514L121.479 16.6603Z" fill="#0051A5"/>
<path d="M129.235 17.4873V12.3845C129.235 11.4694 129.112 10.801 128.865 10.396C128.531 9.85073 127.968 9.63934 127.371 9.63934C126.737 9.63934 126.157 9.85073 125.682 10.1145V17.4873H123.449V3.79751H125.682V8.49574C125.964 8.39009 126.632 8.07341 127.722 8.07341C129.094 8.07341 130.202 8.70669 130.87 9.70978C131.292 10.3781 131.468 11.2934 131.468 12.2965V17.4872H129.235V17.4873Z" fill="#0051A5"/>
<path d="M87.5232 38.1179H85.1842L84.076 27.9825L81.3678 38.1179H79.4336L76.7426 27.9825L75.617 38.1179H73.278L74.5971 28.4226C74.6849 27.6308 74.5971 26.9972 74.2802 26.5926C74.1222 26.3635 73.788 26.1703 73.4888 26.1525V25.994H77.8503L80.2599 34.9153C80.33 35.144 80.4006 35.4433 80.4179 35.6192C80.4356 35.4434 80.4885 35.1618 80.5591 34.9331L82.9682 25.9941H86.0457L87.5232 38.1179Z" fill="#0051A5"/>
<path d="M97.8454 38.1179H97.3354C97.0012 37.9421 96.7549 37.8541 96.4385 37.8541C96.1922 37.8541 95.9108 37.9594 95.5944 38.0828C95.1195 38.2586 94.5216 38.4523 93.7831 38.4523C92.077 38.4523 90.7402 37.6077 90.0371 36.3407C89.6146 35.5663 89.4388 34.6164 89.4388 33.6661C89.4388 31.7655 90.1951 30.4813 91.3207 29.6016C92.1121 29.003 93.1498 28.7215 94.1168 28.7215C94.926 28.7215 95.8052 28.9502 96.2979 29.1264L97.8455 28.7742V38.1179H97.8454ZM94.1873 30.1118C92.9388 30.1118 91.7605 31.2025 91.7605 33.5605C91.7605 34.9509 92.0947 35.9886 92.7804 36.5695C93.0968 36.8688 93.5189 37.0797 94.0289 37.0797C94.6445 37.0797 95.3129 36.7631 95.5943 36.4989V30.5164C95.1545 30.2349 94.6094 30.1118 94.1873 30.1118Z" fill="#0051A5"/>
<path d="M106.268 38.1179V32.9974C106.268 32.0999 106.163 31.4312 105.899 31.0266C105.565 30.4813 105.02 30.2699 104.387 30.2699C103.754 30.2699 103.173 30.4986 102.786 30.6922V38.1179H100.553V28.9857H101.063C101.485 29.1789 101.713 29.2495 101.942 29.2495C102.259 29.2495 102.54 29.1789 102.875 29.0737C103.332 28.9152 103.877 28.7043 104.756 28.7043C106.146 28.7043 107.253 29.2847 107.904 30.2878C108.344 30.9566 108.502 31.8363 108.502 32.839V38.1181H106.268V38.1179Z" fill="#0051A5"/>
<path d="M119.053 38.1179H118.544C118.209 37.9421 117.963 37.8541 117.647 37.8541C117.4 37.8541 117.119 37.9594 116.802 38.0828C116.328 38.2586 115.73 38.4523 114.991 38.4523C113.285 38.4523 111.948 37.6077 111.245 36.3407C110.823 35.5663 110.647 34.6164 110.647 33.6661C110.647 31.7655 111.403 30.4813 112.529 29.6016C113.32 29.003 114.358 28.7215 115.325 28.7215C116.134 28.7215 117.013 28.9502 117.506 29.1264L119.054 28.7742V38.1179H119.053ZM115.395 30.1118C114.147 30.1118 112.969 31.2025 112.969 33.5605C112.969 34.9509 113.303 35.9886 113.988 36.5695C114.305 36.8688 114.727 37.0797 115.237 37.0797C115.853 37.0797 116.521 36.7631 116.802 36.4989V30.5164C116.363 30.2349 115.818 30.1118 115.395 30.1118Z" fill="#0051A5"/>
<path d="M128.619 30.1998C128.989 30.6394 129.358 31.2908 129.358 32.3113C129.358 34.2821 127.705 35.8479 125.401 35.8479C124.979 35.8479 124.522 35.7777 124.1 35.672C123.766 35.9536 123.59 36.2 123.59 36.4287C123.59 36.6574 123.731 36.7982 123.994 36.8688C124.346 36.9918 125.331 37.0269 126.017 37.062C128.233 37.1503 130.361 37.6428 130.361 39.9831C130.361 40.7393 130.009 41.5311 129.323 42.1471C128.374 43.0272 126.984 43.4144 125.612 43.4144C122.394 43.4144 121.04 42.3056 121.04 40.8979C121.04 39.9832 121.937 39.2091 122.799 38.9276H123.379C122.957 39.6132 122.834 40.1234 122.834 40.5289C122.834 41.4965 123.713 42.1298 125.454 42.1298C126.755 42.1298 128.233 41.5667 128.233 40.4051C128.233 39.3322 126.808 39.1741 125.454 39.0684C124.944 39.0329 123.819 39.0329 122.922 38.6635C122.218 38.3997 121.673 37.9068 121.673 37.115C121.673 36.429 122.06 35.7602 122.957 35.0915C122.007 34.3703 121.48 33.4377 121.48 32.2938C121.48 30.3231 123.115 28.7396 125.401 28.7396C126.281 28.7396 126.931 28.9505 127.283 29.1619C128.268 28.9505 129.376 28.3524 129.745 28.0006L130.519 29.5314C130.132 29.7948 129.165 30.0941 128.619 30.1998ZM125.419 30.0235C124.328 30.0235 123.713 30.9916 123.713 32.2936C123.713 33.5956 124.328 34.5637 125.419 34.5637C126.509 34.5637 127.142 33.5956 127.142 32.2936C127.142 30.9916 126.509 30.0235 125.419 30.0235Z" fill="#0051A5"/>
<path d="M136.287 38.4523C133.561 38.4523 131.626 36.3584 131.626 33.6133C131.626 30.8329 133.613 28.7569 136.251 28.7569C138.414 28.7569 140.349 30.1118 140.349 32.7336C140.349 32.9094 140.331 33.314 140.296 33.631L133.965 33.754C134.141 35.6897 135.249 37.0446 136.726 37.0446C137.57 37.0446 138.449 36.728 139.469 36.112L140.102 37.2031C138.713 38.1707 137.5 38.4523 136.287 38.4523ZM137.922 32.3286C137.939 30.8508 137.183 30.0763 136.287 30.0763C135.213 30.0763 134.281 30.9915 134.088 32.5049L137.922 32.3286Z" fill="#0051A5"/>
<path d="M153.091 38.1179V32.7864C153.091 32.0471 152.986 31.484 152.81 31.1145C152.528 30.6043 151.948 30.305 151.438 30.305C150.893 30.305 150.366 30.5164 149.943 30.7979C150.066 31.238 150.084 31.8011 150.084 32.54V38.1179H147.868V32.1528C147.868 31.7305 147.85 31.326 147.692 31.0093C147.482 30.5692 147.042 30.2699 146.426 30.2699C145.758 30.2699 145.248 30.5515 144.861 30.7802V38.1179H142.627V28.9857H142.908C143.331 29.1789 143.577 29.2495 143.876 29.2495C144.632 29.2495 145.354 28.7216 146.672 28.7216C147.973 28.7216 148.677 29.1789 149.082 29.5488C150.032 28.968 150.858 28.7216 151.843 28.7216C152.986 28.7216 154.147 29.1789 154.798 30.27C155.167 30.921 155.325 31.7834 155.325 32.7865V38.118H153.091V38.1179Z" fill="#0051A5"/>
<path d="M162.182 38.4523C159.457 38.4523 157.522 36.3584 157.522 33.6133C157.522 30.8329 159.509 28.7569 162.147 28.7569C164.31 28.7569 166.245 30.1118 166.245 32.7336C166.245 32.9094 166.227 33.314 166.192 33.631L159.861 33.754C160.037 35.6897 161.145 37.0446 162.622 37.0446C163.466 37.0446 164.345 36.728 165.366 36.112L165.999 37.2031C164.609 38.1707 163.396 38.4523 162.182 38.4523ZM163.818 32.3286C163.835 30.8508 163.079 30.0763 162.182 30.0763C161.109 30.0763 160.177 30.9915 159.984 32.5049L163.818 32.3286Z" fill="#0051A5"/>
<path d="M174.239 38.1179V32.9974C174.239 32.0999 174.133 31.4312 173.87 31.0266C173.536 30.4813 172.99 30.2699 172.357 30.2699C171.724 30.2699 171.143 30.4986 170.756 30.6922V38.1179H168.523V28.9857H169.033C169.455 29.1789 169.684 29.2495 169.912 29.2495C170.229 29.2495 170.51 29.1789 170.845 29.0737C171.302 28.9152 171.847 28.7043 172.726 28.7043C174.116 28.7043 175.224 29.2847 175.874 30.2878C176.314 30.9566 176.472 31.8363 176.472 32.839V38.1181H174.239V38.1179Z" fill="#0051A5"/>
<path d="M184.342 37.291C183.48 37.8541 182.232 38.3465 181.141 38.3465C180.561 38.3465 179.998 38.1707 179.611 37.7306C179.277 37.3434 179.101 36.7453 179.101 35.9358V26.3462L181.317 25.8005V28.9857H183.814V30.3405H181.317V35.7777C181.317 36.4637 181.669 36.6924 182.126 36.6924C182.689 36.6924 183.533 36.3584 183.92 36.1822L184.342 37.291Z" fill="#0051A5"/>
</g>
<defs>
<clipPath id="clip0">
<rect width="184.844" height="65" fill="white"/>
</clipPath>
</defs>
</svg>
