<svg width="70" height="94" viewBox="0 0 70 94" fill="none" xmlns="http://www.w3.org/2000/svg">
<path d="M25.3672 27.5128C25.3672 22.1343 29.6894 17.7652 35.0281 17.7652C40.3667 17.7652 44.6889 22.1262 44.6889 27.5128C44.6889 32.8914 40.3667 37.2604 35.0281 37.2604C29.6894 37.2524 25.3672 32.8914 25.3672 27.5128Z" stroke="#B8A970" stroke-width="2" stroke-miterlimit="10"/>
<path d="M9.01508 1.6861V7.66227" stroke="#6F6E6F" stroke-width="2" stroke-miterlimit="10" stroke-linecap="round"/>
<path d="M22.0056 1.6861V7.66227" stroke="#6F6E6F" stroke-width="2" stroke-miterlimit="10" stroke-linecap="round"/>
<path d="M34.996 1.6861V7.66227" stroke="#6F6E6F" stroke-width="2" stroke-miterlimit="10" stroke-linecap="round"/>
<path d="M47.9785 1.6861V7.66227" stroke="#6F6E6F" stroke-width="2" stroke-miterlimit="10" stroke-linecap="round"/>
<path d="M60.969 1.6861V7.66227" stroke="#6F6E6F" stroke-width="2" stroke-miterlimit="10" stroke-linecap="round"/>
<path d="M7.27021 8.14679C4.18067 8.14679 1.67542 10.6745 1.67542 13.7918V92.0474H0.971069L53.9895 92.3139L54.0535 42.3805H38.3097L41.1431 64.9123L36.4127 72.1483L31.7224 64.9123L34.5558 42.3805H18.812L18.876 69.7902C18.876 72.1241 20.7649 74.03 23.0861 74.03L23.5183 74.0623H24.1906" stroke="#6F6E6F" stroke-width="2" stroke-miterlimit="10"/>
<path d="M62.7378 92.3139C65.8274 92.3139 68.3326 89.7861 68.3326 86.6688L68.0284 8.35678L8.22266 8.09027" stroke="#6F6E6F" stroke-width="2" stroke-miterlimit="10"/>
</svg>
