<svg width="73" height="100" viewBox="0 0 73 100" fill="none" xmlns="http://www.w3.org/2000/svg">
<path d="M27.6349 78.0024H62.1801" stroke="#6F6E6F" stroke-width="2" stroke-miterlimit="10"/>
<path d="M66.2248 78.0024C69.0495 78.0024 71.337 75.715 71.337 72.8906V1.66302H15.3751C12.5505 1.66302 10.2629 3.95042 10.2629 6.77486V54.061" stroke="#6F6E6F" stroke-width="2" stroke-miterlimit="10"/>
<path d="M18.9954 30.6632H63.6455" stroke="#6F6E6F" stroke-width="2" stroke-miterlimit="10"/>
<path d="M18.9954 21.3611H63.6455" stroke="#6F6E6F" stroke-width="2" stroke-miterlimit="10"/>
<path d="M18.9954 39.5012H63.6455" stroke="#6F6E6F" stroke-width="2" stroke-miterlimit="10"/>
<path d="M18.9954 48.3392H63.6455" stroke="#6F6E6F" stroke-width="2" stroke-miterlimit="10"/>
<path d="M41.3204 57.1838H63.6455" stroke="#6F6E6F" stroke-width="2" stroke-miterlimit="10"/>
<path d="M24.0412 80.8865L26.5542 97.2032L16.7078 88.2128L7.12 97.2032L9.63298 80.8865" stroke="#B8A970" stroke-width="2" stroke-miterlimit="10"/>
<path d="M16.8404 82.6634C25.2226 82.6634 32.0178 76.0141 32.0178 67.8119C32.0178 59.6096 25.2226 52.9604 16.8404 52.9604C8.45821 52.9604 1.66309 59.6096 1.66309 67.8119C1.66309 76.0141 8.45821 82.6634 16.8404 82.6634Z" stroke="#B8A970" stroke-width="2" stroke-miterlimit="10"/>
<path d="M14.281 64.9808L16.8006 58.5629L19.3932 64.9543L26.4083 65.319L20.9978 69.7015L22.8145 76.3449L16.8802 72.6652L10.9856 76.4112L12.7294 69.7479L7.26587 65.4184L14.281 64.9808Z" stroke="#B8A970" stroke-width="2" stroke-miterlimit="10"/>
</svg>
