<svg width="250" height="250" viewBox="0 0 250 250" fill="none" xmlns="http://www.w3.org/2000/svg">
<path fill-rule="evenodd" clip-rule="evenodd" d="M250 0H0V250H250V0ZM198.242 160.456C220.271 169.391 227.709 178.968 229.539 190.375C231.298 200.19 229.111 206.559 228.779 207.51C220.651 235.314 175.333 236.217 157.225 217.847C156.675 217.225 156.154 216.646 155.659 216.096C152.711 212.816 150.67 210.547 148.717 206.274L148.731 206.266C158.342 200.737 158.346 200.734 167.704 195.319C172.79 203.137 177.495 207.438 185.955 209.197C197.434 210.599 208.983 206.654 206.393 194.463C204.85 188.69 197.196 185.449 188.271 181.67C181.802 178.931 174.665 175.909 168.703 171.435C154.301 161.763 150.927 138.26 162.761 124.834C166.706 119.867 173.432 116.16 180.49 114.377C181.707 114.224 182.931 114.064 184.155 113.904C185.391 113.743 186.627 113.582 187.857 113.427C201.996 113.142 210.837 116.873 217.324 124.121C219.13 125.95 220.604 127.923 223.36 132.201C221.806 133.191 220.573 133.975 219.501 134.657C215.377 137.281 213.625 138.395 205.062 143.94C202.757 138.973 198.931 135.86 194.891 134.506C188.617 132.604 180.703 134.672 179.064 141.302C178.493 143.346 178.612 145.247 179.515 148.621C181.573 153.315 187.555 155.86 193.818 158.524C195.292 159.152 196.783 159.786 198.242 160.456ZM112.524 114.9H135.908C135.908 122.074 135.921 129.24 135.934 136.401C135.961 150.707 135.987 164.992 135.908 179.277C135.915 181.217 135.946 183.129 135.976 185.011C136.151 195.881 136.31 205.75 131.773 214.116C128.089 221.602 121.055 226.521 112.904 228.897C100.38 231.772 88.4031 230.133 79.4915 224.786C73.5267 221.126 68.8691 215.494 65.7083 209.007C68.8766 207.072 72.0391 205.132 75.2016 203.192C78.3724 201.247 81.5431 199.301 84.7197 197.362C84.868 197.425 85.28 198.149 85.8383 199.128C85.907 199.249 85.9778 199.373 86.0507 199.501C88.4746 203.564 90.5659 206.44 94.6771 208.46C98.717 209.838 107.581 210.717 111.003 203.612C112.671 200.73 112.585 192.646 112.482 182.967C112.456 180.513 112.429 177.956 112.429 175.356C112.429 165.256 112.453 155.192 112.476 145.128C112.5 135.064 112.524 125 112.524 114.9Z" fill="#B9F18C"/>
</svg>
