<svg width="281" height="250" viewBox="0 0 281 250" fill="none" xmlns="http://www.w3.org/2000/svg">
<path d="M280.728 125.029C280.728 106.432 257.439 88.8075 221.733 77.8782C229.973 41.4855 226.31 12.5315 210.174 3.26161C206.455 1.0872 202.106 0.0572205 197.356 0.0572205V12.8176C199.989 12.8176 202.106 13.3326 203.88 14.3053C211.662 18.7686 215.038 35.7633 212.406 57.6219C211.776 63.0007 210.746 68.6656 209.487 74.445C198.272 71.6983 186.027 69.5811 173.152 68.2078C165.427 57.6219 157.416 48.0087 149.348 39.5972C168.002 22.2591 185.512 12.7604 197.414 12.7604V0C181.678 0 161.078 11.2154 140.249 30.6706C119.421 11.3298 98.8212 0.228886 83.0854 0.228886V12.9892C94.9302 12.9892 112.497 22.4308 131.151 39.6544C123.14 48.0659 115.129 57.6219 107.519 68.2078C94.5869 69.5811 82.3415 71.6983 71.1261 74.5022C69.81 68.78 68.8373 63.2296 68.1506 57.908C65.4612 36.0494 68.78 19.0547 76.5049 14.5342C78.2216 13.5042 80.4532 13.0465 83.0854 13.0465V0.286107C78.2788 0.286107 73.93 1.31609 70.1534 3.4905C54.0742 12.7604 50.4692 41.6571 58.7663 77.9354C23.1746 88.9219 0 106.489 0 125.029C0 143.626 23.2891 161.25 58.9952 172.179C50.7553 208.572 54.4175 237.526 70.5539 246.796C74.2733 248.97 78.6221 250 83.4287 250C99.1646 250 119.764 238.785 140.593 219.329C161.421 238.67 182.021 249.771 197.757 249.771C202.564 249.771 206.912 248.741 210.689 246.567C226.768 237.297 230.373 208.4 222.076 172.122C257.553 161.192 280.728 143.568 280.728 125.029V125.029ZM206.226 86.862C204.108 94.2435 201.476 101.854 198.501 109.464C196.155 104.887 193.694 100.309 191.005 95.7313C188.373 91.1536 185.569 86.6903 182.765 82.3415C190.89 83.5431 198.73 85.0309 206.226 86.862ZM180.018 147.803C175.555 155.528 170.977 162.852 166.228 169.661C157.702 170.405 149.062 170.806 140.364 170.806C131.724 170.806 123.083 170.405 114.614 169.718C109.865 162.909 105.23 155.642 100.767 147.974C96.4179 140.478 92.4697 132.868 88.8647 125.2C92.4125 117.533 96.418 109.865 100.71 102.369C105.173 94.6441 109.751 87.3197 114.5 80.5104C123.026 79.7665 131.666 79.366 140.364 79.366C149.004 79.366 157.645 79.7665 166.114 80.4532C170.863 87.2625 175.498 94.5296 179.961 102.197C184.31 109.693 188.258 117.304 191.863 124.971C188.258 132.639 184.31 140.307 180.018 147.803ZM198.501 140.364C201.591 148.032 204.223 155.699 206.397 163.138C198.901 164.969 191.005 166.514 182.822 167.716C185.626 163.31 188.43 158.789 191.062 154.154C193.694 149.577 196.155 144.942 198.501 140.364ZM140.478 201.419C135.157 195.926 129.835 189.803 124.571 183.108C129.721 183.337 134.985 183.509 140.307 183.509C145.686 183.509 151.007 183.394 156.214 183.108C151.064 189.803 145.743 195.926 140.478 201.419ZM97.9057 167.716C89.7803 166.514 81.9409 165.026 74.445 163.195C76.5621 155.814 79.1943 148.203 82.1698 140.593C84.5159 145.171 86.9764 149.748 89.6658 154.326C92.3552 158.904 95.1019 163.367 97.9057 167.716ZM140.192 48.6381C145.514 54.1314 150.835 60.2541 156.1 66.949C150.95 66.7201 145.686 66.5484 140.364 66.5484C134.985 66.5484 129.664 66.6628 124.456 66.949C129.606 60.2541 134.928 54.1314 140.192 48.6381ZM97.8485 82.3415C95.0446 86.7475 92.2408 91.268 89.6086 95.903C86.9764 100.481 84.5159 105.058 82.1698 109.636C79.0799 101.968 76.4477 94.3008 74.2733 86.862C81.7693 85.0881 89.6658 83.5431 97.8485 82.3415V82.3415ZM46.0632 153.983C25.8068 145.342 12.7031 134.012 12.7031 125.029C12.7031 116.045 25.8068 104.658 46.0632 96.0746C50.9842 93.9574 56.363 92.0691 61.9135 90.2953C65.1751 101.511 69.4667 113.184 74.7883 125.143C69.5239 137.045 65.2896 148.661 62.0852 159.819C56.4202 158.045 51.0414 156.1 46.0632 153.983ZM76.8483 235.752C69.0662 231.289 65.6901 214.294 68.3223 192.435C68.9517 187.057 69.9817 181.392 71.2406 175.612C82.456 178.359 94.7013 180.476 107.576 181.849C115.301 192.435 123.312 202.049 131.38 210.46C112.726 227.798 95.2163 237.297 83.3143 237.297C80.7393 237.24 78.5649 236.725 76.8483 235.752V235.752ZM212.577 192.149C215.267 214.008 211.948 231.003 204.223 235.523C202.506 236.553 200.275 237.011 197.642 237.011C185.798 237.011 168.231 227.569 149.577 210.346C157.588 201.934 165.599 192.378 173.209 181.792C186.141 180.419 198.386 178.302 209.602 175.498C210.918 181.277 211.948 186.828 212.577 192.149V192.149ZM234.607 153.983C229.686 156.1 224.308 157.988 218.757 159.762C215.496 148.547 211.204 136.873 205.882 124.914C211.147 113.012 215.381 101.396 218.586 90.238C224.25 92.0119 229.629 93.9574 234.665 96.0746C254.921 104.715 268.025 116.045 268.025 125.029C267.967 134.012 254.864 145.399 234.607 153.983V153.983Z" fill="#B9F18C"/>
<path d="M140.307 151.179C154.749 151.179 166.457 139.471 166.457 125.029C166.457 110.586 154.749 98.8784 140.307 98.8784C125.864 98.8784 114.157 110.586 114.157 125.029C114.157 139.471 125.864 151.179 140.307 151.179Z" fill="#B9F18C"/>
</svg>
