<svg width="226" height="249" viewBox="0 0 226 249" fill="none" xmlns="http://www.w3.org/2000/svg">
<path d="M102.749 2.65559C108.921 -0.877213 116.96 -0.893171 123.127 2.65559C154.151 20.1857 185.184 37.6884 216.203 55.2292C222.037 58.5156 225.94 65.0085 225.88 71.731V177.199C225.924 184.2 221.636 190.848 215.48 194.06C184.558 211.493 153.652 228.948 122.736 246.382C116.436 249.984 108.236 249.706 102.133 245.809C92.8625 240.435 83.5761 235.087 74.3049 229.719C72.4104 228.589 70.2747 227.69 68.9369 225.853C70.1196 224.259 72.2339 224.061 73.952 223.365C77.8217 222.134 81.3758 220.159 84.9307 218.243C85.8297 217.627 86.9272 217.863 87.7889 218.414C95.7162 222.959 103.573 227.636 111.527 232.138C113.224 233.118 114.942 231.817 116.393 231.009C146.737 213.859 177.118 196.774 207.456 179.618C208.581 179.078 209.202 177.884 209.111 176.653C209.132 141.861 209.116 107.063 209.121 72.2718C209.25 70.8746 208.441 69.59 207.178 69.0182C176.363 51.6645 145.565 34.2842 114.755 16.926C114.221 16.559 113.589 16.3621 112.941 16.3612C112.294 16.3602 111.661 16.5553 111.126 16.9207C80.3164 34.2842 49.5229 51.6804 18.7135 69.0333C17.4547 69.606 16.6098 70.8693 16.7596 72.2718C16.765 107.063 16.7596 141.861 16.7596 176.658C16.7062 177.259 16.8382 177.862 17.1377 178.385C17.4373 178.909 17.8901 179.328 18.4352 179.587C26.6568 184.249 34.8891 188.878 43.116 193.524C47.7508 196.019 53.4414 197.501 58.5478 195.59C63.054 193.974 66.2127 189.376 66.1267 184.591C66.1692 150.002 66.1054 115.408 66.1586 80.825C66.046 79.2895 67.5026 78.0209 68.9955 78.1654C72.9458 78.1388 76.9015 78.1122 80.8518 78.176C82.5008 78.1388 83.6355 79.7922 83.4316 81.3391C83.4157 116.147 83.4742 150.955 83.405 185.763C83.4157 195.04 79.6045 205.134 71.0238 209.673C60.4529 215.149 47.3873 213.987 36.944 208.736C27.9033 204.224 19.2756 198.899 10.3953 194.064C4.22417 190.87 -0.0426767 184.196 0.000763032 177.2V71.731C-0.0639533 64.8693 3.99367 58.2585 10.0096 55.02C40.9263 37.5723 71.8377 20.1113 102.749 2.65559Z" fill="#B9F18C"/>
<path d="M129.721 75.7141C143.205 74.8462 157.64 75.2 169.774 81.8427C179.168 86.9331 184.377 97.6166 184.542 108.054C184.28 109.461 182.808 110.238 181.464 110.141C177.552 110.136 173.639 110.195 169.727 110.115C168.067 110.179 167.103 108.649 166.894 107.181C165.77 102.188 163.047 97.2416 158.347 94.8329C151.131 91.2203 142.765 91.4021 134.897 91.4774C129.153 91.7824 122.977 92.2797 118.111 95.6574C114.375 98.2159 113.24 103.381 114.573 107.54C115.831 110.527 119.278 111.491 122.099 112.379C138.349 116.629 155.569 116.206 171.509 121.799C178.108 124.079 184.564 128.512 186.823 135.422C189.777 144.682 188.482 155.751 181.894 163.186C176.55 169.304 168.768 172.633 161.007 174.442C150.682 176.744 139.966 176.803 129.48 175.781C119.62 174.657 109.36 172.066 101.748 165.348C95.2392 159.696 92.0602 150.891 92.3758 142.391C92.4511 140.956 93.8802 139.955 95.2552 140.073C99.1949 140.041 103.135 140.031 107.074 140.079C108.648 139.966 109.815 141.326 109.895 142.809C110.622 147.567 112.41 152.561 116.559 155.382C124.566 160.547 134.613 160.194 143.782 160.338C151.378 160.001 159.904 159.899 166.103 154.879C169.373 152.016 170.342 147.225 169.458 143.103C168.501 139.624 164.861 138.002 161.735 136.942C145.693 131.868 128.281 133.709 112.394 127.97C105.945 125.691 99.7082 121.382 97.2304 114.756C93.7729 105.378 95.3571 93.7789 102.636 86.5953C109.734 79.45 119.979 76.6982 129.721 75.7133V75.7141Z" fill="#B9F18C"/>
</svg>
