<svg width="400" height="140" viewBox="0 0 400 140" fill="none" xmlns="http://www.w3.org/2000/svg">
<path d="M47.1601 0H69.0356V101.255C57.8138 103.386 49.5747 104.238 40.6263 104.238C13.9206 104.237 0 92.1648 0 69.01C0 46.7083 14.7737 32.2205 37.6426 32.2205C41.1936 32.2205 43.8923 32.5036 47.1601 33.3559V0ZM47.1601 50.9685C44.6034 50.1172 42.4728 49.8331 39.7741 49.8331C28.6943 49.8331 22.3017 56.6518 22.3017 68.5829C22.3017 80.2318 28.4102 86.6235 39.6321 86.6235C42.0458 86.6235 44.0352 86.4815 47.1601 86.0563V50.9685Z" fill="#B9F18C"/>
<path d="M103.836 33.7821V84.4921C103.836 101.965 102.557 110.345 98.7223 117.59C95.1705 124.551 90.4823 128.953 80.8238 133.784L60.5106 124.124C70.1701 119.579 74.8573 115.603 77.8401 109.493C80.9658 103.243 81.961 95.9981 81.961 76.9641V33.7821H103.836ZM81.961 0.116455H103.836V22.5602H81.961V0.116455Z" fill="#B9F18C"/>
<path d="M117.049 38.7533C126.709 34.209 135.942 32.2205 146.027 32.2205C157.249 32.2205 164.635 35.2023 167.903 41.0268C169.748 44.2936 170.316 48.5547 170.316 57.647V102.106C160.514 103.527 148.157 104.522 139.066 104.522C120.743 104.522 112.503 98.1276 112.503 83.9239C112.503 68.582 123.44 61.4801 150.288 59.2066V54.3774C150.288 50.4003 148.3 48.9809 142.759 48.9809C134.663 48.9809 125.572 51.2535 117.048 55.6575V38.7533H117.049ZM151.283 73.5551C136.793 74.9755 132.106 77.249 132.106 82.9305C132.106 87.1916 134.805 89.1802 140.771 89.1802C144.039 89.1802 147.021 88.897 151.283 88.1868V73.5551Z" fill="#B9F18C"/>
<path d="M180.971 37.1908C193.896 33.782 204.55 32.2205 215.346 32.2205C226.568 32.2205 234.665 34.7762 239.496 39.7484C244.041 44.4347 245.461 49.5481 245.461 60.4877V103.385H223.585V61.3399C223.585 52.9597 220.744 49.8331 212.932 49.8331C209.949 49.8331 207.251 50.1172 202.846 51.3955V103.385H180.971V37.1908Z" fill="#B9F18C"/>
<path d="M253.965 115.318C261.636 119.295 269.306 121.14 277.403 121.14C291.748 121.14 297.857 115.318 297.857 101.396C297.857 101.254 297.857 101.112 297.857 100.97C293.596 103.1 289.334 103.953 283.653 103.953C264.476 103.953 252.258 91.3107 252.258 71.2825C252.258 46.4224 270.3 32.3616 302.259 32.3616C311.635 32.3616 320.301 33.3549 330.812 35.4855L323.322 51.2645C317.497 50.1282 322.855 51.1123 318.454 50.6862V52.9597L318.737 62.1912L318.878 74.1242C319.02 77.1061 319.02 80.0898 319.163 83.0726C319.163 85.7713 319.163 87.0505 319.163 89.039C319.163 107.79 317.601 116.596 312.914 123.84C306.095 134.495 294.305 139.75 277.544 139.75C269.021 139.75 261.636 138.472 253.964 135.488V115.318H253.965ZM297.432 49.9751C297.148 49.9751 296.864 49.9751 296.722 49.9751H295.159C290.899 49.8331 285.928 50.9685 282.517 53.099C277.262 56.0827 274.562 61.4811 274.562 69.1511C274.562 80.0898 279.961 86.3394 289.62 86.3394C292.602 86.3394 295.018 85.7704 297.858 84.919V83.3557V77.3911C297.858 74.8344 297.717 71.9918 297.717 69.0099L297.576 58.9253L297.433 51.6805V49.9751H297.432Z" fill="#B9F18C"/>
<path d="M364.772 31.9355C386.647 31.9355 400 45.715 400 68.0158C400 90.8865 386.08 105.233 363.92 105.233C342.043 105.233 328.549 91.4538 328.549 69.295C328.55 46.2813 342.471 31.9355 364.772 31.9355ZM364.344 87.6178C372.726 87.6178 377.698 80.6571 377.698 68.583C377.698 56.6519 372.868 49.5491 364.489 49.5491C355.823 49.5491 350.85 56.5108 350.85 68.583C350.851 80.658 355.823 87.6178 364.344 87.6178Z" fill="#B9F18C"/>
</svg>
